<svg width="111" height="91" viewBox="0 0 111 91" fill="none" xmlns="http://www.w3.org/2000/svg">
<path d="M59.0436 23.6812H51.981V28.1845H59.0436V23.6812Z" fill="#1F86FF"/>
<path d="M59.0436 48.3882H51.981V52.8915H59.0436V48.3882Z" fill="#1F86FF"/>
<path d="M60.7167 29.415H59.6339H51.3655H50.2827V31.9743H60.7167V29.415Z" fill="#B5FBFF"/>
<path d="M51.3655 54.1465H50.2827V56.6812H60.7167V54.1465H59.6339H51.3655Z" fill="#B5FBFF"/>
<path d="M43.0724 45.5334H38.2246H29.3655H23.0903V56.6811H43.0724V45.5334Z" fill="#B5FBFF"/>
<path d="M37.6096 39.7751H29.981V44.2785H37.6096V39.7751Z" fill="#1F86FF"/>
<path d="M37.6096 15.0681H29.981V19.5715H37.6096V15.0681Z" fill="#1F86FF"/>
<path d="M43.0724 69.6252H38.2246H29.3655H23.0903V80.7729H43.0724V69.6252Z" fill="#B5FBFF"/>
<path d="M43.0724 20.802H38.2246H29.3655H23.0903V31.9743H43.0724V20.802Z" fill="#B5FBFF"/>
<path d="M71.1263 1.11523H39.8735V5.47094H71.1263V1.11523Z" fill="#1F86FF"/>
<path d="M87.9337 6.70142H71.7413H39.2581H23.0903V10.0236H87.9337V6.70142Z" fill="#B5FBFF"/>
<path d="M37.6096 63.8669H29.981V68.3703H37.6096V63.8669Z" fill="#1F86FF"/>
<path d="M72.7751 69.6252H67.9272V80.7729H87.934V69.6252H81.6588H72.7751Z" fill="#B5FBFF"/>
<path d="M56.1152 72.1108V89.6321H60.717V77.3032C60.717 74.6209 58.6991 72.4308 56.1152 72.1108Z" fill="#1F86FF"/>
<path d="M81.0188 63.8669H73.3901V68.3703H81.0188V63.8669Z" fill="#1F86FF"/>
<path d="M50.2827 77.3032V89.6321H54.8845V72.1108C52.3006 72.4308 50.2827 74.6209 50.2827 77.3032Z" fill="#1F86FF"/>
<path d="M72.7751 45.5334H67.9272V56.6811H87.934V45.5334H81.6588H72.7751Z" fill="#B5FBFF"/>
<path d="M81.0188 15.0681H73.3901V19.5715H81.0188V15.0681Z" fill="#1F86FF"/>
<path d="M72.7751 20.802H67.9272V31.9743H87.934V20.802H81.6588H72.7751Z" fill="#B5FBFF"/>
<path d="M81.0188 39.7751H73.3901V44.2785H81.0188V39.7751Z" fill="#1F86FF"/>
<path d="M59.6588 23.0659H51.3657V28.7997H59.6588V23.0659Z" stroke="#2972A8" stroke-miterlimit="10" stroke-linecap="round" stroke-linejoin="round"/>
<path d="M61.3324 28.7998H49.668V32.5649H61.3324V28.7998Z" stroke="#2972A8" stroke-miterlimit="10" stroke-linecap="round" stroke-linejoin="round"/>
<path d="M59.6588 47.7729H51.3657V53.5067H59.6588V47.7729Z" stroke="#2972A8" stroke-miterlimit="10" stroke-linecap="round" stroke-linejoin="round"/>
<path d="M61.3324 53.5312H49.668V57.2963H61.3324V53.5312Z" stroke="#2972A8" stroke-miterlimit="10" stroke-linecap="round" stroke-linejoin="round"/>
<path d="M55.5002 71.4709C52.2765 71.4709 49.668 74.0795 49.668 77.3032V90.2472H61.3324V77.3032C61.3324 74.0795 58.7239 71.4709 55.5002 71.4709Z" stroke="#2972A8" stroke-miterlimit="10" stroke-linecap="round" stroke-linejoin="round"/>
<path d="M55.5 71.4709V90.2472" stroke="#2972A8" stroke-miterlimit="10" stroke-linecap="round" stroke-linejoin="round"/>
<path d="M25.2314 81.3882V90.2472" stroke="#2972A8" stroke-miterlimit="10" stroke-linecap="round" stroke-linejoin="round"/>
<path d="M25.2314 57.2964V69.01" stroke="#2972A8" stroke-miterlimit="10" stroke-linecap="round" stroke-linejoin="round"/>
<path d="M25.2314 32.5894V44.9182" stroke="#2972A8" stroke-miterlimit="10" stroke-linecap="round" stroke-linejoin="round"/>
<path d="M25.2314 10.6387V20.1868" stroke="#2972A8" stroke-miterlimit="10" stroke-linecap="round" stroke-linejoin="round"/>
<path d="M85.7686 81.3882V90.2472" stroke="#2972A8" stroke-miterlimit="10" stroke-linecap="round" stroke-linejoin="round"/>
<path d="M85.7686 57.2964V69.01" stroke="#2972A8" stroke-miterlimit="10" stroke-linecap="round" stroke-linejoin="round"/>
<path d="M85.7686 32.5894V44.9182" stroke="#2972A8" stroke-miterlimit="10" stroke-linecap="round" stroke-linejoin="round"/>
<path d="M85.7686 10.6387V20.1868" stroke="#2972A8" stroke-miterlimit="10" stroke-linecap="round" stroke-linejoin="round"/>
<path d="M88.5494 6.08618H22.4756V10.6388H88.5494V6.08618Z" stroke="#2972A8" stroke-miterlimit="10" stroke-linecap="round" stroke-linejoin="round"/>
<path d="M71.7415 0.5H39.2583V6.08613H71.7415V0.5Z" stroke="#2972A8" stroke-miterlimit="10" stroke-linecap="round" stroke-linejoin="round"/>
<path d="M0.5 90.2471H110.5" stroke="#2972A8" stroke-miterlimit="10" stroke-linecap="round" stroke-linejoin="round"/>
<path d="M43.7127 20.1868H22.4756V32.5648H43.7127V20.1868Z" stroke="#2972A8" stroke-miterlimit="10" stroke-linecap="round" stroke-linejoin="round"/>
<path d="M38.2004 14.4531H29.3413V20.1869H38.2004V14.4531Z" stroke="#2972A8" stroke-miterlimit="10" stroke-linecap="round" stroke-linejoin="round"/>
<path d="M67.3 32.5969L88.5371 32.5969L88.5371 20.2189L67.3 20.2189L67.3 32.5969Z" stroke="#2972A8" stroke-miterlimit="10" stroke-linecap="round" stroke-linejoin="round"/>
<path d="M72.7977 20.2024L81.6567 20.2024L81.6567 14.4686L72.7977 14.4686L72.7977 20.2024Z" stroke="#2972A8" stroke-miterlimit="10" stroke-linecap="round" stroke-linejoin="round"/>
<path d="M43.7127 44.9185H22.4756V57.2965H43.7127V44.9185Z" stroke="#2972A8" stroke-miterlimit="10" stroke-linecap="round" stroke-linejoin="round"/>
<path d="M38.2004 39.1599H29.3413V44.8937H38.2004V39.1599Z" stroke="#2972A8" stroke-miterlimit="10" stroke-linecap="round" stroke-linejoin="round"/>
<path d="M67.3 57.2876L88.5371 57.2876L88.5371 44.9095L67.3 44.9095L67.3 57.2876Z" stroke="#2972A8" stroke-miterlimit="10" stroke-linecap="round" stroke-linejoin="round"/>
<path d="M72.7977 44.9175L81.6567 44.9175L81.6567 39.1837L72.7977 39.1837L72.7977 44.9175Z" stroke="#2972A8" stroke-miterlimit="10" stroke-linecap="round" stroke-linejoin="round"/>
<path d="M43.7127 69.01H22.4756V81.3881H43.7127V69.01Z" stroke="#2972A8" stroke-miterlimit="10" stroke-linecap="round" stroke-linejoin="round"/>
<path d="M38.2004 63.2517H29.3413V68.9855H38.2004V63.2517Z" stroke="#2972A8" stroke-miterlimit="10" stroke-linecap="round" stroke-linejoin="round"/>
<path d="M67.3 81.3875L88.5371 81.3875L88.5371 69.0094L67.3 69.0094L67.3 81.3875Z" stroke="#2972A8" stroke-miterlimit="10" stroke-linecap="round" stroke-linejoin="round"/>
<path d="M72.7977 69.0176L81.6567 69.0176L81.6567 63.2838L72.7977 63.2838L72.7977 69.0176Z" stroke="#2972A8" stroke-miterlimit="10" stroke-linecap="round" stroke-linejoin="round"/>
</svg>
