<svg width="111" height="46" viewBox="0 0 111 46" fill="none" xmlns="http://www.w3.org/2000/svg">
<path d="M90.6166 30.5224C90.6166 28.9721 89.3616 27.717 87.8112 27.717C86.2609 27.717 85.0059 28.9721 85.0059 30.5224V36.0347H90.6412V30.5224H90.6166Z" fill="#B5FBFF"/>
<path d="M61.8489 41.6207H49.2985C49.2001 41.6207 49.1017 41.5961 49.0279 41.5469H33.3276V43.9093H77.6475V41.5469H62.1196C62.0458 41.5961 61.9473 41.6207 61.8489 41.6207Z" fill="#B5FBFF"/>
<path d="M35.0752 21.048L30.1289 25.822L30.8918 26.6095L35.4197 22.2292C35.4443 22.18 35.4936 22.1061 35.5428 22.0569L54.2452 4.0189L55.1065 3.18221C55.328 2.98534 55.6479 2.98534 55.8694 3.18221L56.7553 4.0435L75.4331 22.0569C75.4824 22.1061 75.507 22.1554 75.5562 22.2292L80.0842 26.6095L80.847 25.822L55.5003 1.28735L51.366 5.27393C51.3168 5.34776 51.2676 5.39697 51.1938 5.42158L35.2229 20.8757C35.1736 20.9495 35.1244 20.9988 35.0752 21.048Z" fill="#1F86FF"/>
<path d="M101.887 20.039L87.3678 5.52002H61.4551L76.4416 20.039H101.887Z" fill="#1F86FF"/>
<path d="M56.5333 13.4195C55.9427 13.1734 55.2783 13.1488 54.6877 13.3949C54.0971 13.641 53.6049 14.0839 53.3588 14.6745C52.8174 15.905 53.3834 17.3322 54.6139 17.849C55.8443 18.3904 57.2716 17.8244 57.7884 16.594C58.3297 15.3882 57.7638 13.9609 56.5333 13.4195Z" fill="#B5FBFF"/>
<path d="M23.1892 27.6924C21.6388 27.6924 20.3838 28.9474 20.3838 30.4978V36.0101H26.0191V30.4978C26.0191 28.972 24.7395 27.6924 23.1892 27.6924Z" fill="#B5FBFF"/>
<path d="M55.574 24.1487C52.4487 24.1487 49.9141 26.6834 49.9141 29.8086V40.3903H61.234V29.8086C61.234 26.708 58.6993 24.1487 55.574 24.1487Z" fill="#1F86FF"/>
<path d="M49.52 5.52002H23.6318L9.11279 20.039H34.5334L49.52 5.52002Z" fill="#1F86FF"/>
<path d="M0.5 44.5493H110.5" stroke="#2972A8" stroke-miterlimit="10" stroke-linecap="round" stroke-linejoin="round"/>
<path d="M78.2139 41.0056H32.7866V44.5246H78.2139V41.0056Z" stroke="#2972A8" stroke-miterlimit="10" stroke-linecap="round" stroke-linejoin="round"/>
<path d="M75.0637 22.4509L55.5 3.57617L35.9116 22.4509V41.0057H75.0637V22.4509Z" stroke="#2972A8" stroke-miterlimit="10" stroke-linecap="round" stroke-linejoin="round"/>
<path d="M80.1086 27.3971L55.5001 3.57606L30.8916 27.3971L29.3413 25.7975L55.5001 0.5L81.6344 25.7975L80.1086 27.3971Z" stroke="#2972A8" stroke-miterlimit="10" stroke-linecap="round" stroke-linejoin="round"/>
<path d="M55.574 23.5337C52.1042 23.5337 49.2988 26.3391 49.2988 29.8089V41.0057H61.8492V29.8089C61.8492 26.3637 59.0438 23.5337 55.574 23.5337Z" stroke="#2972A8" stroke-miterlimit="10" stroke-linecap="round" stroke-linejoin="round"/>
<path d="M87.8112 27.0771C85.9163 27.0771 84.3906 28.6029 84.3906 30.4977V36.6252H91.2564V30.4977C91.2318 28.6275 89.7061 27.0771 87.8112 27.0771Z" stroke="#2972A8" stroke-miterlimit="10" stroke-linecap="round" stroke-linejoin="round"/>
<path d="M60.1021 4.9541H87.5898L103.216 20.5805H76.2206" stroke="#2972A8" stroke-miterlimit="10" stroke-linecap="round" stroke-linejoin="round"/>
<path d="M100.558 20.5806V44.5492" stroke="#2972A8" stroke-miterlimit="10" stroke-linecap="round" stroke-linejoin="round"/>
<path d="M23.1888 27.0771C25.0837 27.0771 26.6094 28.6029 26.6094 30.4977V36.6252H19.7437V30.4977C19.7683 28.6275 21.294 27.0771 23.1888 27.0771Z" stroke="#2972A8" stroke-miterlimit="10" stroke-linecap="round" stroke-linejoin="round"/>
<path d="M50.8983 4.9541H23.4106L7.78418 20.5805H34.7797" stroke="#2972A8" stroke-miterlimit="10" stroke-linecap="round" stroke-linejoin="round"/>
<path d="M10.4419 20.5806V44.5492" stroke="#2972A8" stroke-miterlimit="10" stroke-linecap="round" stroke-linejoin="round"/>
<path d="M55.5737 18.6611C57.2454 18.6611 58.6006 17.3059 58.6006 15.6343C58.6006 13.9626 57.2454 12.6074 55.5737 12.6074C53.902 12.6074 52.5469 13.9626 52.5469 15.6343C52.5469 17.3059 53.902 18.6611 55.5737 18.6611Z" stroke="#2972A8" stroke-miterlimit="10" stroke-linecap="round" stroke-linejoin="round"/>
</svg>
