<?xml version="1.0" encoding="UTF-8"?>
<svg id="Livello_1" data-name="Livello 1" xmlns="http://www.w3.org/2000/svg" viewBox="0 0 907.29 608.03">
  <path d="M118.86,599.41c-4,1.42-8.61,1.45-12.91,1.45-29.56-.15-67.95.52-94.03-.08-6.61-.41-6.01-.5-1.41-5.55,82.73-87.45,339-337.08,368.67-368.34.71-.77,2.48-.59,3.84.22,2.15,1.16,3.83,2.72,5.69,4.41,12.09,11.68,29.05,28.9,40.73,40.5,2.51,2.69,10.35,9.33,7.84,12.81-36.12,38.11-91.57,90.67-134.23,134.19-48.44,48.11-133.68,133.7-176.29,175.4-2.07,1.94-4.53,3.82-7.73,4.95l-.17.06Z" style="stroke: #000; stroke-miterlimit: 10; stroke-width: 14px;"/>
  <path d="M582.56,421.12c-13.41,13.75-42.52,42.62-53.82,53.99-2.3,2.1-3.53,4.14-4.37,3.41-7.66-7.62-163.43-157.88-195.08-189.51-1.76-1.75-3.28-3.29-4.96-4.96-1.04-1.11-1.32-.75,1.46-3.54,9.88-9.96,38.8-38.75,50.57-50.57,2.58-2.56,4.01-4.07,4.62-4.52.36-.26.55-.25.78-.08,4.35,4.51,161.55,155.18,200.8,195.75v.02Z" style="stroke: #000; stroke-miterlimit: 10; stroke-width: 14px;"/>
  <path d="M525.52,475.47c-2.81-.61-5.75-3.53-7.99-5.79-13.34-13.64-34.71-32.19-48.04-46.73-2.04-2.63-2.37-3.34-1.11-4.68,28-28.72,231.04-232.69,303.86-306.21,3.92-3.75,6.59-7.27,9.9-8.59,2.67-.96,5.09,1.23,7.24,3.25,12.7,12.65,33.82,31.69,47.77,45.93,2.05,2.3,5.15,4.97,4.75,7.17-9.96,11.86-73.31,73.77-134.4,135.88-51.4,51.45-134.97,136.83-175.37,176.33-1.78,1.74-4.05,3.88-6.52,3.46h-.09Z" style="stroke: #000; stroke-miterlimit: 10; stroke-width: 14px;"/>
  <path d="M248.97,429.55c-14.85.11-46.57.03-58.97.05-2.41-.06-4.2.2-4.26-.31-.02-5.03-3.04-105.73-3.04-126.55,0-1.16,0-2.16,0-3.26.04-.71-.32-.68,2.73-.68,10.85-.02,42.42.02,55.33,0,2.81,0,4.42-.02,5,.03.34.03.43.1.47.23-.09,2.91,3.49,104.22,2.76,130.49h-.02Z" style="stroke: #000; stroke-miterlimit: 10; stroke-width: 14px;"/>
  <path d="M371.33,600.44c-.4.77-4.2.55-6.66.59-9.04,0-20.42,0-29.78,0-2.14,0-4.06.01-6.07-.02-2.89-.05-3.31-.47-3.36-3.36-.05-11.03,0-23.46-.02-34.36.04-9.87-1.15-8.76,8.78-8.78,10.91.02,23.32-.03,34.36.02,2.89.05,3.31.47,3.36,3.36.03,1.84.01,3.67.02,5.62,0,9.49,0,21.06,0,30.24-.04,2.46.17,6.24-.59,6.66l-.04.04Z" style="stroke: #000; stroke-miterlimit: 10; stroke-width: 14px;"/>
  <path d="M437.14,600.44c-.4.77-4.2.55-6.66.59-9.04,0-20.42,0-29.78,0-2.14,0-4.06.01-6.07-.02-2.89-.05-3.31-.47-3.36-3.36-.05-11.03,0-23.46-.02-34.36.04-9.87-1.15-8.76,8.78-8.78,10.91.02,23.32-.03,34.36.02,2.89.05,3.31.47,3.36,3.36.03,1.84.01,3.67.02,5.62,0,9.49,0,21.06,0,30.24-.04,2.46.17,6.24-.59,6.66l-.04.04Z" style="stroke: #000; stroke-miterlimit: 10; stroke-width: 14px;"/>
  <path d="M370.67,533.7c-.35.3-.78.32-1.23.35-1.36.04-3.63.01-6.56.02-3.06,0-5.86,0-8.99,0-7.91-.14-19.87.29-26.17-.17-2.37-.74-1.5-4.26-1.4-6.36,2.61-23.62,21.4-44.17,42.76-43.96,1.05.05,1.91.71,2.04,1.82.2,6.16,0,20.74.08,28.95.02,4.4-.03,8.2-.01,12.43-.11,2.31.48,5.13-.45,6.85l-.08.08Z" style="stroke: #000; stroke-miterlimit: 10; stroke-width: 14px;"/>
  <path d="M392.5,533.7c.35.3.78.32,1.23.35,1.36.04,3.63.01,6.56.02,3.06,0,5.86,0,8.99,0,7.91-.14,19.87.29,26.17-.17,2.37-.74,1.5-4.26,1.4-6.36-2.61-23.62-21.4-44.17-42.76-43.96-1.05.05-1.91.71-2.04,1.82-.2,6.16,0,20.74-.08,28.95-.02,4.4.03,8.2.01,12.43.11,2.31-.48,5.13.45,6.85l.08.08Z" style="stroke: #000; stroke-miterlimit: 10; stroke-width: 14px;"/>
  <path d="M904.41,40.04c-1.88-1.76-4.98-2.28-9.07-1.91-46.58,9.96-99.74,26.58-146.83,38.57-4.39,1.19-9.31,2.59-13.29,3.97-6.29,2.41-14.29,4.94-10.13,11.96,27.2,29.98,79.24,79.9,116.22,117.49,4.46,4.14,8.68,8.26,13.47,10.25,5.65,2.37,8.08-4.22,9.5-9.08,9.32-34.25,26.96-99.8,39.3-146.77,1.58-7.22,5.83-19.11.89-24.42l-.07-.06Z" style="stroke: #000; stroke-linecap: round; stroke-miterlimit: 10;"/>
</svg>