<svg width="144" height="81" viewBox="0 0 144 81" fill="none" xmlns="http://www.w3.org/2000/svg">
<path d="M112.888 15.5109H39.4053V12.6079C39.4055 11.7579 39.7432 10.9428 40.3443 10.3417C40.9453 9.74073 41.7604 9.40306 42.6103 9.40283H111.908C111.79 9.97861 111.731 10.5649 111.731 11.1526C111.731 11.1775 111.731 11.1993 111.731 11.2234H50.896V13.6654H112.041L112.1 13.6489C112.293 14.2966 112.558 14.921 112.888 15.5109Z" fill="#81F8F8"/>
<path d="M79.3832 63.1064C79.8525 63.1064 80.312 63.245 80.7029 63.5064C81.0931 63.767 81.3974 64.1376 81.5774 64.5715C81.7574 65.0054 81.8041 65.4829 81.7123 65.9439C81.6211 66.4041 81.3951 66.8275 81.063 67.1596C80.7308 67.4918 80.3075 67.7178 79.8472 67.8089C79.3862 67.9008 78.9087 67.8541 78.4748 67.6741C78.041 67.4941 77.6704 67.1898 77.4097 66.7996C77.1484 66.4087 77.0098 65.9492 77.0098 65.4799C77.0098 64.8502 77.2606 64.2469 77.705 63.8017C78.1502 63.3573 78.7535 63.1064 79.3832 63.1064Z" fill="white"/>
<path d="M122.21 27.4205V54.763C121.647 55.0056 121.099 55.282 120.57 55.5916L119.332 55.1728L119.364 55.0771V22.2246L122.21 27.4205Z" fill="white"/>
<path d="M122.21 21.8015V27.4214L119.363 22.2241V20.936C120.284 21.3106 121.237 21.6003 122.21 21.8015Z" fill="#1D1F3F"/>
<path d="M116.706 69.8098H111.515L113.939 61.1528H115.534C115.116 62.1908 114.9 63.2988 114.9 64.4181C114.915 66.3615 115.547 68.2499 116.706 69.8098Z" fill="#1D1F3F"/>
<path d="M113.942 61.1537L111.517 69.8107H40.8822C39.7355 69.8107 38.6358 69.355 37.8249 68.5445C37.0142 67.7333 36.5586 66.6336 36.5586 65.4871V44.8385L39.4051 41.2026V57.9487C39.4053 58.7983 39.743 59.6141 40.3441 60.2144C40.9451 60.8155 41.7602 61.1537 42.6101 61.1537H113.942ZM81.7613 65.4818C81.7613 65.0118 81.6227 64.5531 81.3614 64.1622C81.1007 63.772 80.7301 63.4669 80.2963 63.2869C79.8624 63.1076 79.3848 63.0602 78.9239 63.1513C78.4636 63.2432 78.0403 63.4692 77.7081 63.8006C77.3752 64.1328 77.1492 64.5561 77.0573 65.0163C76.9654 65.4773 77.0121 65.9549 77.1914 66.3887C77.3714 66.8226 77.675 67.194 78.0659 67.4553C78.4561 67.716 78.9148 67.8561 79.3848 67.8561C80.0146 67.8561 80.6179 67.606 81.0638 67.1608C81.509 66.7149 81.7591 66.1116 81.7591 65.4818H81.7613Z" fill="white"/>
<path d="M112.919 23.5497C113.086 23.5456 113.253 23.575 113.409 23.6362C113.564 23.6973 113.706 23.7891 113.826 23.9059C113.946 24.0227 114.041 24.1623 114.105 24.3165C114.17 24.4706 114.204 24.6362 114.204 24.8035C114.204 24.9707 114.17 25.1364 114.105 25.2905C114.041 25.4447 113.946 25.5843 113.826 25.7011C113.706 25.8179 113.564 25.9096 113.409 25.9708C113.253 26.0319 113.086 26.0614 112.919 26.0572H84.0157C83.7679 26.0578 83.5246 25.9845 83.3182 25.8468C83.1118 25.7092 82.9514 25.5133 82.8557 25.284C82.7608 25.0548 82.7367 24.8026 82.7849 24.5592C82.8339 24.3159 82.9536 24.0925 83.1291 23.9173C83.2451 23.8002 83.383 23.7074 83.5351 23.6443C83.6873 23.5812 83.8507 23.549 84.0157 23.5497H112.919Z" fill="#81F8F8"/>
<path d="M112.919 28.9097C113.252 28.9097 113.571 29.0418 113.806 29.2769C114.042 29.5122 114.174 29.8312 114.174 30.1638C114.174 30.4964 114.042 30.8154 113.806 31.0506C113.571 31.2858 113.252 31.418 112.919 31.418H69.3926C69.0598 31.4174 68.7409 31.2848 68.5057 31.0495C68.2704 30.8141 68.1381 30.495 68.1377 30.1623C68.1391 29.8301 68.2719 29.512 68.5069 29.2772C68.742 29.0426 69.0604 28.9104 69.3926 28.9097H112.919Z" fill="#1D1F3F"/>
<path d="M112.92 34.2733C113.087 34.2692 113.253 34.2986 113.409 34.3598C113.564 34.421 113.707 34.5126 113.827 34.6295C113.946 34.7463 114.041 34.8859 114.106 35.0401C114.171 35.1942 114.205 35.3598 114.205 35.5271C114.205 35.6944 114.171 35.86 114.106 36.0142C114.041 36.1683 113.946 36.3078 113.827 36.4247C113.707 36.5415 113.564 36.6332 113.409 36.6944C113.253 36.7556 113.087 36.7849 112.92 36.7809H98.6397C98.3067 36.7806 97.9881 36.6484 97.7523 36.4131C97.5173 36.1777 97.3848 35.8587 97.3848 35.526C97.3855 35.1935 97.5181 34.8749 97.7531 34.6401C97.9881 34.4052 98.3075 34.2733 98.6397 34.2733H112.92Z" fill="#81F8F8"/>
<path d="M112.919 39.6318C113.252 39.6318 113.571 39.7637 113.806 39.9994C114.042 40.2344 114.173 40.553 114.173 40.886C114.173 41.2189 114.042 41.5375 113.806 41.7725C113.571 42.0083 113.252 42.1401 112.919 42.1401H66.9558C66.6229 42.1394 66.3038 42.0076 66.0684 41.7718C65.833 41.5368 65.7006 41.2174 65.7002 40.8845C65.7016 40.5523 65.8344 40.2337 66.0697 39.9994C66.305 39.7644 66.6235 39.6326 66.9558 39.6318H112.919Z" fill="#1D1F3F"/>
<path d="M112.92 44.9961C113.247 45.0044 113.558 45.14 113.787 45.3742C114.015 45.6085 114.143 45.9226 114.143 46.2502C114.143 46.5771 114.015 46.8912 113.787 47.1255C113.558 47.3598 113.247 47.4953 112.92 47.5036H88.8914C88.5585 47.5036 88.2391 47.3711 88.0041 47.1361C87.7683 46.9003 87.6365 46.5817 87.6357 46.2487C87.6365 45.9166 87.7698 45.5979 88.0048 45.3629C88.2398 45.1279 88.5592 44.9961 88.8914 44.9961H112.92Z" fill="#81F8F8"/>
<path d="M112.919 50.3577C113.087 50.354 113.253 50.3834 113.409 50.4444C113.564 50.5054 113.707 50.5973 113.826 50.714C113.946 50.8308 114.041 50.9701 114.106 51.1245C114.171 51.279 114.204 51.4439 114.204 51.6119C114.204 51.7791 114.171 51.9441 114.106 52.0985C114.041 52.2529 113.946 52.3922 113.826 52.509C113.707 52.6257 113.564 52.7176 113.409 52.7787C113.253 52.8397 113.087 52.869 112.919 52.8653H105.951C105.618 52.8653 105.3 52.7327 105.064 52.4977C104.829 52.2619 104.696 51.9433 104.696 51.6104C104.697 51.2782 104.83 50.9596 105.065 50.7246C105.3 50.4903 105.619 50.3585 105.951 50.3577H112.919Z" fill="#1D1F3F"/>
<path d="M112.919 55.7197C113.252 55.7197 113.571 55.8515 113.806 56.0873C114.041 56.3223 114.173 56.6409 114.173 56.9739C114.173 57.3068 114.041 57.6254 113.806 57.8604C113.571 58.0962 113.252 58.228 112.919 58.228H74.2674C73.9344 58.2273 73.6151 58.0955 73.3801 57.8597C73.1443 57.6247 73.0125 57.3053 73.0117 56.9724C73.0132 56.6402 73.1458 56.3216 73.3816 56.0873C73.6166 55.8523 73.9352 55.7205 74.2674 55.7197H112.919Z" fill="#81F8F8"/>
<path d="M113.017 18.1958L111.801 20.6943H74.2678C73.9349 20.6943 73.6163 20.5622 73.3813 20.327C73.1455 20.0918 73.0137 19.7728 73.0137 19.4402C73.0137 19.1076 73.1455 18.7886 73.3813 18.5534C73.6163 18.3182 73.9349 18.186 74.2678 18.186H112.92C112.954 18.186 112.983 18.1936 113.017 18.1958Z" fill="#1D1F3F"/>
<path d="M40.8822 7.32617H112.607C112.291 7.98752 112.057 8.68487 111.908 9.40286H42.6101C41.7602 9.40308 40.9451 9.74084 40.3441 10.3418C39.743 10.9429 39.4053 11.7579 39.4051 12.6079V22.8392C38.522 22.1849 37.567 21.6337 36.5586 21.1963V11.6498C36.5586 11.082 36.6705 10.5198 36.8877 9.9952C37.105 9.47065 37.4235 8.994 37.8249 8.59252C38.2264 8.19104 38.7031 7.87257 39.2276 7.65534C39.7522 7.43803 40.3144 7.32617 40.8822 7.32617Z" fill="white"/>
<path d="M112.1 13.6486L112.041 13.6651H50.8955V11.2231H111.733C111.738 12.0451 111.861 12.862 112.1 13.6486Z" fill="#1D1F3F"/>
<path d="M99.0287 50.3574C99.3556 50.3657 99.6667 50.5013 99.8957 50.7355C100.124 50.9698 100.252 51.2839 100.252 51.6108C100.252 51.9385 100.124 52.2526 99.8957 52.4868C99.6667 52.7211 99.3556 52.8567 99.0287 52.865H50.627C50.2942 52.865 49.9751 52.7324 49.7399 52.4974C49.5046 52.2616 49.3723 51.943 49.3721 51.6101C49.373 51.2779 49.5057 50.9593 49.7409 50.7242C49.976 50.49 50.2946 50.3582 50.627 50.3574H99.0287Z" fill="#81F8F8"/>
<path d="M91.7163 34.2729C92.0432 34.281 92.3543 34.4166 92.5832 34.6509C92.8115 34.8851 92.9395 35.1994 92.9395 35.5267C92.9395 35.854 92.8115 36.1683 92.5832 36.4026C92.3543 36.6368 92.0432 36.7725 91.7163 36.7805H50.627C50.2942 36.7803 49.9751 36.6481 49.7399 36.4128C49.5046 36.1774 49.3723 35.8584 49.3721 35.5256C49.3727 35.1932 49.5052 34.8746 49.7404 34.6397C49.9757 34.4048 50.2946 34.2729 50.627 34.2729H91.7163Z" fill="#1D1F3F"/>
<path d="M88.7208 76.0273L89.7497 80.5626H88.2967H71.0949H69.0205L71.458 69.8101L88.7208 76.0273Z" fill="white"/>
<path d="M87.3112 69.8101L88.7198 76.0273L71.457 69.8101H87.3112Z" fill="#1D1F3F"/>
<path d="M81.9671 44.9961C82.294 45.0044 82.605 45.14 82.834 45.3742C83.0623 45.6085 83.1903 45.9226 83.1903 46.2502C83.1903 46.5771 83.0623 46.8912 82.834 47.1255C82.605 47.3598 82.294 47.4953 81.9671 47.5036H50.627C50.2942 47.5036 49.9751 47.3711 49.7399 47.1361C49.5046 46.9003 49.3723 46.5817 49.3721 46.2487C49.3727 45.9166 49.5052 45.5979 49.7404 45.3629C49.9757 45.1279 50.2946 44.9961 50.627 44.9961H81.9671Z" fill="#1D1F3F"/>
<path d="M77.0916 23.5497C77.2588 23.5456 77.4252 23.575 77.5812 23.6362C77.7363 23.6973 77.8787 23.7891 77.9985 23.9059C78.1182 24.0227 78.2131 24.1623 78.2779 24.3165C78.3427 24.4706 78.3766 24.6362 78.3766 24.8035C78.3766 24.9707 78.3427 25.1364 78.2779 25.2905C78.2131 25.4447 78.1182 25.5843 77.9985 25.7011C77.8787 25.8179 77.7363 25.9096 77.5812 25.9708C77.4252 26.0319 77.2588 26.0614 77.0916 26.0572H50.6257C50.4585 26.0614 50.2921 26.0319 50.1364 25.9708C49.9807 25.9096 49.8389 25.8179 49.7191 25.7011C49.5994 25.5843 49.5042 25.4447 49.4393 25.2905C49.3743 25.1364 49.3408 24.9707 49.3408 24.8035C49.3408 24.6362 49.3743 24.4706 49.4393 24.3165C49.5042 24.1623 49.5994 24.0227 49.7191 23.9059C49.8389 23.7891 49.9807 23.6973 50.1364 23.6362C50.2921 23.575 50.4585 23.5456 50.6257 23.5497H77.0916Z" fill="#1D1F3F"/>
<path d="M67.3436 18.186C67.6763 18.186 67.9953 18.3182 68.2304 18.5534C68.4657 18.7886 68.5978 19.1076 68.5978 19.4402C68.5978 19.7728 68.4657 20.0918 68.2304 20.327C67.9953 20.5622 67.6763 20.6943 67.3436 20.6943H50.627C50.2942 20.6941 49.9751 20.5618 49.7399 20.3266C49.5046 20.0913 49.3723 19.7722 49.3721 19.4394C49.3729 19.107 49.5054 18.7884 49.7406 18.5535C49.9758 18.3186 50.2946 18.1864 50.627 18.186H67.3436Z" fill="#81F8F8"/>
<path d="M67.3436 55.7197C67.6763 55.7197 67.9953 55.8515 68.2304 56.0873C68.4657 56.3223 68.5978 56.6409 68.5978 56.9739C68.5978 57.3068 68.4657 57.6254 68.2304 57.8604C67.9953 58.0962 67.6763 58.228 67.3436 58.228H50.627C50.2942 58.2273 49.9751 58.0955 49.7398 57.8597C49.5046 57.6247 49.3723 57.3053 49.3721 56.9724C49.373 56.6402 49.5057 56.3216 49.7409 56.0866C49.976 55.8523 50.2946 55.7205 50.627 55.7197H67.3436Z" fill="#1D1F3F"/>
<path d="M62.4694 28.9097C62.8021 28.9097 63.121 29.0418 63.3563 29.2769C63.5914 29.5122 63.7236 29.8312 63.7236 30.1638C63.7236 30.4964 63.5914 30.8154 63.3563 31.0506C63.121 31.2858 62.8021 31.418 62.4694 31.418H50.627C50.2942 31.4175 49.9751 31.2851 49.7398 31.0497C49.5046 30.8142 49.3723 30.4951 49.3721 30.1623C49.373 29.83 49.5057 29.5116 49.7409 29.2768C49.976 29.0421 50.2946 28.91 50.627 28.9097H62.4694Z" fill="#81F8F8"/>
<path d="M60.0319 39.6318C60.3646 39.6318 60.6836 39.7637 60.9188 39.9994C61.154 40.2344 61.2861 40.553 61.2861 40.886C61.2861 41.2189 61.154 41.5375 60.9188 41.7725C60.6836 42.0083 60.3646 42.1401 60.0319 42.1401H50.627C50.2942 42.1394 49.9751 42.0076 49.7398 41.7718C49.5046 41.5368 49.3723 41.2174 49.3721 40.8845C49.373 40.5523 49.5057 40.2337 49.7409 39.9994C49.976 39.7644 50.2946 39.6326 50.627 39.6318H60.0319Z" fill="#81F8F8"/>
<path d="M43.6514 29.2959C43.8166 29.3576 43.9609 29.4652 44.067 29.606C44.1732 29.7469 44.2369 29.9151 44.2506 30.0909C44.2644 30.2668 44.2277 30.4429 44.1447 30.5986C44.0618 30.7542 43.9361 30.883 43.7824 30.9696C43.7824 30.9184 43.7824 30.8649 43.7824 30.8114C43.7824 30.6871 43.7824 30.5629 43.7726 30.4386V30.4092C43.7566 30.0359 43.7161 29.6639 43.6514 29.2959Z" fill="#1D1F3F"/>
<path d="M43.3197 18.5064C43.5045 18.5058 43.6854 18.56 43.8394 18.6623C43.9934 18.7646 44.1136 18.9102 44.1848 19.0809C44.2559 19.2515 44.2748 19.4393 44.2392 19.6207C44.2035 19.8021 44.1147 19.9688 43.9842 20.0997C43.8537 20.2307 43.6873 20.3199 43.506 20.3562C43.3247 20.3925 43.1368 20.3742 42.966 20.3035C42.7951 20.2329 42.6491 20.1132 42.5463 19.9596C42.4435 19.8059 42.3887 19.6252 42.3887 19.4404C42.3887 19.1932 42.4867 18.956 42.6612 18.781C42.8356 18.6059 43.0725 18.5071 43.3197 18.5064Z" fill="#1D1F3F"/>
<path d="M43.3197 23.8677C43.5044 23.8672 43.685 23.9215 43.8388 24.0238C43.9925 24.1261 44.1125 24.2717 44.1835 24.4422C44.2545 24.6127 44.2733 24.8004 44.2375 24.9816C44.2018 25.1628 44.1131 25.3293 43.9827 25.46C43.8522 25.5908 43.6859 25.6799 43.5048 25.7161C43.3237 25.7523 43.136 25.7339 42.9653 25.6633C42.7947 25.5928 42.6488 25.4732 42.5461 25.3196C42.4434 25.1661 42.3887 24.9856 42.3887 24.8009C42.3887 24.5538 42.4867 24.3168 42.6612 24.1418C42.8357 23.9669 43.0725 23.8683 43.3197 23.8677Z" fill="#1D1F3F"/>
<path d="M43.3204 34.5915C43.5679 34.5915 43.8053 34.6898 43.9803 34.8648C44.1553 35.0398 44.2537 35.2772 44.2537 35.5247C44.2537 35.7722 44.1553 36.0096 43.9803 36.1846C43.8053 36.3597 43.5679 36.458 43.3204 36.458C43.1214 36.4533 42.929 36.386 42.7706 36.2656C42.6121 36.1452 42.4955 35.978 42.4376 35.7876L42.3096 35.707C42.5295 35.3653 42.7273 35.0098 42.9016 34.6427L42.943 34.6615C43.0206 34.5847 43.2564 34.5915 43.3204 34.5915Z" fill="#1D1F3F"/>
<path d="M43.3197 45.3145C43.5045 45.3137 43.6854 45.3679 43.8394 45.4704C43.9934 45.5728 44.1136 45.7182 44.1848 45.8892C44.2559 46.0594 44.2748 46.2477 44.2392 46.4285C44.2035 46.61 44.1147 46.7773 43.9842 46.9076C43.8537 47.0386 43.6873 47.1283 43.506 47.1644C43.3247 47.2006 43.1368 47.1825 42.966 47.1117C42.7951 47.0409 42.6491 46.9211 42.5463 46.7675C42.4435 46.6138 42.3887 46.433 42.3887 46.2485C42.3887 46.0014 42.4867 45.7641 42.6612 45.5894C42.8356 45.4139 43.0725 45.3152 43.3197 45.3145Z" fill="#1D1F3F"/>
<path d="M43.3197 50.6777C43.5044 50.677 43.685 50.732 43.8388 50.8337C43.9925 50.9361 44.1125 51.0815 44.1835 51.2525C44.2545 51.4227 44.2733 51.6103 44.2375 51.7918C44.2018 51.9726 44.1131 52.139 43.9827 52.2701C43.8522 52.4012 43.6859 52.49 43.5048 52.5262C43.3237 52.5624 43.136 52.5443 42.9653 52.4735C42.7947 52.4027 42.6488 52.2829 42.5461 52.13C42.4434 51.9763 42.3887 51.7956 42.3887 51.611C42.3887 51.3639 42.4867 51.1267 42.6612 50.9519C42.8357 50.7772 43.0725 50.6785 43.3197 50.6777Z" fill="#1D1F3F"/>
<path d="M43.3197 56.0391C43.5046 56.0383 43.6854 56.0926 43.8395 56.195C43.9935 56.2974 44.1137 56.4428 44.1848 56.6138C44.256 56.784 44.2749 56.9723 44.2391 57.1539C44.2033 57.3354 44.1145 57.5019 43.984 57.6329C43.8533 57.764 43.6869 57.8529 43.5056 57.889C43.3243 57.9252 43.1363 57.9071 42.9654 57.8363C42.7946 57.7655 42.6486 57.6457 42.5459 57.4921C42.4433 57.3377 42.3885 57.1569 42.3887 56.9723C42.3887 56.7253 42.4867 56.488 42.6612 56.3132C42.8357 56.1385 43.0725 56.0398 43.3197 56.0391Z" fill="#1D1F3F"/>
<path d="M38.1158 39.6372L39.4717 40.2782L39.4031 40.4243V41.2024L36.5566 44.8383V40.4243C37.092 40.1939 37.6128 39.931 38.1158 39.6372Z" fill="#1D1F3F"/>
<path d="M33.4757 41.4248L33.5021 41.5446C32.2427 44.4009 30.6398 47.2353 28.762 48.8126C28.1523 49.324 27.5658 49.8423 27.0024 50.3673C26.79 47.2526 26.561 44.1011 26.3418 41.5446C27.4219 41.7412 28.5175 41.8398 29.6154 41.8391C30.9134 41.8413 32.2077 41.702 33.4757 41.4248Z" fill="#1D1F3F"/>
<path d="M24.6465 55.7022C25.1098 54.6168 25.8242 53.6572 26.7307 52.9017C26.8693 52.7947 27.0079 52.687 27.1495 52.5846C29.386 51.0118 31.823 49.7448 34.3957 48.8184C34.3271 48.9645 31.7096 54.5091 29.1983 56.6272C28.616 57.1168 28.033 57.556 27.4824 57.983C26.9236 58.4079 26.395 58.8711 25.9006 59.3698C25.3547 59.9068 24.923 60.5493 24.6312 61.2574C24.3393 61.9654 24.1933 62.7254 24.2021 63.4915V63.6158H23.1279V63.4915C23.1416 62.1778 23.264 60.868 23.494 59.5746C23.7131 58.2406 24.1004 56.939 24.6465 55.7022Z" fill="#81F8F8"/>
<path d="M27.7477 63.4923V63.6166H26.4416C26.3781 62.1885 26.1954 60.7686 25.8955 59.3706C26.39 58.872 26.9186 58.4087 27.4773 57.9839C27.6453 60.8116 27.7477 62.9266 27.7477 63.4923Z" fill="#1D1F3F"/>
<path d="M27.1481 52.5833C27.0065 52.688 26.8679 52.7958 26.7293 52.9027C25.8228 53.6582 25.1085 54.6178 24.6451 55.7033C24.3551 55.2513 23.9966 54.7504 23.5823 54.1923C22.6196 52.8907 21.3723 51.3066 20.0925 49.5463C18.5515 47.4824 17.1758 45.3003 15.9783 43.0194C15.9783 43.0194 15.9708 43.0074 15.9587 42.9856C15.7787 42.627 15.6077 42.2715 15.445 41.9107C10.1143 30.1533 13.568 18.4307 13.568 18.4307C15.3955 20.0976 17.1101 21.8842 18.7005 23.7787C17.7014 24.6626 16.8963 25.744 16.336 26.9546C15.7757 28.1651 15.4723 29.4787 15.445 30.8124C15.445 36.0256 20.0925 40.3959 26.3414 41.5461C26.5606 44.1026 26.7896 47.2542 27.002 50.3688C27.051 51.1115 27.1022 51.8519 27.1481 52.5833Z" fill="#81F8F8"/>
<path d="M22.9689 55.1172C22.9689 55.1172 23.3689 57.4982 23.4962 59.5726C23.2662 60.8659 23.1437 62.1758 23.1301 63.4894V63.6137H22.0598V63.4894C22.4364 60.9691 22.05 58.1324 22.0598 56.7916C22.3311 56.2169 22.6347 55.658 22.9689 55.1172Z" fill="#1D1F3F"/>
<path d="M23.583 54.1936C23.369 54.4949 23.1642 54.8053 22.9691 55.1194C22.6348 55.6602 22.3314 56.2191 22.0599 56.7938C21.072 58.9292 20.5527 61.2515 20.5368 63.6038V63.6159H20.1075C20.0815 61.0007 19.8115 58.3937 19.3008 55.8281C19.5471 54.5386 19.6774 53.0766 19.8348 51.5844C19.9056 50.9117 19.981 50.2323 20.0736 49.5619L20.0932 49.5469C21.3729 51.3087 22.6203 52.8905 23.583 54.1936Z" fill="#81F8F8"/>
<path d="M20.107 63.616H18.2089C18.0846 57.1569 13.7173 55.1172 9.34473 51.4323C4.82529 47.6277 0.12207 37.584 0.12207 37.584C4.82326 39.2771 9.26587 41.6168 13.3218 44.5349C13.4482 44.6418 13.58 44.7428 13.7165 44.8362C16.8802 47.3174 18.4913 51.8022 19.3003 55.826C19.8112 58.3915 20.0812 61 20.107 63.616Z" fill="#81F8F8"/>
<path d="M20.0925 49.5462L20.0729 49.5613C19.9802 50.2317 19.9049 50.9111 19.8341 51.5837C19.4002 48.7056 17.0946 47.175 13.717 44.8377C13.5852 44.7353 13.4557 44.6328 13.3216 44.5364C10.2582 41.9679 9.30078 35.7017 9.30078 35.7017C12.8079 37.7633 15.6958 42.5426 15.9587 42.9862C15.9707 43.0081 15.9783 43.0201 15.9783 43.0201C17.1758 45.3002 18.5514 47.4823 20.0925 49.5462Z" fill="#1D1F3F"/>
<path d="M36.5586 40.4239C37.0932 40.1934 37.6132 39.9305 38.1155 39.6368L39.4714 40.2778L46.0999 43.3977L41.8064 36.4348C41.9864 36.1982 42.1574 35.9572 42.3134 35.7079C42.5335 35.366 42.7312 35.0102 42.9054 34.6428C43.4598 33.4963 43.7589 32.2433 43.7822 30.97C43.7822 30.9188 43.7822 30.8653 43.7822 30.8118C43.7822 30.6875 43.7822 30.5632 43.7724 30.439" stroke="#1D1F3F" stroke-width="0.243673" stroke-linecap="round" stroke-linejoin="round"/>
<path d="M43.7754 30.4089C43.7584 30.0354 43.7168 29.6636 43.6512 29.2956C43.1149 26.679 41.5951 24.3679 39.4051 22.8388C38.522 22.1845 37.567 21.6333 36.5586 21.196C34.3666 20.2502 32.0025 19.7691 29.6153 19.7829C25.6052 19.6974 21.7094 21.1224 18.7008 23.7751C17.7017 24.659 16.8966 25.7403 16.3362 26.9509C15.776 28.1615 15.4726 29.4751 15.4453 30.8089C15.4453 36.022 20.0928 40.3923 26.3417 41.5425C27.4218 41.7391 28.5174 41.8377 29.6153 41.837C30.9133 41.8393 32.2076 41.6999 33.4756 41.4227C34.5335 41.1915 35.566 40.857 36.5586 40.4239" stroke="#1D1F3F" stroke-width="0.243673" stroke-linecap="round" stroke-linejoin="round"/>
<path d="M113.018 18.1961L113.71 16.7732C113.403 16.3734 113.126 15.9514 112.881 15.5108C112.552 14.9208 112.289 14.2964 112.097 13.6488C111.859 12.8622 111.736 12.0453 111.731 11.2233C111.731 11.1992 111.731 11.1774 111.731 11.1525C111.731 10.5648 111.79 9.9786 111.908 9.40275C112.055 8.68484 112.289 7.98756 112.605 7.32607C114.603 3.11997 119.801 0.12207 125.9 0.12207C133.723 0.12207 140.067 5.05956 140.067 11.1525C140.067 17.2455 133.723 22.1815 125.9 22.1815C124.659 22.1836 123.422 22.0553 122.209 21.7988C121.236 21.5994 120.283 21.3105 119.362 20.9356C118.687 20.6636 118.032 20.3427 117.404 19.9752L110.775 22.8029L111.804 20.6938L113.022 18.1953" stroke="#1D1F3F" stroke-width="0.243673" stroke-linecap="round" stroke-linejoin="round"/>
<path d="M119.331 55.1743L115.092 53.7386L116.879 58.7959C116.325 59.516 115.872 60.3091 115.534 61.1528C115.116 62.1907 114.9 63.2995 114.899 64.4181C114.914 66.3614 115.548 68.2498 116.707 69.8098C119.132 73.173 123.761 75.447 129.071 75.447C136.895 75.447 143.239 70.5088 143.239 64.4181C143.239 58.3274 136.895 53.3899 129.071 53.3899C126.714 53.3778 124.38 53.8463 122.21 54.7668C121.647 55.0093 121.099 55.2858 120.57 55.5954L119.331 55.1743Z" stroke="#1D1F3F" stroke-width="0.243673" stroke-linecap="round" stroke-linejoin="round"/>
<path d="M36.5586 21.1963V11.6498C36.5586 10.5031 37.0142 9.40338 37.8249 8.59252C38.6358 7.78173 39.7355 7.32617 40.8822 7.32617H112.607" stroke="#1D1F3F" stroke-width="0.243673" stroke-linecap="round" stroke-linejoin="round"/>
<path d="M71.4593 69.8095H40.8822C39.7355 69.8095 38.6358 69.3538 37.8249 68.5433C37.0142 67.7321 36.5586 66.6324 36.5586 65.4859V40.4233" stroke="#1D1F3F" stroke-width="0.243673" stroke-linecap="round" stroke-linejoin="round"/>
<path d="M116.707 69.8101H111.515H87.3115" stroke="#1D1F3F" stroke-width="0.243673" stroke-linecap="round" stroke-linejoin="round"/>
<path d="M122.21 21.8008V27.4207V54.7664" stroke="#1D1F3F" stroke-width="0.243673" stroke-linecap="round" stroke-linejoin="round"/>
<path d="M39.4053 22.8422V12.6079C39.4055 11.7579 39.7432 10.9428 40.3443 10.3417C40.9453 9.74073 41.7604 9.40306 42.6103 9.40283H111.908" stroke="#1D1F3F" stroke-width="0.243673" stroke-linecap="round" stroke-linejoin="round"/>
<path d="M115.535 61.1525H42.6103C41.7604 61.1525 40.9453 60.8143 40.3443 60.2132C39.7432 59.6129 39.4055 58.7971 39.4053 57.9475V40.4233" stroke="#1D1F3F" stroke-width="0.243673" stroke-linecap="round" stroke-linejoin="round"/>
<path d="M119.363 20.939V22.2255V55.0788" stroke="#1D1F3F" stroke-width="0.243673" stroke-linecap="round" stroke-linejoin="round"/>
<path d="M39.4053 15.5107H112.885" stroke="#1D1F3F" stroke-width="0.243673" stroke-linecap="round" stroke-linejoin="round"/>
<path d="M112.043 13.6651H50.8975V11.2231H111.713" stroke="#1D1F3F" stroke-width="0.243673" stroke-linecap="round" stroke-linejoin="round"/>
<path d="M81.7597 65.4799C81.7597 65.9499 81.6211 66.4087 81.3605 66.7996C81.0998 67.1905 80.7285 67.4948 80.2946 67.6749C79.8608 67.8549 79.384 67.9023 78.923 67.8112C78.462 67.7193 78.0387 67.4941 77.7065 67.1619C77.3743 66.8297 77.1476 66.4071 77.0557 65.9462C76.9638 65.4859 77.0105 65.0076 77.1898 64.5738C77.369 64.1399 77.6733 63.7685 78.0643 63.5072C78.4545 63.2465 78.9132 63.1064 79.3832 63.1064C80.0129 63.1064 80.617 63.3558 81.0629 63.8009C81.5081 64.2461 81.7589 64.8502 81.7597 65.4799Z" stroke="#1D1F3F" stroke-width="0.243673" stroke-linecap="round" stroke-linejoin="round"/>
<path d="M69.0205 80.5626L71.458 69.8101H87.3122L88.7208 76.0273L89.7497 80.5626" stroke="#1D1F3F" stroke-width="0.243673" stroke-linecap="round" stroke-linejoin="round"/>
<path d="M88.2965 80.563H71.0947" stroke="#1D1F3F" stroke-width="0.243673" stroke-linecap="round" stroke-linejoin="round"/>
<path d="M71.457 69.8101L88.7198 76.0273" stroke="#1D1F3F" stroke-width="0.243673" stroke-linecap="round" stroke-linejoin="round"/>
<path d="M62.4619 80.563H66.2206" stroke="#1D1F3F" stroke-width="0.243673" stroke-linecap="round" stroke-linejoin="round"/>
<path d="M67.3369 80.563H69.0204H71.0948" stroke="#1D1F3F" stroke-width="0.243673" stroke-linecap="round" stroke-linejoin="round"/>
<path d="M8.84277 80.563H12.6014" stroke="#1D1F3F" stroke-width="0.243673" stroke-linecap="round" stroke-linejoin="round"/>
<path d="M27.2832 80.563H36.9736" stroke="#1D1F3F" stroke-width="0.243673" stroke-linecap="round" stroke-linejoin="round"/>
<path d="M13.7178 80.563H18.8014" stroke="#1D1F3F" stroke-width="0.243673" stroke-linecap="round" stroke-linejoin="round"/>
<path d="M88.2959 80.563H89.7489H92.0538" stroke="#1D1F3F" stroke-width="0.243673" stroke-linecap="round" stroke-linejoin="round"/>
<path d="M93.1709 80.563H96.9296" stroke="#1D1F3F" stroke-width="0.243673" stroke-linecap="round" stroke-linejoin="round"/>
<path d="M46.1904 13.9487L48.6837 12.5108L46.1904 11.0698" stroke="#1D1F3F" stroke-width="0.243673" stroke-linecap="round" stroke-linejoin="round"/>
<path d="M44.5795 11.0698L42.084 12.5108L44.5795 13.9487" stroke="#1D1F3F" stroke-width="0.243673" stroke-linecap="round" stroke-linejoin="round"/>
<path d="M119.363 22.2246L122.21 27.4205" stroke="#1D1F3F" stroke-width="0.243673" stroke-linecap="round" stroke-linejoin="round"/>
<path d="M113.939 61.1528L111.515 69.8098" stroke="#1D1F3F" stroke-width="0.243673" stroke-linecap="round" stroke-linejoin="round"/>
<path d="M39.4051 41.2026L36.5586 44.8385" stroke="#1D1F3F" stroke-width="0.243673" stroke-linecap="round" stroke-linejoin="round"/>
<path d="M27.2829 80.5624H18.8014C17.4532 80.5624 16.1601 80.0268 15.2068 79.0732C14.2534 78.1203 13.7178 76.827 13.7178 75.4787V63.6167H32.3665V75.4787C32.3664 76.827 31.8307 78.1196 30.8773 79.0732C29.924 80.0268 28.6311 80.5624 27.2829 80.5624Z" stroke="#1D1F3F" stroke-width="0.243673" stroke-linecap="round" stroke-linejoin="round"/>
<path d="M20.107 63.616C20.0812 61 19.8112 58.3915 19.3003 55.826C18.4913 51.8022 16.8802 47.3143 13.7173 44.8362C13.5855 44.7337 13.4559 44.6313 13.3218 44.5349C9.26587 41.6168 4.82326 39.2771 0.12207 37.584C0.12207 37.584 4.82604 47.6277 9.34473 51.4323C13.7173 55.1172 18.0823 57.1569 18.2089 63.616" stroke="#1D1F3F" stroke-width="0.243673" stroke-linecap="round" stroke-linejoin="round"/>
<path d="M22.0592 56.7939C21.0713 58.9294 20.552 61.2516 20.5361 63.604" stroke="#1D1F3F" stroke-width="0.243673" stroke-linecap="round" stroke-linejoin="round"/>
<path d="M23.5826 54.1914C23.3687 54.4927 23.1638 54.803 22.9687 55.1171C22.6345 55.658 22.331 56.2169 22.0596 56.7916" stroke="#1D1F3F" stroke-width="0.243673" stroke-linecap="round" stroke-linejoin="round"/>
<path d="M33.5026 41.5454C32.2432 44.4017 30.6403 47.2361 28.7625 48.8134C28.1529 49.3249 27.5664 49.8431 27.0029 50.3681" stroke="#1D1F3F" stroke-width="0.243673" stroke-linecap="round" stroke-linejoin="round"/>
<path d="M19.3008 55.8268C19.5471 54.5372 19.6774 53.0752 19.8348 51.583C19.9056 50.9104 19.981 50.2309 20.0736 49.5605" stroke="#1D1F3F" stroke-width="0.243673" stroke-linecap="round" stroke-linejoin="round"/>
<path d="M34.4 48.8135C34.3292 48.9641 31.7117 54.5065 29.2027 56.6246C28.6204 57.1142 28.0374 57.5533 27.4868 57.9804C26.928 58.4052 26.3995 58.8685 25.905 59.3671C25.3592 59.9042 24.9274 60.5467 24.6355 61.2548C24.3437 61.9628 24.1978 62.7228 24.2064 63.4889" stroke="#1D1F3F" stroke-width="0.243673" stroke-linecap="round" stroke-linejoin="round"/>
<path d="M27.1484 52.5826C29.385 51.0098 31.822 49.7429 34.3946 48.8164" stroke="#1D1F3F" stroke-width="0.243673" stroke-linecap="round" stroke-linejoin="round"/>
<path d="M23.1279 63.493C23.1416 62.1794 23.264 60.8695 23.494 59.5762C23.7133 58.243 24.1005 56.9421 24.6465 55.706C25.1098 54.6206 25.8242 53.661 26.7307 52.9055C26.8693 52.7985 27.0079 52.6908 27.1495 52.5884" stroke="#1D1F3F" stroke-width="0.243673" stroke-linecap="round" stroke-linejoin="round"/>
<path d="M25.8955 59.3706C26.1954 60.7686 26.3781 62.1885 26.4416 63.6166" stroke="#1D1F3F" stroke-width="0.243673" stroke-linecap="round" stroke-linejoin="round"/>
<path d="M15.9785 43.022C17.176 45.3028 18.5517 47.4849 20.0927 49.5488C21.3732 51.3091 22.6198 52.8932 23.5825 54.1948C23.9968 54.7529 24.3553 55.2569 24.6453 55.7058" stroke="#1D1F3F" stroke-width="0.243673" stroke-linecap="round" stroke-linejoin="round"/>
<path d="M18.7005 23.7777C17.1101 21.8832 15.3955 20.0966 13.568 18.4297C13.568 18.4297 10.1143 30.1524 15.445 41.9097C15.6077 42.2705 15.7787 42.626 15.9587 42.9846" stroke="#1D1F3F" stroke-width="0.243673" stroke-linecap="round" stroke-linejoin="round"/>
<path d="M27.1485 52.5866C27.1026 51.853 27.0513 51.1125 27.0024 50.3691C26.79 47.2544 26.561 44.1029 26.3418 41.5464" stroke="#1D1F3F" stroke-width="0.243673" stroke-linecap="round" stroke-linejoin="round"/>
<path d="M27.7476 63.4923C27.7476 62.9266 27.6452 60.8116 27.4795 57.9839" stroke="#1D1F3F" stroke-width="0.243673" stroke-linecap="round" stroke-linejoin="round"/>
<path d="M15.9783 43.0221C15.9783 43.0221 15.9707 43.01 15.9587 42.9882C15.6958 42.5445 12.8079 37.7652 9.30078 35.7036C9.30078 35.7036 10.2582 41.9698 13.3216 44.5384C13.4481 44.6453 13.5801 44.7463 13.717 44.8397C17.0946 47.1747 19.4002 48.7076 19.8341 51.5857" stroke="#1D1F3F" stroke-width="0.243673" stroke-linecap="round" stroke-linejoin="round"/>
<path d="M22.0598 56.793C22.05 58.1337 22.4364 60.9704 22.0598 63.4908" stroke="#1D1F3F" stroke-width="0.243673" stroke-linecap="round" stroke-linejoin="round"/>
<path d="M22.9688 55.1172C22.9688 55.1172 23.3687 57.4982 23.496 59.5726" stroke="#1D1F3F" stroke-width="0.243673" stroke-linecap="round" stroke-linejoin="round"/>
<path d="M47.4365 17.2534V58.4715" stroke="#1D1F3F" stroke-width="0.243673" stroke-linecap="round" stroke-linejoin="round"/>
<path d="M67.3436 20.6943H50.627C50.2942 20.6941 49.9751 20.5618 49.7399 20.3266C49.5046 20.0913 49.3723 19.7722 49.3721 19.4394C49.3729 19.107 49.5054 18.7884 49.7406 18.5535C49.9758 18.3186 50.2946 18.1864 50.627 18.186H67.3436C67.6763 18.186 67.9953 18.3182 68.2304 18.5534C68.4657 18.7886 68.5978 19.1076 68.5978 19.4402C68.5978 19.7728 68.4657 20.0918 68.2304 20.327C67.9953 20.5622 67.6763 20.6943 67.3436 20.6943Z" stroke="#1D1F3F" stroke-width="0.243673" stroke-linecap="round" stroke-linejoin="round"/>
<path d="M113.019 18.1958C112.983 18.1958 112.954 18.186 112.92 18.186H74.2678C73.9349 18.186 73.6163 18.3182 73.3813 18.5534C73.1455 18.7886 73.0137 19.1076 73.0137 19.4402C73.0137 19.7728 73.1455 20.0918 73.3813 20.327C73.6163 20.5622 73.9349 20.6943 74.2678 20.6943H111.801L113.019 18.1958Z" stroke="#1D1F3F" stroke-width="0.243673" stroke-linecap="round" stroke-linejoin="round"/>
<path d="M44.2527 19.4404C44.2524 19.6247 44.1975 19.8048 44.0949 19.9579C43.9922 20.1111 43.8465 20.2304 43.6761 20.3007C43.5058 20.3711 43.3184 20.3894 43.1376 20.3533C42.9569 20.3172 42.7908 20.2283 42.6606 20.0979C42.5302 19.9676 42.4415 19.8015 42.4056 19.6207C42.3697 19.4398 42.3881 19.2524 42.4586 19.0821C42.5291 18.9118 42.6485 18.7662 42.8017 18.6637C42.9549 18.5613 43.1351 18.5065 43.3194 18.5063C43.4421 18.5061 43.5636 18.5302 43.677 18.577C43.7903 18.6239 43.8933 18.6927 43.9801 18.7795C44.0668 18.8662 44.1355 18.9693 44.1823 19.0827C44.229 19.1961 44.253 19.3177 44.2527 19.4404Z" stroke="#1D1F3F" stroke-width="0.243673" stroke-linecap="round" stroke-linejoin="round"/>
<path d="M77.0916 26.0572H50.6257C50.4585 26.0614 50.2921 26.0319 50.1364 25.9708C49.9807 25.9096 49.8389 25.8179 49.7191 25.7011C49.5994 25.5843 49.5042 25.4447 49.4393 25.2905C49.3743 25.1364 49.3408 24.9707 49.3408 24.8035C49.3408 24.6362 49.3743 24.4706 49.4393 24.3165C49.5042 24.1623 49.5994 24.0227 49.7191 23.9059C49.8389 23.7891 49.9807 23.6973 50.1364 23.6362C50.2921 23.575 50.4585 23.5456 50.6257 23.5497H77.0916C77.2588 23.5456 77.4252 23.575 77.5812 23.6362C77.7363 23.6973 77.8787 23.7891 77.9985 23.9059C78.1182 24.0227 78.2131 24.1623 78.2779 24.3165C78.3427 24.4706 78.3766 24.6362 78.3766 24.8035C78.3766 24.9707 78.3427 25.1364 78.2779 25.2905C78.2131 25.4447 78.1182 25.5843 77.9985 25.7011C77.8787 25.8179 77.7363 25.9096 77.5812 25.9708C77.4252 26.0319 77.2588 26.0614 77.0916 26.0572Z" stroke="#1D1F3F" stroke-width="0.243673" stroke-linecap="round" stroke-linejoin="round"/>
<path d="M112.919 26.0572H84.0157C83.7679 26.0578 83.5246 25.9845 83.3182 25.8468C83.1118 25.7092 82.9514 25.5133 82.8557 25.284C82.7608 25.0548 82.7367 24.8026 82.7849 24.5592C82.8339 24.3159 82.9536 24.0925 83.1291 23.9173C83.2451 23.8002 83.383 23.7074 83.5351 23.6443C83.6873 23.5812 83.8507 23.549 84.0157 23.5497H112.919C113.086 23.5456 113.253 23.575 113.409 23.6362C113.564 23.6973 113.706 23.7891 113.826 23.9059C113.946 24.0227 114.041 24.1623 114.105 24.3165C114.17 24.4706 114.204 24.6362 114.204 24.8035C114.204 24.9707 114.17 25.1364 114.105 25.2905C114.041 25.4447 113.946 25.5843 113.826 25.7011C113.706 25.8179 113.564 25.9096 113.409 25.9708C113.253 26.0319 113.086 26.0614 112.919 26.0572Z" stroke="#1D1F3F" stroke-width="0.243673" stroke-linecap="round" stroke-linejoin="round"/>
<path d="M44.2527 24.8009C44.2525 24.9853 44.1978 25.1655 44.0952 25.3187C43.9927 25.4719 43.8471 25.5913 43.6767 25.6618C43.5063 25.7323 43.3189 25.7507 43.1381 25.7147C42.9573 25.6787 42.7912 25.5899 42.6608 25.4596C42.5304 25.3292 42.4417 25.1631 42.4057 24.9822C42.3697 24.8015 42.388 24.614 42.4585 24.4437C42.529 24.2733 42.6484 24.1276 42.8016 24.0251C42.9548 23.9226 43.1351 23.8678 43.3194 23.8677C43.442 23.8675 43.5635 23.8915 43.6768 23.9383C43.7901 23.9851 43.8931 24.0539 43.9798 24.1406C44.0665 24.2273 44.1352 24.3302 44.182 24.4435C44.2289 24.5569 44.2529 24.6783 44.2527 24.8009Z" stroke="#1D1F3F" stroke-width="0.243673" stroke-linecap="round" stroke-linejoin="round"/>
<path d="M62.4694 31.4209H50.627C50.2942 31.4204 49.9751 31.288 49.7398 31.0526C49.5046 30.8172 49.3723 30.498 49.3721 30.1652C49.373 29.8329 49.5057 29.5145 49.7409 29.2798C49.976 29.045 50.2946 28.913 50.627 28.9126H62.4694C62.8021 28.9126 63.121 29.0447 63.3563 29.2799C63.5914 29.5151 63.7236 29.8341 63.7236 30.1667C63.7236 30.4994 63.5914 30.8184 63.3563 31.0535C63.121 31.2887 62.8021 31.4209 62.4694 31.4209Z" stroke="#1D1F3F" stroke-width="0.243673" stroke-linecap="round" stroke-linejoin="round"/>
<path d="M112.919 31.4209H69.3926C69.0598 31.4203 68.7409 31.2878 68.5057 31.0524C68.2704 30.817 68.1381 30.498 68.1377 30.1652C68.1391 29.8331 68.2719 29.5149 68.5069 29.2802C68.742 29.0455 69.0604 28.9134 69.3926 28.9126H112.919C113.252 28.9126 113.571 29.0447 113.806 29.2799C114.042 29.5151 114.174 29.8341 114.174 30.1667C114.174 30.4994 114.042 30.8184 113.806 31.0535C113.571 31.2887 113.252 31.4209 112.919 31.4209Z" stroke="#1D1F3F" stroke-width="0.243673" stroke-linecap="round" stroke-linejoin="round"/>
<path d="M43.7852 30.8114C43.7852 30.8649 43.7852 30.9184 43.7799 30.9696C43.9336 30.883 44.0593 30.7542 44.1422 30.5986C44.2251 30.4429 44.2619 30.2668 44.2481 30.0909C44.2343 29.9151 44.1706 29.7469 44.0645 29.606C43.9583 29.4652 43.8141 29.3576 43.6488 29.2959H43.6436C43.7102 29.6649 43.7535 30.0378 43.7731 30.4122V30.4423C43.7821 30.5629 43.7852 30.6871 43.7852 30.8114Z" stroke="#1D1F3F" stroke-width="0.243673" stroke-linecap="round" stroke-linejoin="round"/>
<path d="M91.7163 36.7805H50.627C50.2942 36.7803 49.9751 36.6481 49.7399 36.4128C49.5046 36.1774 49.3723 35.8584 49.3721 35.5256C49.3727 35.1932 49.5052 34.8746 49.7404 34.6397C49.9757 34.4048 50.2946 34.2729 50.627 34.2729H91.7163C92.0432 34.281 92.3543 34.4166 92.5832 34.6509C92.8115 34.8851 92.9395 35.1994 92.9395 35.5267C92.9395 35.854 92.8115 36.1683 92.5832 36.4026C92.3543 36.6368 92.0432 36.7725 91.7163 36.7805Z" stroke="#1D1F3F" stroke-width="0.243673" stroke-linecap="round" stroke-linejoin="round"/>
<path d="M112.92 36.7809H98.6397C98.3067 36.7806 97.9881 36.6484 97.7523 36.4131C97.5173 36.1777 97.3848 35.8587 97.3848 35.526C97.3855 35.1935 97.5181 34.8749 97.7531 34.6401C97.9881 34.4052 98.3075 34.2733 98.6397 34.2733H112.92C113.087 34.2692 113.253 34.2986 113.409 34.3598C113.564 34.421 113.707 34.5126 113.827 34.6295C113.946 34.7463 114.041 34.8859 114.106 35.0401C114.171 35.1942 114.205 35.3598 114.205 35.5271C114.205 35.6944 114.171 35.86 114.106 36.0142C114.041 36.1683 113.946 36.3078 113.827 36.4247C113.707 36.5415 113.564 36.6332 113.409 36.6944C113.253 36.7556 113.087 36.7849 112.92 36.7809Z" stroke="#1D1F3F" stroke-width="0.243673" stroke-linecap="round" stroke-linejoin="round"/>
<path d="M42.9437 34.6605C43.019 34.5851 43.2555 34.5904 43.3203 34.5904C43.5678 34.5904 43.8052 34.6887 43.9802 34.8638C44.1553 35.0388 44.2536 35.2762 44.2536 35.5237C44.2536 35.7712 44.1553 36.0085 43.9802 36.1836C43.8052 36.3586 43.5678 36.4569 43.3203 36.4569C43.1214 36.4523 42.9289 36.3849 42.7704 36.2646C42.612 36.1442 42.4954 35.977 42.4375 35.7866" stroke="#1D1F3F" stroke-width="0.243673" stroke-linecap="round" stroke-linejoin="round"/>
<path d="M60.0319 42.1421H50.627C50.2942 42.1413 49.9751 42.0095 49.7398 41.7737C49.5046 41.5387 49.3723 41.2194 49.3721 40.8864C49.373 40.5542 49.5057 40.2356 49.7409 40.0006C49.976 39.7664 50.2946 39.6345 50.627 39.6338H60.0319C60.3646 39.6338 60.6836 39.7656 60.9188 40.0014C61.154 40.2364 61.2861 40.555 61.2861 40.8879C61.2861 41.2209 61.154 41.5395 60.9188 41.7745C60.6836 42.0103 60.3646 42.1421 60.0319 42.1421Z" stroke="#1D1F3F" stroke-width="0.243673" stroke-linecap="round" stroke-linejoin="round"/>
<path d="M112.919 42.1421H66.9558C66.6229 42.1413 66.3038 42.0095 66.0684 41.7737C65.833 41.5387 65.7006 41.2194 65.7002 40.8864C65.7016 40.5542 65.8344 40.2356 66.0697 40.0014C66.305 39.7664 66.6235 39.6345 66.9558 39.6338H112.919C113.252 39.6338 113.571 39.7656 113.806 40.0014C114.042 40.2364 114.173 40.555 114.173 40.8879C114.173 41.2209 114.042 41.5395 113.806 41.7745C113.571 42.0103 113.252 42.1421 112.919 42.1421Z" stroke="#1D1F3F" stroke-width="0.243673" stroke-linecap="round" stroke-linejoin="round"/>
<path d="M81.9671 47.5036H50.627C50.2942 47.5036 49.9751 47.3711 49.7399 47.1361C49.5046 46.9003 49.3723 46.5817 49.3721 46.2487C49.3727 45.9166 49.5052 45.5979 49.7404 45.3629C49.9757 45.1279 50.2946 44.9961 50.627 44.9961H81.9671C82.294 45.0044 82.605 45.14 82.834 45.3742C83.0623 45.6085 83.1903 45.9226 83.1903 46.2502C83.1903 46.5771 83.0623 46.8912 82.834 47.1255C82.605 47.3598 82.294 47.4953 81.9671 47.5036Z" stroke="#1D1F3F" stroke-width="0.243673" stroke-linecap="round" stroke-linejoin="round"/>
<path d="M112.92 47.5036H88.8914C88.5585 47.5036 88.2391 47.3711 88.0041 47.1361C87.7683 46.9003 87.6365 46.5817 87.6357 46.2487C87.6365 45.9166 87.7698 45.5979 88.0048 45.3629C88.2398 45.1279 88.5592 44.9961 88.8914 44.9961H112.92C113.247 45.0044 113.558 45.14 113.787 45.3742C114.015 45.6085 114.143 45.9226 114.143 46.2502C114.143 46.5771 114.015 46.8912 113.787 47.1255C113.558 47.3598 113.247 47.4953 112.92 47.5036Z" stroke="#1D1F3F" stroke-width="0.243673" stroke-linecap="round" stroke-linejoin="round"/>
<path d="M44.2527 46.2485C44.2524 46.433 44.1975 46.613 44.0949 46.7659C43.9922 46.9189 43.8465 47.0386 43.6761 47.1087C43.5058 47.1795 43.3184 47.1976 43.1376 47.1614C42.9569 47.1252 42.7908 47.0364 42.6606 46.906C42.5302 46.7757 42.4415 46.6093 42.4056 46.4285C42.3697 46.2477 42.3881 46.0609 42.4586 45.8899C42.5291 45.7197 42.6485 45.5743 42.8017 45.4719C42.9549 45.3694 43.1351 45.3145 43.3194 45.3145C43.4421 45.3145 43.5636 45.3386 43.677 45.3853C43.7903 45.432 43.8933 45.5005 43.9801 45.5879C44.0668 45.6745 44.1355 45.7777 44.1823 45.8907C44.229 46.0044 44.253 46.1257 44.2527 46.2485Z" stroke="#1D1F3F" stroke-width="0.243673" stroke-linecap="round" stroke-linejoin="round"/>
<path d="M99.0287 52.865H50.627C50.2942 52.865 49.9751 52.7324 49.7399 52.4974C49.5046 52.2616 49.3723 51.943 49.3721 51.6101C49.373 51.2779 49.5057 50.9593 49.7409 50.7242C49.976 50.49 50.2946 50.3582 50.627 50.3574H99.0287C99.3556 50.3657 99.6667 50.5013 99.8957 50.7355C100.124 50.9698 100.252 51.2839 100.252 51.6108C100.252 51.9385 100.124 52.2526 99.8957 52.4868C99.6667 52.7211 99.3556 52.8567 99.0287 52.865Z" stroke="#1D1F3F" stroke-width="0.243673" stroke-linecap="round" stroke-linejoin="round"/>
<path d="M112.919 52.8653H105.951C105.618 52.8653 105.3 52.7327 105.064 52.4977C104.829 52.2619 104.696 51.9433 104.696 51.6104C104.697 51.2782 104.83 50.9596 105.065 50.7246C105.3 50.4903 105.619 50.3585 105.951 50.3577H112.919C113.087 50.354 113.253 50.3834 113.409 50.4444C113.564 50.5054 113.707 50.5973 113.826 50.714C113.946 50.8308 114.041 50.9701 114.106 51.1245C114.171 51.279 114.204 51.4439 114.204 51.6119C114.204 51.7791 114.171 51.9441 114.106 52.0985C114.041 52.2529 113.946 52.3922 113.826 52.509C113.707 52.6257 113.564 52.7176 113.409 52.7787C113.253 52.8397 113.087 52.869 112.919 52.8653Z" stroke="#1D1F3F" stroke-width="0.243673" stroke-linecap="round" stroke-linejoin="round"/>
<path d="M44.2527 51.609C44.2525 51.7936 44.1978 51.9736 44.0952 52.1265C43.9927 52.2802 43.8471 52.3992 43.6767 52.47C43.5063 52.5408 43.3189 52.5589 43.1381 52.5227C42.9573 52.4866 42.7912 52.3977 42.6608 52.2674C42.5304 52.1371 42.4417 51.9714 42.4057 51.7906C42.3697 51.6098 42.388 51.4222 42.4585 51.252C42.529 51.0818 42.6484 50.9356 42.8016 50.8332C42.9548 50.7308 43.1351 50.6758 43.3194 50.6758C43.442 50.6758 43.5635 50.6999 43.6768 50.7466C43.7901 50.7933 43.8931 50.8618 43.9798 50.9485C44.0665 51.0351 44.1352 51.1383 44.182 51.252C44.2289 51.365 44.2529 51.4863 44.2527 51.609Z" stroke="#1D1F3F" stroke-width="0.243673" stroke-linecap="round" stroke-linejoin="round"/>
<path d="M67.3436 58.228H50.627C50.2942 58.2273 49.9751 58.0955 49.7398 57.8597C49.5046 57.6247 49.3723 57.3053 49.3721 56.9724C49.373 56.6402 49.5057 56.3216 49.7409 56.0866C49.976 55.8523 50.2946 55.7205 50.627 55.7197H67.3436C67.6763 55.7197 67.9953 55.8515 68.2304 56.0873C68.4657 56.3223 68.5978 56.6409 68.5978 56.9739C68.5978 57.3068 68.4657 57.6254 68.2304 57.8604C67.9953 58.0962 67.6763 58.228 67.3436 58.228Z" stroke="#1D1F3F" stroke-width="0.243673" stroke-linecap="round" stroke-linejoin="round"/>
<path d="M112.919 58.228H74.2674C73.9344 58.2273 73.6151 58.0955 73.3801 57.8597C73.1443 57.6247 73.0125 57.3053 73.0117 56.9724C73.0132 56.6402 73.1458 56.3216 73.3816 56.0873C73.6166 55.8523 73.9352 55.7205 74.2674 55.7197H112.919C113.252 55.7197 113.571 55.8515 113.806 56.0873C114.041 56.3223 114.173 56.6409 114.173 56.9739C114.173 57.3068 114.041 57.6254 113.806 57.8604C113.571 58.0962 113.252 58.228 112.919 58.228Z" stroke="#1D1F3F" stroke-width="0.243673" stroke-linecap="round" stroke-linejoin="round"/>
<path d="M44.2527 56.9723C44.2525 57.1569 44.1978 57.3369 44.0952 57.4898C43.9927 57.6435 43.8471 57.7625 43.6767 57.8333C43.5063 57.9041 43.3189 57.9222 43.1381 57.886C42.9573 57.8498 42.7912 57.761 42.6608 57.6307C42.5304 57.5003 42.4417 57.3346 42.4057 57.1539C42.3697 56.9731 42.388 56.7855 42.4585 56.6153C42.529 56.4451 42.6484 56.2989 42.8016 56.1965C42.9548 56.094 43.1351 56.0391 43.3194 56.0391C43.442 56.0391 43.5634 56.0632 43.6767 56.1099C43.79 56.1566 43.8929 56.2259 43.9796 56.3125C44.0663 56.3991 44.135 56.5016 44.1819 56.6153C44.2287 56.7283 44.2528 56.8495 44.2527 56.9723Z" stroke="#1D1F3F" stroke-width="0.243673" stroke-linecap="round" stroke-linejoin="round"/>
<path d="M26.5712 30.752C26.5419 30.752 26.5132 30.752 26.4839 30.752C26.4545 30.752 26.4229 30.752 26.3935 30.752C25.4886 30.7057 24.6376 30.3079 24.0219 29.6431C23.4063 28.9784 23.0746 28.0994 23.0978 27.1936C23.121 26.2878 23.4972 25.427 24.146 24.7946C24.7949 24.1622 25.6652 23.8084 26.5712 23.8086" stroke="#81F8F8" stroke-width="0.365698" stroke-linecap="round" stroke-linejoin="round"/>
<path d="M21.6377 30.7476H26.5707C26.5413 30.7476 26.5127 30.7476 26.4833 30.7476C25.5723 30.7741 24.7083 31.1576 24.0774 31.8154C23.4466 32.4732 23.0995 33.3524 23.111 34.2638C23.1224 35.175 23.4915 36.0453 24.1387 36.6869C24.7859 37.3286 25.6593 37.6903 26.5707 37.6939" stroke="#81F8F8" stroke-width="0.365698" stroke-linecap="round" stroke-linejoin="round"/>
<path d="M32.8086 30.752C32.838 30.752 32.8696 30.752 32.899 30.752C32.9284 30.752 32.9577 30.752 32.9864 30.752C33.8912 30.7057 34.7423 30.3079 35.3579 29.6431C35.9736 28.9784 36.3052 28.0994 36.282 27.1936C36.2588 26.2878 35.8827 25.427 35.2338 24.7946C34.585 24.1622 33.7147 23.8084 32.8086 23.8086" stroke="#81F8F8" stroke-width="0.365698" stroke-linecap="round" stroke-linejoin="round"/>
<path d="M37.7416 30.7476H32.8086C32.838 30.7476 32.8696 30.7476 32.899 30.7476C33.8102 30.7742 34.6744 31.158 35.3051 31.816C35.936 32.4741 36.2828 33.3538 36.271 34.2652C36.2591 35.1767 35.8895 36.047 35.2418 36.6884C34.5941 37.3298 33.7202 37.691 32.8086 37.6939" stroke="#81F8F8" stroke-width="0.365698" stroke-linecap="round" stroke-linejoin="round"/>
<path d="M128.893 15.2152L135.514 11.394L128.893 7.56982" stroke="#81F8F8" stroke-width="0.365698" stroke-linecap="round" stroke-linejoin="round"/>
<path d="M122.095 7.56982L115.474 11.394L122.095 15.2152" stroke="#81F8F8" stroke-width="0.365698" stroke-linecap="round" stroke-linejoin="round"/>
<path d="M127.379 5.8418L123.421 16.8896" stroke="#81F8F8" stroke-width="0.243673" stroke-linecap="round" stroke-linejoin="round"/>
<path d="M121.518 68.9661L122.59 65.7099L125.135 57.9839L127.681 65.7099L128.754 68.9661" stroke="#81F8F8" stroke-width="0.365698" stroke-linecap="round" stroke-linejoin="round"/>
<path d="M122.59 65.71H127.681" stroke="#81F8F8" stroke-width="0.365698" stroke-linecap="round" stroke-linejoin="round"/>
<path d="M134.263 67.0701C133.564 68.5691 132.255 69.4391 131.343 69.015C130.432 68.5909 130.262 67.0287 130.961 65.5275C131.66 64.0263 132.966 63.1585 133.88 63.5826C134.161 63.7551 134.387 64.0044 134.531 64.3012C134.676 64.5972 134.732 64.9287 134.694 65.2563C134.683 65.8853 134.535 66.5037 134.263 67.0701Z" stroke="#81F8F8" stroke-width="0.243673" stroke-linecap="round" stroke-linejoin="round"/>
<path d="M134.694 65.2354C134.694 65.2429 134.694 65.2504 134.694 65.2572C134.828 66.5761 134.021 70.0493 136.125 68.6355" stroke="#81F8F8" stroke-width="0.243673" stroke-linecap="round" stroke-linejoin="round"/>
</svg>
