<svg width="99" height="99"  viewBox="0 0 99 99" fill="none" xmlns="http://www.w3.org/2000/svg">
<path fill-rule="evenodd" clip-rule="evenodd" d="M31.6276 19.0046C31.6756 20.0298 31.9356 20.3167 31.8392 20.5886C31.7429 20.8605 30.3529 25.5822 30.2196 26.3566C30.3701 28.4307 30.6024 31.1402 30.9034 31.7963C31.2448 30.6756 32.1266 27.9555 32.7311 27.156C32.3897 24.5864 32.2392 20.8759 32.369 20.575C32.7185 20.0967 33.1702 19.7023 33.6912 19.4204C33.4791 18.8489 33.2374 18.2889 32.967 17.7427C32.3791 18.2122 31.7882 18.6632 31.6276 19.0046Z" fill="#38A1FF"/>
<path fill-rule="evenodd" clip-rule="evenodd" d="M32.5027 10.4453C32.288 10.6275 31.5492 10.7903 31.4436 10.2165C31.4093 10.0353 31.2113 10.0317 31.1871 10.2165C31.0951 11.064 32.4274 11.1903 32.7623 10.6777C32.8613 10.5272 32.6919 10.2856 32.5027 10.4453ZM32.0143 7.32574C31.7983 7.24041 31.5638 7.21325 31.334 7.24698C30.9649 7.3187 30.9411 7.71514 31.378 7.71866C31.543 7.72585 31.7068 7.74989 31.8669 7.79038C32.2079 7.85858 32.1766 7.38734 32.0143 7.32574ZM34.3819 7.85858C34.0949 7.67912 33.7517 7.6122 33.4183 7.6707C33.1543 7.7323 33.1587 8.0843 33.4733 8.11862C33.7264 8.13607 33.9741 8.19975 34.2042 8.3065C34.5188 8.43278 34.6314 8.06054 34.3819 7.85858ZM33.5019 8.81206C33.2287 8.76806 33.116 9.49538 33.3756 9.5297C33.6352 9.56402 33.7188 8.84682 33.5037 8.81206H33.5019ZM31.4313 8.47062C31.1822 8.4517 31.0898 9.18474 31.3393 9.21202C31.5888 9.2393 31.683 8.4891 31.433 8.47062H31.4313ZM33.883 11.4406C34.1531 11.1982 34.3309 11.5634 34.2248 11.6901C34.0257 11.9294 33.7597 12.104 33.4609 12.1917C33.1621 12.2793 32.844 12.2759 32.5471 12.182C32.233 12.1033 32.2052 11.8063 32.5471 11.8401C32.7861 11.8845 33.0322 11.8708 33.2647 11.8C33.4972 11.7292 33.7093 11.6036 33.883 11.4336V11.4406Z" fill="#191919"/>
<path fill-rule="evenodd" clip-rule="evenodd" d="M37.2678 15.8644C37.1358 15.6963 36.9946 15.6932 36.7895 15.8266C35.6307 16.5835 34.3633 17.1596 33.0311 17.5351C32.5941 17.1771 32.2159 16.7527 31.9104 16.2776C31.7564 16.0043 31.4457 16.2776 31.5685 16.4861C31.8485 16.9521 32.1937 17.3755 32.5937 17.7436C32.269 18.1528 31.887 18.5129 31.4594 18.8128C31.2933 18.2151 31.2308 17.5933 31.2746 16.9745C31.2438 16.7985 30.9741 16.5578 30.9059 17.5421C30.8471 18.1383 30.9241 18.74 31.1311 19.3021C31.3432 19.7703 32.3033 18.6188 32.8397 18.137C32.9717 18.4375 33.523 19.9617 33.9366 19.89C34.7669 19.7496 36.3284 18.9739 36.7213 18.3011C36.7398 18.2673 36.7471 18.2285 36.742 18.1903C36.7369 18.1521 36.7198 18.1165 36.6931 18.0887C36.6664 18.0609 36.6316 18.0423 36.5936 18.0356C36.5556 18.029 36.5165 18.0346 36.482 18.0516C35.9249 18.3522 35.7987 18.8203 33.9674 19.442C33.6739 18.9583 33.4236 18.4496 33.2194 17.9218C34.5549 17.4963 35.8388 16.9233 37.0474 16.2133C37.2555 16.4967 37.6519 17.1664 37.9151 17.0933C38.2055 17.0225 37.3756 16.0039 37.2678 15.8644Z" fill="#191919"/>
<path fill-rule="evenodd" clip-rule="evenodd" d="M34.4956 13.4176C33.4366 14.1009 32.3225 14.3882 31.1609 13.7969C30.5968 13.5135 30.5629 13.3459 30.5629 12.7171C30.5897 10.6453 30.7777 8.57864 31.1252 6.53597C31.1692 6.26273 30.7495 6.16022 30.705 6.43345C30.5616 7.36625 29.8783 12.5464 30.1924 13.4691C30.4934 14.3367 31.706 14.617 32.5244 14.617C32.429 15.0614 32.333 15.5054 32.2411 15.9529C32.2169 16.0624 32.5178 16.5341 32.7431 15.6831C32.839 15.321 32.9072 14.9519 32.9926 14.5862C33.6595 14.5206 34.2823 14.2232 34.7526 13.7458C34.9026 13.5747 34.7011 13.2878 34.4961 13.4039L34.4956 13.4176ZM38.8147 7.07585C39.5288 7.56777 39.0743 8.82529 38.5414 8.96785C38.9682 9.55218 38.0869 11.6299 36.9491 11.5784C36.9253 12.0707 36.7647 13.8404 36.7066 15.5899C36.7066 15.7883 36.3648 15.7439 36.3304 15.5626C36.2143 15.0636 36.491 11.5102 36.5698 11.196C36.6895 10.7279 37.0617 10.932 37.4375 10.4269C38.3465 9.1949 37.0582 8.4469 36.5355 9.4259C36.2966 9.87338 35.3224 8.65018 35.1688 6.78589C33.7441 6.63894 31.2291 6.32478 30.4569 5.7607C30.2629 5.61515 30.1244 5.40783 30.0641 5.17294C30.0038 4.93805 30.0254 4.68963 30.1253 4.46868C30.2253 4.24772 30.3975 4.06743 30.6137 3.95755C30.8299 3.84768 31.0771 3.81478 31.3144 3.8643C31.1956 2.31946 33.2196 2.52802 33.6368 3.20782C33.6913 2.07702 36.8624 2.05986 36.7801 3.75826C38.0121 3.01334 39.3704 4.82746 38.4341 5.49054C39.3796 5.44257 39.7532 6.78545 38.8134 7.07585H38.8147Z" fill="#191919"/>
<path fill-rule="evenodd" clip-rule="evenodd" d="M84.9788 84.8325C58.0068 84.8444 30.5271 84.9645 3.65671 84.9522C3.59054 84.9522 3.52708 84.9785 3.4803 85.0253C3.43351 85.0721 3.40723 85.1355 3.40723 85.2017C3.40723 85.2678 3.43351 85.3313 3.4803 85.3781C3.52708 85.4249 3.59054 85.4512 3.65671 85.4512C30.5306 85.7416 58.02 85.485 84.9788 85.482C85.3652 85.4806 85.396 84.8325 84.9788 84.8325Z" fill="#191919"/>
<path fill-rule="evenodd" clip-rule="evenodd" d="M20.2769 80.3755C17.8067 82.3995 13.4432 82.8563 13.2624 84.134C13.2281 84.3936 24.7156 84.1921 24.7974 84.0385C25.252 83.1876 24.5484 80.8983 24.5277 80.6215C23.1059 80.743 21.6739 80.6567 20.2769 80.3654V80.3755ZM49.734 78.8206C49.4542 79.9003 48.7634 81.7686 48.502 81.9446C48.2406 82.1206 45.741 82.9425 45.3314 84.4117C45.2728 84.6202 49.5822 84.5379 50.7266 83.6329C51.8711 82.7278 55.2776 79.5558 55.322 79.1889C55.3664 78.8219 53.874 76.9233 53.272 76.6025C52.9394 77.2423 51.1592 78.8206 49.734 78.8206Z" fill="#191919"/>
<path fill-rule="evenodd" clip-rule="evenodd" d="M54.824 42.9578C54.5978 42.7083 54.3079 42.9138 54.4821 43.2218C54.769 43.7414 55.2983 44.445 55.6261 44.3658C56.7249 44.024 57.7532 43.4875 58.6621 42.7818C59.004 42.5565 58.5939 41.9823 58.344 41.4833C58.0333 40.848 57.8081 41.2035 57.7909 41.2853C57.7429 41.4904 58.2181 42.3105 58.3343 42.4848C57.4679 43.0376 56.5596 43.5219 55.6177 43.9332C55.327 43.6303 55.0615 43.304 54.824 42.9578ZM61.2198 44.6148C61.3882 45.0446 61.4301 45.5137 61.3406 45.9666C61.2511 46.4194 61.0339 46.8373 60.7147 47.1708C60.5387 47.3586 60.1814 47.1708 60.3187 46.9213C60.5439 46.5838 60.7215 46.2169 60.8467 45.831C61.226 44.2558 59.5443 43.781 58.9503 43.3436C58.9179 43.3163 58.8954 43.2792 58.886 43.2379C58.8766 43.1967 58.8809 43.1534 58.8982 43.1148C58.9156 43.0762 58.945 43.0443 58.9821 43.0239C59.0192 43.0035 59.0619 42.9957 59.1039 43.0018C59.9928 43.2428 60.7518 43.8227 61.2181 44.617L61.2198 44.6148ZM58.4038 47.5465C58.0078 47.3824 56.9003 47.5294 56.4625 46.8051C56.1211 46.2446 56.3908 45.4996 56.2645 44.8537C56.2205 44.6249 55.8615 44.6865 55.8584 44.9224C55.8342 46.3405 55.3304 47.8026 58.0518 47.9975C58.5393 48.0248 58.6661 47.6556 58.4029 47.5465H58.4038Z" fill="#191919"/>
<path fill-rule="evenodd" clip-rule="evenodd" d="M18.8968 45.2289C18.514 44.8563 17.1883 45.4239 16.8843 44.6446C16.6827 44.132 18.0283 43.6436 18.2509 43.2507C18.2707 43.2165 18.28 43.1772 18.2777 43.1377C18.2754 43.0983 18.2615 43.0604 18.2379 43.0287C18.2142 42.997 18.1818 42.973 18.1446 42.9596C18.1074 42.9462 18.0671 42.944 18.0287 42.9533C17.6677 43.107 17.3333 43.3169 17.0378 43.575C15.7293 44.4875 16.4979 45.485 17.5984 45.6254C17.8853 45.6593 18.7089 45.7415 18.9105 45.5673C18.9334 45.5451 18.9516 45.5185 18.964 45.4892C18.9764 45.4598 18.9828 45.4282 18.9828 45.3964C18.9828 45.3645 18.9764 45.3329 18.964 45.3035C18.9516 45.2742 18.9334 45.2476 18.9105 45.2254L18.8968 45.2289ZM22.4265 43.5204C22.5017 43.7048 21.8901 44.6072 21.6371 44.4977C20.9947 44.231 17.9196 42.7311 18.0322 42.2154C18.1904 41.832 18.4226 41.4836 18.7155 41.1902C18.8387 41.0533 19.0574 41.221 19.0029 41.3781C18.9342 41.6069 18.4493 42.1674 18.4696 42.2391C18.5175 42.4063 21.4695 43.9886 21.6781 44.081C21.7907 43.905 21.8932 43.6331 22.0199 43.465C22.0407 43.4414 22.066 43.4222 22.0942 43.4085C22.1224 43.3947 22.1531 43.3866 22.1844 43.3847C22.2157 43.3827 22.2472 43.387 22.2768 43.3973C22.3065 43.4075 22.3339 43.4235 22.3574 43.4443C22.4353 43.516 22.4177 43.5741 22.4265 43.5204ZM21.1641 44.8052C20.8227 44.7709 20.8227 45.4441 20.7303 45.8062C20.6551 46.0627 20.5666 46.3188 20.4777 46.5753C20.3889 46.8319 20.8363 47.2177 21.2328 45.936C21.3023 45.7037 21.5997 44.8492 21.1641 44.8052ZM19.2237 47.7774C19.4982 47.6568 19.7405 47.4732 19.9308 47.2415C20.2146 46.8723 20.7065 47.1795 20.1873 47.7233C19.3241 48.62 18.6724 48.026 19.2215 47.7774H19.2237ZM18.4854 47.2516C18.3794 47.2956 18.2465 47.3836 18.2703 47.5213C18.3657 48.1061 20.0096 47.1082 19.5023 46.7359C19.2739 46.5661 19.1239 46.9441 18.4775 47.2516H18.4854ZM18.5369 46.3153C18.2975 46.1001 18.0142 46.5855 17.5733 46.7769C17.4263 46.838 17.1254 46.9067 17.1733 47.1183C17.3053 47.7132 18.9672 46.6946 18.54 46.3087L18.5369 46.3153ZM17.0471 46.1617C17.2693 45.9739 17.4466 45.9294 17.5187 46.1001C17.7233 46.5648 16.6986 46.9801 16.2304 46.5511C15.8648 46.2097 15.9365 45.3759 16.3329 45.5259C16.5037 45.5911 16.4355 45.9123 16.5138 46.0799C16.5386 46.1258 16.5736 46.1654 16.6161 46.1957C16.6585 46.2259 16.7074 46.2461 16.7589 46.2546C16.8103 46.2631 16.8631 46.2597 16.913 46.2447C16.963 46.2296 17.0088 46.2034 17.0471 46.1679V46.1617Z" fill="#191919"/>
<path fill-rule="evenodd" clip-rule="evenodd" d="M30.6542 32.6309C29.0755 28.1869 29.5674 20.0566 30.3088 17.5213C30.3911 17.2309 26.9397 18.9905 26.2085 20.6409C25.4772 22.2913 24.0239 30.4305 23.5025 31.6466C22.9811 32.8628 18.9612 40.3393 18.8319 40.4726C18.7025 40.6059 22.7822 43.623 23.062 43.4281C23.2499 43.2961 24.4014 41.8392 25.1978 40.7881C26.1596 30.6095 25.7205 30.3895 26.4619 25.3678C26.4613 25.347 26.4651 25.3263 26.4731 25.3071C26.4811 25.2878 26.4931 25.2705 26.5083 25.2563C26.5234 25.242 26.5415 25.2311 26.5612 25.2244C26.5809 25.2177 26.6018 25.2152 26.6225 25.2171C26.6433 25.2191 26.6634 25.2254 26.6815 25.2357C26.6996 25.246 26.7153 25.26 26.7276 25.2769C26.7398 25.2937 26.7484 25.3129 26.7526 25.3333C26.7569 25.3537 26.7568 25.3748 26.7523 25.3951C26.5763 27.3487 26.0171 38.9858 25.97 39.7563C25.8983 40.9249 25.0781 46.6753 25.2867 46.9864C25.4508 47.2152 27.6785 47.407 28.232 46.9864C28.7855 46.5657 30.3841 42.362 30.5799 42.0685C30.0457 40.6776 30.1755 35.0465 30.6542 32.6309ZM53.3582 30.8916C54.2224 32.2582 57.8343 39.9398 57.8788 40.3736C57.9232 40.8074 54.1643 42.8745 53.8638 42.7056C53.5633 42.5366 48.3638 34.5735 47.6725 33.7089C46.6007 32.3678 40.9867 28.6669 39.0719 27.7641C38.8871 27.6761 38.7062 27.9519 38.8805 28.0747C39.9466 28.8267 41.0431 29.4418 42.1673 30.2377C42.8783 39.3018 45.1676 46.5912 44.7914 46.9261C44.5045 47.1822 34.8382 47.4897 33.9674 47.2301C33.0967 46.9705 31.1211 43.2596 30.8918 41.3596C30.6626 39.4597 30.5777 34.4881 31.1857 32.4756C32.874 26.8651 37.3365 17.5508 38.2486 17.4175C39.1607 17.2841 42.9263 19.4679 43.8591 20.1749C46.3961 22.0705 53.7705 31.0971 53.3596 30.8916H53.3582ZM31.9729 36.2389C31.9803 36.3577 32.0308 36.4697 32.1149 36.5539C32.199 36.6382 32.311 36.6888 32.4298 36.6964C32.5485 36.7039 32.666 36.6679 32.7601 36.595C32.8542 36.5221 32.9185 36.4174 32.9409 36.3005C33.0835 34.9748 31.7476 35.1455 31.9729 36.2389ZM33.0698 40.0181C33.3065 39.2701 32.3487 38.4873 32.1713 39.5499C32.0209 40.4361 32.8494 40.7137 33.0698 40.0181ZM39.6848 21.4131C40.1771 21.1737 39.2782 18.8844 39.0939 18.4915C38.9979 18.29 38.752 18.3652 38.8343 18.5874C39.142 19.373 39.3252 20.2018 39.3772 21.0439C38.9591 21.2013 38.5546 21.3926 38.1677 21.6159C36.4217 22.5729 36.8353 22.4519 37.6177 24.3497C37.7646 24.6911 37.9151 24.9217 37.6485 25.2209C35.6874 27.4314 33.3673 30.2404 32.2158 32.9156C32.1278 33.1171 32.3627 33.2029 32.4648 33.0181C34.3031 29.7071 35.6223 28.2344 37.9323 25.5931C38.4603 24.985 38.2975 24.9098 37.7853 23.5977C37.3013 22.371 36.9581 22.73 39.6918 21.4144L39.6848 21.4131ZM29.2871 31.1648C27.0502 24.8504 27.0871 25.6886 27.6952 24.4302C27.825 24.1569 28.1973 23.7161 28.0881 23.5453C27.4044 22.455 26.9639 22.3389 27.4044 21.4505C27.8013 20.6341 28.2872 19.8642 28.8533 19.1546C28.9901 18.9786 29.1952 19.1203 29.079 19.298C28.5238 20.097 28.0314 20.9379 27.6063 21.8131C27.4114 22.4656 28.6962 23.3333 28.5303 23.6853C27.5056 25.8039 27.5623 25.0215 28.3288 27.3654C28.7424 28.6159 29.1798 29.8598 29.5489 31.1239C29.6189 31.3083 29.3615 31.3721 29.2871 31.1648Z" fill="#191919"/>
<path fill-rule="evenodd" clip-rule="evenodd" d="M53.5434 75.4756C53.2486 75.1377 47.4991 61.3705 47.1986 60.5504C46.8981 59.7302 43.4586 49.1891 43.2038 47.7987C42.117 47.9307 34.7708 48.2533 33.7491 47.7987C32.9531 47.4569 31.1113 44.5185 30.8275 43.0767C30.2052 44.5788 29.4613 46.0277 28.6033 47.4089C28.2953 47.8159 26.4675 47.9285 25.7534 47.7169C25.6716 47.9835 22.2479 61.7573 22.0328 63.2229C21.8176 64.6886 19.7773 78.1169 19.6409 79.2829C19.593 79.6244 24.9267 80.2223 24.961 79.7669C24.9953 79.3115 28.6068 65.1664 28.822 64.6054C29.0371 64.0444 32.8673 55.8802 34.5657 53.0229C33.7834 51.2294 33.838 50.6689 32.0234 49.9684C31.7709 49.8694 31.9007 49.6265 32.1554 49.6916C33.5423 50.0335 34.0074 50.5083 34.5165 51.5915C36.1497 55.0526 37.8165 60.5983 39.6587 63.3558C40.2395 64.2305 48.4587 77.8573 48.9806 78.3422C49.5024 78.8271 53.8298 75.8039 53.5434 75.4756Z" fill="#191919"/>
<path fill-rule="evenodd" clip-rule="evenodd" d="M22.467 52.0729C22.2717 51.6839 11.1911 44.8978 10.5558 44.9831C9.71979 45.0786 2.07479 54.5985 2.20151 55.1788C2.32823 55.7592 17.4818 64.5653 18.001 64.4694C18.5202 64.3735 22.6597 52.4596 22.467 52.0729ZM20.5227 49.0936C20.212 50.4092 19.7575 49.982 19.8121 49.6916C19.9001 49.1926 20.0343 48.6972 20.1539 48.2083C20.2459 47.8669 20.5191 47.8053 20.6459 48.0139C20.7726 48.2224 20.5671 48.8371 20.509 49.0936H20.5227ZM15.9066 44.9215C16.0215 45.1415 15.794 45.0975 15.4693 45.2119C14.6729 45.5023 14.5602 46.7018 14.1299 46.4558C13.7537 46.2358 14.936 44.867 15.2506 44.7095C15.3658 44.6512 15.4994 44.6408 15.6223 44.6805C15.7451 44.7202 15.8473 44.8068 15.9066 44.9215ZM19.2379 57.6529L17.6046 56.7602C17.4926 57.0332 17.3456 57.2906 17.1672 57.5258C16.7655 57.423 16.388 57.2418 16.0567 56.9925C16.0567 56.9652 16.2036 56.5587 16.3985 56.094L10.4907 52.8794C10.3114 53.2072 10.0935 53.5124 9.84167 53.7884C9.37977 53.6265 8.95211 53.3798 8.58063 53.0611C8.74497 52.7378 8.93108 52.426 9.13767 52.1279C8.43367 51.7319 7.72967 51.3315 7.03975 50.9183C6.78323 50.7678 7.03975 50.4158 7.27867 50.539C8.00995 50.8976 8.72759 51.2734 9.44523 51.6527C9.61503 51.364 9.81297 51.0928 10.0361 50.8431C10.4735 50.9975 10.8797 51.229 11.2356 51.5264C11.1193 51.8195 10.9728 52.0997 10.7982 52.3624L16.6062 55.5233C16.707 55.2123 16.8545 54.9184 17.0436 54.6517C17.4809 54.803 17.8922 55.0207 18.2633 55.2972C18.1534 55.6095 18.021 55.9134 17.8673 56.2067L19.5758 57.1307C19.9045 57.3282 19.5797 57.8373 19.2379 57.6529Z" fill="#38A1FF"/>
</svg>
