<svg width="142" height="144" viewBox="0 0 142 144" fill="none" xmlns="http://www.w3.org/2000/svg">
<path d="M140.901 59.1777H138.488V87.1704H140.901V59.1777Z" fill="#FFE8BB"/>
<path d="M73.4372 89.9875L72.6674 89.2019C68.8168 88.9006 62.9657 87.355 59.2597 82.779C59.043 82.5124 58.8444 82.2314 58.6654 81.9384C58.3332 81.4036 58.0995 80.8138 57.9754 80.1969C57.3457 76.8955 60.7587 74.4926 62.3661 74.0994C64.3885 73.6106 67.8685 74.2463 69.271 74.5438C69.6552 74.6267 69.8849 74.6809 69.8849 74.6809C70.1356 74.7005 70.3873 74.7005 70.6382 74.6809C70.8107 74.6711 70.996 74.6583 71.1941 74.6425C71.2581 74.6425 71.3221 74.6365 71.3892 74.6297C71.4276 74.6297 71.4645 74.6297 71.5044 74.6237C72.2674 74.5702 73.0335 74.58 73.795 74.6523C74.0127 74.6749 74.2394 74.7065 74.4729 74.745C74.6002 74.7675 74.7283 74.7932 74.8593 74.8203C74.9648 74.8429 75.0702 74.8685 75.1787 74.8956C75.2585 74.9152 75.3384 74.937 75.4182 74.9596C75.5817 75.0041 75.7444 75.0523 75.9071 75.1065C75.9146 75.1095 75.9222 75.1118 75.9297 75.1133C76.005 75.1381 76.0803 75.1638 76.1557 75.1931V75.1894C77.3277 75.6232 78.4139 76.2605 79.3637 77.0725C80.2488 77.8204 81.2235 78.6 82.2366 79.3766C83.5924 80.4123 85.0168 81.4443 86.4095 82.3836C86.4095 82.3836 86.915 82.48 87.6689 82.5756L87.6787 82.4958V73.1963H106.155C109.168 79.5988 113.888 91.2161 117.234 100.534C120.714 110.223 131.898 127.146 134.167 132.802C136.868 139.526 136.868 143.273 136.868 143.273H97.1289C97.1462 141.795 96.9903 140.32 96.6626 138.878L98.1104 132.4C96.9858 132.429 95.2149 132.4 95.2149 132.4V132.406C95.0108 132.362 93.9977 132.11 89.8669 131.032C83.5653 129.39 69.9007 112.29 69.9007 112.29C68.5208 111.645 66.1014 108.629 64.6695 106.734C63.9556 105.789 63.5206 104.663 63.4138 103.483H63.3912C63.3912 103.483 56.2113 102.655 52.354 101.425C52.354 101.425 46.2091 99.8151 44.4962 99.0769C44.4962 99.0769 33.7595 95.0922 31.0463 93.5232C28.3332 91.9542 29.6152 85.3777 35.0468 86.9497C38.2458 87.8732 41.0644 88.8095 41.1955 88.8547C42.4189 89.7337 43.8882 90.206 45.3948 90.203H53.3407C53.3407 90.203 62.6011 92.2194 64.3426 92.6058L64.5686 92.6186C64.7521 91.778 65.0475 90.9652 65.4468 90.203H73.276L73.4372 89.9875Z" fill="#FFD997"/>
<path d="M134.666 68.129C134.689 68.0973 134.711 68.0657 134.733 68.0363C134.653 68.8369 134.351 69.5992 133.861 70.238C133.531 70.7114 133.056 71.0644 132.507 71.2439C131.958 71.4234 131.366 71.4196 130.82 71.2331L128.937 73.623L126.828 70.9453L128.711 68.5553C128.553 67.8941 128.542 67.2064 128.677 66.5402C128.812 65.8741 129.091 65.2453 129.494 64.698C129.917 64.1281 130.536 63.7353 131.232 63.5952C131.204 63.6204 131.18 63.6485 131.157 63.6788C130.685 64.3247 130.43 65.1041 130.43 65.9043C130.43 66.7044 130.685 67.4837 131.157 68.1297C131.354 68.413 131.616 68.6446 131.922 68.8045C132.227 68.9643 132.567 69.0478 132.912 69.0477C133.257 69.0476 133.597 68.964 133.902 68.804C134.208 68.644 134.47 68.4124 134.666 68.129Z" fill="#81F8F8"/>
<path d="M132.979 77.799C133.365 78.3263 133.573 78.962 133.573 79.6158C133.573 80.2689 133.365 80.9054 132.979 81.4319C132.819 81.6631 132.604 81.8529 132.355 81.9833C132.105 82.1136 131.827 82.1821 131.546 82.1821C131.264 82.1821 130.986 82.1136 130.737 81.9833C130.487 81.8529 130.273 81.6631 130.112 81.4319C129.728 80.9197 129.521 80.296 129.522 79.6557L129.496 79.6904L126.821 76.3008L124.712 73.623L122.829 71.2331C122.282 71.4203 121.689 71.4247 121.14 71.2453C120.591 71.0659 120.114 70.7126 119.784 70.2388C119.296 69.5992 118.995 68.8372 118.915 68.0371C118.936 68.0665 118.956 68.0981 118.982 68.1297C119.177 68.4135 119.44 68.6455 119.745 68.8058C120.051 68.9661 120.391 69.0498 120.736 69.0498C121.081 69.0498 121.421 68.9661 121.726 68.8058C122.032 68.6455 122.294 68.4135 122.49 68.1297C122.963 67.484 123.218 66.7045 123.218 65.9043C123.218 65.104 122.963 64.3244 122.49 63.6788C122.468 63.6497 122.445 63.6218 122.42 63.5952C123.114 63.7358 123.732 64.1287 124.153 64.698C124.556 65.245 124.836 65.8735 124.971 66.5398C125.108 67.206 125.096 67.8938 124.939 68.5553L126.822 70.9453L128.931 73.623L131.603 77.0126L131.577 77.048C131.852 77.0593 132.121 77.1331 132.364 77.2634C132.607 77.393 132.817 77.5768 132.979 77.799Z" fill="#81F8F8"/>
<path d="M124.709 73.6211L126.821 76.2989L125.859 77.5199L124.709 73.6211Z" fill="#1D1F3F"/>
<path d="M124.709 73.6211L125.859 77.5199L124.146 79.6892L124.118 79.6546C124.119 80.2956 123.911 80.9192 123.526 81.4314C123.366 81.6627 123.151 81.8518 122.902 81.9821C122.652 82.1131 122.375 82.1809 122.093 82.1809C121.811 82.1809 121.534 82.1131 121.284 81.9821C121.035 81.8518 120.82 81.6627 120.66 81.4314C120.276 80.9034 120.068 80.2677 120.068 79.6146C120.068 78.9616 120.276 78.3258 120.66 77.7978C120.822 77.5749 121.033 77.3918 121.276 77.2615C121.518 77.1312 121.787 77.0574 122.063 77.0446L122.034 77.0092L124.709 73.6211Z" fill="#81F8F8"/>
<path d="M124.329 1.97803H122.028V28.6835H124.329V1.97803Z" fill="#FFD997"/>
<path d="M113.607 14.9071C113.757 15.0751 113.852 15.2843 113.881 15.5071C113.91 15.7301 113.87 15.9565 113.768 16.1567L113.611 16.4445L112.18 19.0868C112.328 19.4156 112.417 19.7686 112.439 20.1286C112.522 21.4008 111.822 22.4809 110.879 22.5389C109.936 22.5969 109.103 21.6192 109.019 20.347C108.936 19.0748 109.636 17.9954 110.579 17.9366C110.754 17.9247 110.929 17.9485 111.094 18.0067L112.374 15.6491L112.687 15.0706C112.722 14.984 112.779 14.9078 112.851 14.849C112.924 14.7903 113.01 14.7509 113.102 14.7345C113.194 14.7183 113.289 14.7255 113.377 14.7557C113.465 14.7858 113.545 14.838 113.607 14.9071Z" fill="#81F8F8"/>
<path d="M106.155 73.1981H87.6787V39.0703C87.6787 39.0703 90.3979 39.9042 93.8749 45.8668C97.3518 51.8295 102.822 66.245 105.804 72.4562C105.918 72.6935 106.038 72.939 106.155 73.1981Z" fill="#FFD997"/>
<path d="M95.2513 132.414L95.2129 132.401C95.2129 132.401 96.9838 132.43 98.1083 132.401L96.6606 138.879C96.0979 135.853 95.2543 132.555 95.2159 132.405C95.2272 132.408 95.2393 132.411 95.2513 132.414Z" fill="#1D1F3F"/>
<path d="M87.679 73.1963V82.489L87.6692 82.5689C86.9159 82.4732 86.4098 82.3768 86.4098 82.3768C85.017 81.4375 83.5919 80.4056 82.2368 79.3698L82.2813 79.3126C82.5057 78.7846 82.621 78.2174 82.6202 77.6442V73.2001L87.679 73.1963Z" fill="#81F8F8"/>
<path d="M82.6206 19.5119V14.9172C82.6206 13.7785 82.1679 12.6864 81.3634 11.8812C80.5582 11.076 79.466 10.6237 78.3271 10.6237H52.86C51.7214 10.6237 50.6292 11.076 49.8241 11.8812C49.0189 12.6864 48.5666 13.7785 48.5666 14.9172V24.2792C48.5666 24.843 48.6776 25.4013 48.8934 25.9222C49.1091 26.4431 49.4254 26.9164 49.8241 27.3151C50.2228 27.7138 50.696 28.0301 51.217 28.2458C51.7379 28.4616 52.2962 28.5727 52.86 28.5727H78.3248C78.889 28.5727 79.4472 28.4616 79.9677 28.2458C80.4889 28.0301 80.9619 27.7138 81.3611 27.3151C81.7596 26.9164 82.076 26.4431 82.2914 25.9222C82.5076 25.4013 82.6183 24.843 82.6183 24.2792L82.6206 19.5119ZM42.7666 46.9932V7.8706C42.7668 5.8257 43.5791 3.86464 45.025 2.41864C46.4709 0.972618 48.4319 0.160068 50.4768 0.159668H51.4002C51.4002 1.70031 52.0122 3.17785 53.1017 4.26725C54.1911 5.35666 55.6686 5.96867 57.2092 5.96867H71.6602C73.2005 5.96784 74.6784 5.35568 75.7676 4.26657C76.8575 3.17741 77.4707 1.70035 77.4722 0.159668H79.9654C80.9785 0.159375 81.9811 0.358599 82.9173 0.745968C83.8529 1.13334 84.7033 1.70126 85.4196 2.4173C86.1359 3.13335 86.7039 3.9835 87.0918 4.91918C87.4797 5.85485 87.6793 6.85779 87.6793 7.8706V73.1969H82.6206V68.285C82.6206 67.1463 82.1679 66.0542 81.3634 65.2491C80.5582 64.4439 79.466 63.9915 78.3271 63.9915H52.86C51.7214 63.9915 50.6292 64.4439 49.8241 65.2491C49.0189 66.0542 48.5666 67.1463 48.5666 68.285V77.6448C48.5666 78.7837 49.0189 79.8759 49.8241 80.6803C50.6292 81.4856 51.7214 81.9383 52.86 81.9383H58.6668C58.8458 82.2313 59.0444 82.5122 59.2611 82.7789C62.9647 87.3548 68.8159 88.8982 72.6687 89.2018L73.4386 89.9874L73.2789 90.2051H50.4768C48.4313 90.2036 46.4701 89.3901 45.0243 87.9439C43.5785 86.4969 42.7664 84.5347 42.7666 82.4896V46.9932ZM48.5726 46.9932V50.962C48.5726 52.1007 49.0249 53.1927 49.8301 53.9979C50.6353 54.8031 51.7274 55.2555 52.866 55.2555H78.3309C79.4698 55.2555 80.562 54.8031 81.3672 53.9979C82.1716 53.1927 82.6243 52.1007 82.6243 50.962V41.6022C82.6243 40.4635 82.1716 39.3714 81.3672 38.5663C80.562 37.7611 79.4698 37.3087 78.3309 37.3087H52.86C51.7214 37.3087 50.6292 37.7611 49.8241 38.5663C49.0189 39.3714 48.5666 40.4635 48.5666 41.6022L48.5726 46.9932Z" fill="#81F8F8"/>
<path d="M82.6209 73.1975V77.6417C82.6217 78.2149 82.5064 78.7821 82.2819 79.3101L82.2375 79.3673C81.2244 78.5907 80.2497 77.8111 79.3646 77.0632C78.4148 76.2512 77.3286 75.6139 76.1566 75.1801C76.4481 74.6747 76.6191 74.1082 76.6567 73.526C76.6952 72.9437 76.598 72.3599 76.3743 71.8214C76.1506 71.2821 75.8063 70.8016 75.3672 70.417C74.9281 70.0323 74.4068 69.7537 73.8426 69.6029C73.2792 69.452 72.6879 69.4328 72.1155 69.5467C71.543 69.6607 71.0044 69.9048 70.5419 70.2601C70.0787 70.6154 69.7036 71.0725 69.4454 71.5962C69.1872 72.1197 69.0529 72.6951 69.0528 73.2789C69.0532 73.709 69.1277 74.1361 69.2727 74.5413C67.8702 74.2438 64.3902 73.6081 62.3678 74.0969C60.7604 74.4901 57.3474 76.8929 57.9771 80.1944C58.1013 80.8113 58.3349 81.4011 58.6671 81.9359H52.8604C51.7217 81.9359 50.6296 81.4832 49.8244 80.678C49.0192 79.8735 48.5669 78.7813 48.5669 77.6424V68.2857C48.5669 67.1469 49.0192 66.0549 49.8244 65.2497C50.6296 64.4445 51.7217 63.9922 52.8604 63.9922H78.3252C79.4641 63.9922 80.5563 64.4445 81.3615 65.2497C82.1659 66.0549 82.6186 67.1469 82.6186 68.2857V73.1975H82.6209Z" fill="#81F8F8"/>
<path d="M48.5669 46.9925V41.6016C48.5669 40.4628 49.0192 39.3708 49.8244 38.5656C50.6296 37.7604 51.7217 37.3081 52.8604 37.3081H78.3252C79.4641 37.3081 80.5563 37.7604 81.3615 38.5656C82.166 39.3708 82.6186 40.4628 82.6186 41.6016V50.9613C82.6186 52.1 82.166 53.1921 81.3615 53.9973C80.5563 54.8024 79.4641 55.2548 78.3252 55.2548H52.8604C51.7217 55.2548 50.6296 54.8024 49.8244 53.9973C49.0192 53.1921 48.5669 52.1 48.5669 50.9613V46.9925ZM60.9532 47.0754C60.9529 46.323 60.7296 45.5877 60.3114 44.9622C59.8932 44.3367 59.299 43.8493 58.6038 43.5616C57.9087 43.2738 57.1438 43.1986 56.4059 43.3454C55.6681 43.4923 54.9903 43.8546 54.4583 44.3866C53.9263 44.9185 53.564 45.5964 53.4172 46.3343C53.2703 47.0721 53.3455 47.837 53.6333 48.5321C53.9211 49.2272 54.4085 49.8215 55.0339 50.2397C55.6593 50.6578 56.3947 50.8812 57.1471 50.8815C57.6471 50.8817 58.1422 50.7834 58.6042 50.5922C59.0662 50.401 59.486 50.1207 59.8397 49.7672C60.1933 49.4138 60.4738 48.9942 60.6653 48.5323C60.8568 48.0704 60.9554 47.5753 60.9554 47.0754H60.9532Z" fill="#81F8F8"/>
<path d="M82.6209 19.5115V24.2787C82.6209 24.8425 82.5102 25.4009 82.294 25.9218C82.0786 26.4427 81.7622 26.916 81.3637 27.3147C80.9645 27.7134 80.4915 28.0296 79.9703 28.2454C79.4498 28.4612 78.8916 28.5722 78.3274 28.5722H52.8604C52.2966 28.5722 51.7383 28.4612 51.2173 28.2454C50.6965 28.0296 50.2231 27.7134 49.8244 27.3147C49.4257 26.916 49.1095 26.4427 48.8937 25.9218C48.6779 25.4009 48.5669 24.8425 48.5669 24.2787V14.919C48.5669 13.7803 49.0192 12.6882 49.8244 11.883C50.6296 11.0778 51.7217 10.6255 52.8604 10.6255H78.3252C79.4641 10.6255 80.5563 11.0778 81.3615 11.883C82.166 12.6882 82.6186 13.7803 82.6186 14.919L82.6209 19.5115ZM76.6643 19.5943C76.6643 18.8415 76.4413 18.1057 76.0225 17.4798C75.6045 16.8539 75.0102 16.366 74.3149 16.0779C73.6189 15.7899 72.8536 15.7145 72.1155 15.8613C71.3773 16.0082 70.6994 16.3707 70.1668 16.903C69.6345 17.4353 69.272 18.1135 69.1252 18.8518C68.9783 19.5901 69.0537 20.3554 69.3417 21.0509C69.6298 21.7463 70.1176 22.3408 70.7438 22.759C71.3698 23.1773 72.1057 23.4005 72.8582 23.4005C73.8675 23.3997 74.8347 22.9984 75.548 22.2847C76.2613 21.5711 76.662 20.6034 76.6628 19.5943H76.6643Z" fill="#81F8F8"/>
<path d="M51.4004 0.159668H77.4723C77.4708 1.70035 76.8577 3.17741 75.7677 4.26657C74.6785 5.35568 73.2007 5.96784 71.6603 5.96867H57.2094C55.6687 5.96867 54.1912 5.35666 53.1018 4.26725C52.0124 3.17785 51.4004 1.70031 51.4004 0.159668Z" fill="#1D1F3F"/>
<path d="M76.6621 73.2803C76.6613 73.9476 76.4866 74.603 76.1544 75.1814L75.9239 75.1061C75.9164 75.1046 75.9088 75.1023 75.9013 75.0993C75.7386 75.0421 75.5759 74.9939 75.4124 74.9525C75.3326 74.9299 75.2527 74.908 75.1729 74.8884C75.0644 74.8598 74.959 74.8372 74.8535 74.8131C74.7225 74.7882 74.5944 74.7626 74.4671 74.7378C74.2366 74.6963 74.0152 74.6677 73.7892 74.6451C73.0277 74.5713 72.2616 74.5615 71.4986 74.6165C71.4602 74.6165 71.4233 74.6225 71.3834 74.6225C71.3163 74.6293 71.2523 74.6323 71.1883 74.6353C70.9872 74.6481 70.8019 74.6609 70.6324 74.6738C70.3815 74.6933 70.1298 74.6933 69.8791 74.6738C69.8791 74.6738 69.6532 74.6195 69.2652 74.5367C69.1202 74.1314 69.0457 73.7043 69.0453 73.2742C69.0382 72.7696 69.1314 72.2694 69.3195 71.8016C69.5076 71.3334 69.7867 70.9075 70.1409 70.5483C70.4953 70.1892 70.9171 69.9041 71.3818 69.7094C71.8474 69.5148 72.3468 69.4146 72.8514 69.4146C73.3553 69.4146 73.8547 69.5148 74.3202 69.7094C74.785 69.9041 75.2068 70.1892 75.5616 70.5483C75.9156 70.9075 76.1943 71.3334 76.3826 71.8016C76.5709 72.2694 76.6636 72.7696 76.6568 73.2742L76.6621 73.2803Z" fill="white"/>
<path d="M72.8579 23.4008C74.9602 23.4008 76.664 21.6968 76.664 19.5947C76.664 17.4926 74.9602 15.7886 72.8579 15.7886C70.7556 15.7886 69.0518 17.4926 69.0518 19.5947C69.0518 21.6968 70.7556 23.4008 72.8579 23.4008Z" fill="white"/>
<path d="M53.3394 90.2031H65.447C65.0477 90.9654 64.7522 91.7782 64.5687 92.6188L64.3427 92.606C62.5997 92.2196 53.3394 90.2031 53.3394 90.2031Z" fill="#1D1F3F"/>
<path d="M57.1493 43.2705C57.9022 43.2699 58.6385 43.4926 59.2648 43.9105C59.8911 44.3284 60.3794 44.9227 60.6679 45.6182C60.9565 46.3137 61.0322 47.079 60.8856 47.8176C60.739 48.5562 60.3767 49.2346 59.8445 49.7672C59.3122 50.2998 58.6339 50.6625 57.8955 50.8095C57.1571 50.9565 56.3916 50.8813 55.6959 50.5931C55.0003 50.305 54.4058 49.8171 53.9875 49.191C53.5692 48.5649 53.346 47.8288 53.3462 47.0759C53.3466 46.0671 53.7474 45.0998 54.4604 44.3863C55.1735 43.6728 56.1406 43.2715 57.1493 43.2705Z" fill="white"/>
<path d="M48.2395 0.159668H50.4766C48.4317 0.160067 46.4707 0.972618 45.0249 2.41864C43.5789 3.86464 42.7666 5.8257 42.7664 7.8706V46.9932H40.5293V7.8706C40.5295 5.8257 41.3418 3.86464 42.7877 2.41864C44.2336 0.972618 46.1946 0.160067 48.2395 0.159668Z" fill="#1D1F3F"/>
<path d="M50.4765 90.2031H48.2393C46.1935 90.2031 44.2316 89.3903 42.785 87.9434C41.3384 86.4971 40.5256 84.5349 40.5254 82.4891V46.9927H42.7663V82.4891C42.7665 84.5342 43.5787 86.4956 45.0245 87.9419C46.4703 89.3888 48.4313 90.2016 50.4765 90.2031Z" fill="#1D1F3F"/>
<path d="M38.1795 68.7393V78.5013C38.1795 78.5013 34.6927 77.904 29.9511 77.1146C25.2094 76.3252 25.2056 70.6367 27.7396 68.7393C30.2735 66.8419 37.8533 68.7393 37.8533 68.7393H38.1795Z" fill="#FFD997"/>
<path d="M23.308 43.788V48.9198H21.7578C21.1861 48.9198 20.8984 49.7891 21.3059 50.3005L22.4019 51.6782L19.5132 55.3081L18.4157 53.9304C18.0097 53.4197 17.3198 53.7797 17.3198 54.4998V56.4485H13.2327V54.4998C13.2327 53.7805 12.5419 53.4197 12.136 53.9304L11.04 55.3081L8.15131 51.6782L9.24727 50.3005C9.65327 49.7891 9.36553 48.9198 8.79533 48.9198H7.24365V43.788H8.79533C9.36704 43.788 9.65478 42.9157 9.24727 42.4073L8.15131 41.0274L11.04 37.3975L12.136 38.7744C12.5419 39.2829 13.2327 38.9251 13.2327 38.2027V36.2563H17.3198V38.2057C17.3198 38.9273 18.0097 39.2859 18.4157 38.7774L19.5117 37.4005L22.4004 41.0274L21.3044 42.4043C20.8984 42.9127 21.1861 43.785 21.7563 43.785L23.308 43.788ZM17.6994 46.3543C17.6994 44.67 16.6132 43.3052 15.2777 43.3052C13.9422 43.3052 12.8523 44.67 12.8523 46.3543C12.8523 48.0385 13.9385 49.3996 15.2777 49.3996C16.617 49.3996 17.6994 48.0325 17.6994 46.3543Z" fill="#81F8F8"/>
<path d="M2.7802 31.7886H0.159668V62.1977H2.7802V31.7886Z" fill="#FFE8BB"/>
<path d="M2.77979 31.7886L28.4299 34.0257V59.9605L2.77979 62.1977" stroke="#1D1F3F" stroke-width="0.319374" stroke-linecap="round" stroke-linejoin="round"/>
<path d="M2.7802 31.7886H0.159668V62.1977H2.7802V31.7886Z" fill="#FFD997" stroke="#1D1F3F" stroke-width="0.319374" stroke-linecap="round" stroke-linejoin="round"/>
<path d="M122.028 1.97803L99.5029 6.81913V31.1948L122.028 28.6827" stroke="#1D1F3F" stroke-width="0.319374" stroke-linecap="round" stroke-linejoin="round"/>
<path d="M124.329 1.97803H122.028V28.6835H124.329V1.97803Z" stroke="#1D1F3F" stroke-width="0.319374" stroke-linecap="round" stroke-linejoin="round"/>
<path d="M138.488 59.1777L114.872 61.2363V85.1096L138.488 87.1712" stroke="#1D1F3F" stroke-width="0.319374" stroke-linecap="round" stroke-linejoin="round"/>
<path d="M140.901 59.1777H138.488V87.1704H140.901V59.1777Z" fill="#FFD997" stroke="#1D1F3F" stroke-width="0.319374" stroke-linecap="round" stroke-linejoin="round"/>
<path d="M77.4722 0.159668H79.9654C80.9785 0.159375 81.9811 0.358599 82.9173 0.745968C83.8529 1.13334 84.7033 1.70126 85.4196 2.4173C86.1359 3.13335 86.7039 3.9835 87.0918 4.91918C87.4797 5.85485 87.6793 6.85779 87.6793 7.8706V82.4896" stroke="#1D1F3F" stroke-width="0.319374" stroke-linecap="round" stroke-linejoin="round"/>
<path d="M50.9907 0.159668H51.3982" stroke="#1D1F3F" stroke-width="0.319374" stroke-linecap="round" stroke-linejoin="round"/>
<path d="M48.2393 90.2036C46.1935 90.2036 44.2316 89.3908 42.785 87.9438C41.3384 86.4976 40.5256 84.5354 40.5254 82.4896V7.8706C40.5255 6.85779 40.7251 5.85485 41.1128 4.91918C41.5005 3.9835 42.0689 3.13335 42.7851 2.4173C43.5014 1.70126 44.3519 1.13334 45.2877 0.745968C46.2235 0.358599 47.2264 0.159375 48.2393 0.159668" stroke="#1D1F3F" stroke-width="0.319374" stroke-linecap="round" stroke-linejoin="round"/>
<path d="M73.2761 90.2031H65.4469H53.3393H50.9907" stroke="#1D1F3F" stroke-width="0.319374" stroke-linecap="round" stroke-linejoin="round"/>
<path d="M50.4768 90.2036C48.4316 90.2021 46.4707 89.3893 45.0248 87.9423C43.579 86.4961 42.7668 84.5347 42.7666 82.4896V7.8706C42.7668 5.8257 43.5791 3.86464 45.025 2.41864C46.4709 0.972618 48.4319 0.160067 50.4768 0.159668" stroke="#1D1F3F" stroke-width="0.319374" stroke-linecap="round" stroke-linejoin="round"/>
<path d="M41.1974 88.8583C40.2631 88.1902 39.5019 87.3081 38.9771 86.286C38.4524 85.2646 38.1793 84.1317 38.1807 82.983V7.37798C38.1804 6.42965 38.3672 5.49051 38.7302 4.61434C39.0931 3.73824 39.6252 2.9422 40.296 2.27182C40.9668 1.60144 41.7632 1.06985 42.6396 0.707427C43.5159 0.345013 44.4552 0.15888 45.4035 0.15967H50.9955" stroke="#1D1F3F" stroke-width="0.319374" stroke-linecap="round" stroke-linejoin="round"/>
<path d="M50.9922 90.2028H45.4039C43.8973 90.2058 42.428 89.7335 41.2046 88.8545" stroke="#1D1F3F" stroke-width="0.319374" stroke-linecap="round" stroke-linejoin="round"/>
<path d="M77.4723 0.159668C77.4708 1.70035 76.8577 3.17741 75.7677 4.26657C74.6785 5.35568 73.2007 5.96784 71.6603 5.96867H57.2094C55.6687 5.96867 54.1912 5.35666 53.1018 4.26725C52.0124 3.17785 51.4004 1.70031 51.4004 0.159668H77.4723Z" stroke="#1D1F3F" stroke-width="0.319374" stroke-linecap="round" stroke-linejoin="round"/>
<path d="M78.3259 28.5707H52.8604C51.7217 28.5707 50.6296 28.1184 49.8244 27.3132C49.0192 26.508 48.5669 25.4159 48.5669 24.2772V14.919C48.5669 13.7803 49.0192 12.6882 49.8244 11.883C50.6296 11.0778 51.7217 10.6255 52.8604 10.6255H78.3252C79.4641 10.6255 80.5563 11.0778 81.3615 11.883C82.166 12.6882 82.6186 13.7803 82.6186 14.919V24.2787C82.6179 25.417 82.166 26.5086 81.3607 27.3135C80.5555 28.1183 79.4641 28.5705 78.3259 28.5707Z" stroke="#1D1F3F" stroke-width="0.319374" stroke-linecap="round" stroke-linejoin="round"/>
<path d="M78.3259 55.2533H52.8604C51.7217 55.2533 50.6296 54.8009 49.8244 53.9958C49.0192 53.1906 48.5669 52.0985 48.5669 50.9598V41.6016C48.5669 40.4628 49.0192 39.3708 49.8244 38.5656C50.6296 37.7604 51.7217 37.3081 52.8604 37.3081H78.3252C79.4641 37.3081 80.5563 37.7604 81.3615 38.5656C82.166 39.3708 82.6186 40.4628 82.6186 41.6016V50.9613C82.6179 52.0996 82.166 53.1912 81.3607 53.996C80.5555 54.8008 79.4641 55.2531 78.3259 55.2533Z" stroke="#1D1F3F" stroke-width="0.319374" stroke-linecap="round" stroke-linejoin="round"/>
<path d="M58.6701 81.9374H52.8604C51.7217 81.9374 50.6296 81.4847 49.8244 80.6795C49.0192 79.875 48.5669 78.7828 48.5669 77.6439V68.2857C48.5669 67.1469 49.0192 66.0549 49.8244 65.2497C50.6296 64.4445 51.7217 63.9922 52.8604 63.9922H78.3252C79.4641 63.9922 80.5563 64.4445 81.3615 65.2497C82.1659 66.0549 82.6186 67.1469 82.6186 68.2857V77.6454C82.6194 78.2186 82.5042 78.7858 82.2797 79.3139" stroke="#1D1F3F" stroke-width="0.319374" stroke-linecap="round" stroke-linejoin="round"/>
<path d="M30.7061 46.9927H38.1805H40.5261H42.7632H48.5692H51.4006" stroke="#1D1F3F" stroke-width="0.319374" stroke-linecap="round" stroke-linejoin="round"/>
<path d="M69.2731 74.5423C67.8705 74.2448 64.3906 73.609 62.3681 74.0979C60.7607 74.4911 57.3478 76.8939 57.9775 80.1954C58.1016 80.8123 58.3353 81.4021 58.6674 81.9369C58.8466 82.2299 59.045 82.5108 59.2617 82.7775C62.9654 87.3534 68.8166 88.8968 72.6694 89.2004L73.4392 89.986C75.3118 91.9068 80.0572 96.7652 81.3196 98.121C81.3196 98.121 85.0007 112.552 89.072 116.623C94.5812 122.135 97.7343 123.707 101.275 124.234" stroke="#1D1F3F" stroke-width="0.319374" stroke-linecap="round" stroke-linejoin="round"/>
<path d="M71.1928 74.6372C70.992 74.65 70.8069 74.6628 70.6377 74.6756" stroke="#1D1F3F" stroke-width="0.319374" stroke-linecap="round" stroke-linejoin="round"/>
<path d="M74.4695 74.7403C74.239 74.6989 74.0176 74.6703 73.7916 74.6477C73.0301 74.5739 72.264 74.5641 71.501 74.619" stroke="#1D1F3F" stroke-width="0.319374" stroke-linecap="round" stroke-linejoin="round"/>
<path d="M75.1742 74.8861C75.0661 74.8576 74.961 74.835 74.856 74.811" stroke="#1D1F3F" stroke-width="0.319374" stroke-linecap="round" stroke-linejoin="round"/>
<path d="M75.9037 75.0974C75.7412 75.0402 75.5787 74.9921 75.4155 74.9507" stroke="#1D1F3F" stroke-width="0.319374" stroke-linecap="round" stroke-linejoin="round"/>
<path d="M92.7467 85.9659C90.5171 84.9904 88.3937 83.7875 86.4097 82.3774C85.0169 81.4381 83.5918 80.4062 82.2367 79.3705C81.2236 78.5939 80.2489 77.8143 79.3638 77.0663C78.414 76.2543 77.3278 75.6171 76.1558 75.1832L75.9253 75.1079" stroke="#1D1F3F" stroke-width="0.319374" stroke-linecap="round" stroke-linejoin="round"/>
<path d="M86.4102 82.3809C86.4102 82.3809 86.9156 82.4773 87.6696 82.5729C89.2288 82.774 91.8621 82.985 93.3257 82.3809" stroke="#1D1F3F" stroke-width="0.319374" stroke-linecap="round" stroke-linejoin="round"/>
<path d="M71.3897 74.6226C70.5649 75.5264 66.5833 78.553 67.0962 82.3749" stroke="#1D1F3F" stroke-width="0.319374" stroke-linecap="round" stroke-linejoin="round"/>
<path d="M57.9775 80.1954C59.4795 81.32 63.1696 82.0032 64.6143 81.192C64.6143 81.192 65.4648 76.8623 67.375 75.4214" stroke="#1D1F3F" stroke-width="0.319374" stroke-linecap="round" stroke-linejoin="round"/>
<path d="M136.868 143.277C136.868 143.277 136.868 139.528 134.167 132.807C131.898 127.151 120.714 110.227 117.234 100.539C113.888 91.2202 109.166 79.5984 106.155 73.2004C106.037 72.9413 105.918 72.6957 105.804 72.4554C102.822 66.2435 97.3548 51.8317 93.8749 45.8661C90.3949 39.9004 87.6787 39.0703 87.6787 39.0703" stroke="#1D1F3F" stroke-width="0.319374" stroke-linecap="round" stroke-linejoin="round"/>
<path d="M95.2513 132.414L95.2129 132.401V132.407C95.2513 132.558 96.0949 135.855 96.6576 138.881C96.9853 140.323 97.1412 141.798 97.1239 143.275" stroke="#1D1F3F" stroke-width="0.319374" stroke-linecap="round" stroke-linejoin="round"/>
<path d="M63.5205 101.427C63.4181 101.943 63.3751 102.469 63.3924 102.996C63.3924 103.159 63.4022 103.322 63.415 103.485C63.5218 104.664 63.9568 105.79 64.6707 106.735C66.1018 108.63 68.522 111.646 69.9019 112.291C69.9019 112.291 83.5665 129.39 89.8681 131.034C93.9996 132.111 95.0127 132.363 95.2161 132.408C95.2274 132.411 95.2394 132.413 95.2515 132.414C95.256 132.415 95.2598 132.415 95.2643 132.414" stroke="#1D1F3F" stroke-width="0.319374" stroke-linecap="round" stroke-linejoin="round"/>
<path d="M63.3922 103.484C63.3922 103.484 56.2123 102.656 52.355 101.427C52.355 101.427 46.21 99.8162 44.4972 99.078C44.4972 99.078 33.7605 95.0934 31.0473 93.5244C28.3341 91.9554 29.6162 85.3789 35.0478 86.9509C38.2468 87.8743 41.0654 88.8106 41.1965 88.8558" stroke="#1D1F3F" stroke-width="0.319374" stroke-linecap="round" stroke-linejoin="round"/>
<path d="M43.6543 92.2866C43.6543 92.2866 43.2777 93.9799 43.1851 94.8273" stroke="#1D1F3F" stroke-width="0.319374" stroke-linecap="round" stroke-linejoin="round"/>
<path d="M53.5608 93.8848C53.5608 93.8848 53.1842 96.5369 53.0908 97.3843" stroke="#1D1F3F" stroke-width="0.319374" stroke-linecap="round" stroke-linejoin="round"/>
<path d="M95.2129 132.401C95.2129 132.401 96.9838 132.43 98.1083 132.401L96.6606 138.879" stroke="#1D1F3F" stroke-width="0.319374" stroke-linecap="round" stroke-linejoin="round"/>
<path d="M37.8549 68.7386C37.8549 68.7386 30.269 66.8405 27.7411 68.7386C25.2133 70.6368 25.2103 76.3245 29.9527 77.1139C34.6951 77.9033 38.1811 78.5006 38.1811 78.5006" stroke="#1D1F3F" stroke-width="0.319374" stroke-linecap="round" stroke-linejoin="round"/>
<path d="M65.447 90.2031C65.0477 90.9654 64.7523 91.7782 64.5687 92.6188C64.4485 93.1385 64.3729 93.668 64.3428 94.2006" stroke="#1D1F3F" stroke-width="0.319374" stroke-linecap="round" stroke-linejoin="round"/>
<path d="M53.3394 90.2031C53.3394 90.2031 62.5997 92.2196 64.3412 92.606" stroke="#1D1F3F" stroke-width="0.319374" stroke-linecap="round" stroke-linejoin="round"/>
<path d="M60.9554 47.0759C60.9553 47.8283 60.7321 48.5638 60.314 49.1892C59.8959 49.8148 59.3018 50.3023 58.6066 50.5902C57.9115 50.8781 57.1466 50.9534 56.4086 50.8067C55.6708 50.6599 54.9928 50.2976 54.4608 49.7657C53.9287 49.2337 53.5664 48.5559 53.4194 47.8181C53.2725 47.0801 53.3477 46.3152 53.6354 45.62C53.9232 44.9248 54.4106 44.3306 55.0361 43.9124C55.6615 43.4941 56.3969 43.2708 57.1493 43.2705C57.6491 43.2704 58.144 43.3687 58.6058 43.56C59.0676 43.7512 59.4871 44.0314 59.8406 44.3848C60.1941 44.7382 60.4744 45.1578 60.6657 45.6195C60.857 46.0812 60.9554 46.5761 60.9554 47.0759Z" stroke="#1D1F3F" stroke-width="0.319374" stroke-linecap="round" stroke-linejoin="round"/>
<path d="M96.1049 19.5112H87.6784H82.6196H78.6094" stroke="#1D1F3F" stroke-width="0.319374" stroke-linecap="round" stroke-linejoin="round"/>
<path d="M72.8579 23.4008C74.9602 23.4008 76.664 21.6968 76.664 19.5947C76.664 17.4926 74.9602 15.7886 72.8579 15.7886C70.7556 15.7886 69.0518 17.4926 69.0518 19.5947C69.0518 21.6968 70.7556 23.4008 72.8579 23.4008Z" stroke="#1D1F3F" stroke-width="0.319374" stroke-linecap="round" stroke-linejoin="round"/>
<path d="M112.083 73.1963H106.155H87.6784H82.6196H78.6094" stroke="#1D1F3F" stroke-width="0.319374" stroke-linecap="round" stroke-linejoin="round"/>
<path d="M69.2729 74.5425C69.6571 74.6254 69.8868 74.6796 69.8868 74.6796C70.1375 74.6992 70.3892 74.6992 70.64 74.6796C70.8125 74.6698 70.9978 74.657 71.1959 74.6412C71.26 74.6412 71.324 74.6352 71.391 74.6284C71.4294 74.6284 71.4663 74.6284 71.5063 74.6224C72.2693 74.5689 73.0353 74.5787 73.7969 74.651C74.0146 74.6736 74.2413 74.7052 74.4748 74.7436C74.6021 74.7662 74.7301 74.7918 74.8612 74.819C74.9667 74.8416 75.0721 74.8672 75.1806 74.8943C75.2604 74.9139 75.3403 74.9357 75.4201 74.9583C75.5836 75.0028 75.7463 75.051 75.909 75.1052C75.9165 75.1082 75.924 75.1105 75.9316 75.112C76.0069 75.1368 76.0822 75.1624 76.1575 75.1918V75.188C76.449 74.6826 76.62 74.1162 76.6577 73.5339C76.6961 72.9517 76.5989 72.3679 76.3752 71.8293C76.1515 71.29 75.8073 70.8095 75.3681 70.4249C74.929 70.0403 74.4077 69.7617 73.8436 69.6108C73.2801 69.46 72.6889 69.4407 72.1164 69.5547C71.5439 69.6687 71.0054 69.9128 70.5429 70.2681C70.0796 70.6234 69.7045 71.0805 69.4463 71.6041C69.1882 72.1276 69.0538 72.7031 69.0537 73.2869C69.0547 73.7147 69.1288 74.1395 69.2729 74.5425Z" stroke="#1D1F3F" stroke-width="0.319374" stroke-linecap="round" stroke-linejoin="round"/>
<path d="M23.308 43.788H21.7578C21.1861 43.788 20.8984 42.9157 21.3059 42.4073L22.4004 41.0274L19.5117 37.3975L18.4157 38.7744C18.0097 39.2829 17.3198 38.9251 17.3198 38.2027V36.2563H13.2327V38.2057C13.2327 38.9273 12.5419 39.2859 12.136 38.7774L11.04 37.4005L8.15131 41.0274L9.24727 42.4073C9.65327 42.9157 9.36553 43.788 8.79533 43.788H7.24365V48.9198H8.79533C9.36704 48.9198 9.65478 49.7891 9.24727 50.3005L8.15131 51.6782L11.04 55.3081L12.136 53.9304C12.5419 53.4197 13.2327 53.7797 13.2327 54.4998V56.4485H17.3198V54.4998C17.3198 53.7805 18.0097 53.4197 18.4157 53.9304L19.5117 55.3081L22.4004 51.6782L21.3044 50.3005C20.8984 49.7891 21.1861 48.9198 21.7563 48.9198H23.3065V43.788H23.308Z" stroke="#1D1F3F" stroke-width="0.319374" stroke-linecap="round" stroke-linejoin="round"/>
<path d="M17.6996 46.3543C17.6996 48.0348 16.6135 49.3996 15.278 49.3996C13.9425 49.3996 12.8525 48.0348 12.8525 46.3543C12.8525 44.6738 13.9387 43.3052 15.278 43.3052C16.6172 43.3052 17.6996 44.67 17.6996 46.3543Z" stroke="#1D1F3F" stroke-width="0.319374" stroke-linecap="round" stroke-linejoin="round"/>
<path d="M112.372 15.6486C111.756 15.3698 111.081 15.2457 110.407 15.2871C108.93 15.3827 107.648 16.441 106.77 17.9716C105.852 19.6387 105.432 21.5339 105.559 23.4326C105.565 23.5313 105.571 23.6337 105.581 23.7339" stroke="#81F8F8" stroke-width="0.319374" stroke-linecap="round" stroke-linejoin="round"/>
<path d="M116.202 22.4012C116.202 22.3018 116.196 22.2031 116.19 22.0999C116.105 20.461 115.558 18.8793 114.615 17.5368C114.324 17.1345 113.987 16.7676 113.611 16.4438" stroke="#81F8F8" stroke-width="0.319374" stroke-linecap="round" stroke-linejoin="round"/>
<path d="M116.202 22.4007L119.366 22.1958C119.36 22.0972 119.36 21.9977 119.353 21.8945C119.215 19.2909 118.351 16.7779 116.858 14.6408C115.142 12.2764 112.722 10.8603 110.134 11.0298C107.645 11.1933 105.5 12.9634 104.101 15.5327C102.791 18.0233 102.203 20.8298 102.401 23.6368C102.408 23.7385 102.417 23.8379 102.423 23.9381L105.587 23.734" stroke="#81F8F8" stroke-width="0.319374" stroke-linecap="round" stroke-linejoin="round"/>
<path d="M113.61 16.4439L113.767 16.1561C113.869 15.9559 113.909 15.7295 113.88 15.5065C113.851 15.2836 113.756 15.0745 113.606 14.9065C113.544 14.8367 113.464 14.7839 113.375 14.7533C113.287 14.7227 113.191 14.7152 113.1 14.7316C113.007 14.7479 112.92 14.7876 112.847 14.8468C112.774 14.906 112.718 14.9829 112.683 15.0699L112.37 15.6484L111.09 18.0061C110.925 17.9479 110.75 17.9241 110.575 17.936C109.632 17.997 108.933 19.0772 109.015 20.3464C109.098 21.6156 109.933 22.5993 110.875 22.5383C111.818 22.4773 112.518 21.3979 112.435 20.128C112.413 19.768 112.324 19.415 112.176 19.0862L113.61 16.4439Z" stroke="#1D1F3F" stroke-width="0.319374" stroke-linecap="round" stroke-linejoin="round"/>
<path d="M110.132 11.0308L110.407 15.2873" stroke="#81F8F8" stroke-width="0.319374" stroke-linecap="round" stroke-linejoin="round"/>
<path d="M104.12 15.5469L106.433 17.9497" stroke="#81F8F8" stroke-width="0.319374" stroke-linecap="round" stroke-linejoin="round"/>
<path d="M116.74 14.7241L114.803 17.4057" stroke="#81F8F8" stroke-width="0.319374" stroke-linecap="round" stroke-linejoin="round"/>
<path d="M128.938 73.6221L130.821 71.2321C131.367 71.4191 131.96 71.4231 132.508 71.2438C133.057 71.0644 133.532 70.7113 133.863 70.2378C134.353 69.599 134.655 68.8367 134.735 68.0361C134.713 68.0655 134.691 68.0971 134.668 68.1287C134.472 68.4126 134.21 68.6446 133.904 68.8048C133.597 68.965 133.258 69.0487 132.913 69.0487C132.567 69.0487 132.227 68.965 131.921 68.8048C131.615 68.6446 131.353 68.4126 131.156 68.1287C130.684 67.4825 130.43 66.7032 130.43 65.9033C130.43 65.1033 130.684 64.324 131.156 63.6778C131.179 63.6477 131.203 63.6197 131.231 63.5942C130.535 63.7343 129.916 64.1272 129.493 64.697C129.09 65.2444 128.811 65.8731 128.676 66.5393C128.541 67.2054 128.552 67.8931 128.71 68.5543L126.827 70.9444" stroke="#1D1F3F" stroke-width="0.319374" stroke-linecap="round" stroke-linejoin="round"/>
<path d="M124.708 73.6211L122.034 77.0107L122.062 77.0461C121.787 77.0589 121.518 77.1327 121.275 77.263C121.032 77.3933 120.822 77.5764 120.659 77.7993C120.275 78.3273 120.068 78.9631 120.068 79.6161C120.068 80.2684 120.275 80.9042 120.659 81.4322C120.819 81.6634 121.034 81.8525 121.283 81.9836C121.533 82.1139 121.811 82.1824 122.092 82.1824C122.374 82.1824 122.652 82.1139 122.901 81.9836C123.151 81.8525 123.365 81.6634 123.526 81.4322C123.911 80.92 124.119 80.2971 124.117 79.6561L124.146 79.6907L125.859 77.5214L126.82 76.3004" stroke="#1D1F3F" stroke-width="0.319374" stroke-linecap="round" stroke-linejoin="round"/>
<path d="M126.821 70.9444L124.938 68.5543C125.095 67.8928 125.107 67.2051 124.97 66.5388C124.835 65.8726 124.555 65.2441 124.152 64.697C123.731 64.1278 123.113 63.7349 122.419 63.5942C122.444 63.6208 122.467 63.6488 122.489 63.6778C122.962 64.3235 123.217 65.103 123.217 65.9033C123.217 66.7035 122.962 67.4831 122.489 68.1288C122.293 68.4126 122.031 68.6446 121.725 68.8049C121.42 68.9651 121.08 69.0488 120.735 69.0488C120.39 69.0488 120.05 68.9651 119.744 68.8049C119.439 68.6446 119.176 68.4126 118.981 68.1288C118.955 68.0971 118.935 68.0655 118.914 68.0361C118.994 68.8362 119.295 69.5982 119.783 70.2378C120.113 70.7116 120.59 71.065 121.139 71.2443C121.689 71.4237 122.281 71.4194 122.828 71.2321L124.711 73.6221L126.82 76.2999L129.495 79.6895L129.521 79.6548C129.52 80.2951 129.727 80.9188 130.111 81.431C130.272 81.6622 130.486 81.8513 130.736 81.9824C130.985 82.1127 131.263 82.1812 131.545 82.1812C131.826 82.1812 132.104 82.1127 132.354 81.9824C132.603 81.8513 132.818 81.6622 132.978 81.431C133.364 80.9037 133.572 80.268 133.572 79.6142C133.572 78.9611 133.364 78.3254 132.978 77.7981C132.816 77.5751 132.607 77.3921 132.364 77.2618C132.122 77.1315 131.854 77.0569 131.579 77.0449L131.604 77.0095L128.932 73.6199L126.821 70.9444Z" stroke="#1D1F3F" stroke-width="0.319374" stroke-linecap="round" stroke-linejoin="round"/>
<path d="M124.709 73.6211L125.859 77.5199" stroke="#1D1F3F" stroke-width="0.319374" stroke-linecap="round" stroke-linejoin="round"/>
</svg>
