<svg width="55" height="55" viewBox="0 0 55 55" fill="none" xmlns="http://www.w3.org/2000/svg">
<path d="M27.7686 38.3971V44.2573C27.7687 44.473 27.7262 44.6866 27.6436 44.8858C27.561 45.085 27.4399 45.266 27.2873 45.4184C27.1346 45.5707 26.9534 45.6915 26.754 45.7737C26.5546 45.8559 26.3409 45.8979 26.1252 45.8974H4.39089C4.17545 45.8976 3.96208 45.8553 3.763 45.7729C3.56392 45.6905 3.38302 45.5698 3.23065 45.4174C3.07828 45.2651 2.95742 45.0843 2.875 44.8852C2.79256 44.6861 2.75017 44.4728 2.75024 44.2573V14.5986C2.75155 14.1639 2.92484 13.7474 3.23225 13.4401C3.53967 13.1328 3.95622 12.9597 4.39089 12.9585H8.90089V16.0748C8.90205 16.292 8.98878 16.4999 9.14234 16.6536C9.29585 16.8072 9.50375 16.8941 9.72094 16.8954H20.7946C21.0119 16.8942 21.22 16.8074 21.3736 16.6538C21.5272 16.5001 21.6141 16.2921 21.6152 16.0748V12.9585H26.1252C26.5599 12.9597 26.9765 13.1328 27.2839 13.4401C27.5913 13.7474 27.7646 14.1639 27.7659 14.5986V19.4622" stroke="#020064" stroke-width="0.7" stroke-linecap="round" stroke-linejoin="round"/>
<path d="M27.7664 25.2529V26.5817L26.569 26.0317C26.9507 25.7463 27.3507 25.4862 27.7664 25.2529Z" stroke="#020064" stroke-width="0.7" stroke-linecap="round" stroke-linejoin="round"/>
<path d="M18.7444 15.2549H11.7726" stroke="#020064" stroke-width="0.7" stroke-linecap="round" stroke-linejoin="round"/>
<path d="M25.3059 29.2881C25.1409 29.1649 24.9699 29.034 24.7895 28.9031C24.6993 28.8377 24.6091 28.7717 24.5189 28.698C24.4368 28.6594 24.3573 28.6157 24.2807 28.5671L24.1823 28.4928C24.1193 28.4475 24.0616 28.3953 24.0101 28.3372C23.5998 28.7717 23.1901 29.2397 22.788 29.7397C22.5133 30.0737 22.1179 30.2857 21.6878 30.33C21.2576 30.3742 20.8274 30.247 20.4904 29.9759C20.1535 29.7049 19.937 29.3119 19.8881 28.8822C19.8391 28.4526 19.9616 28.0209 20.2289 27.681C21.657 25.8442 23.3712 24.249 25.3059 22.9565" stroke="#020064" stroke-width="0.7" stroke-linecap="round" stroke-linejoin="round"/>
<path d="M21.6152 15.2549H24.4862C24.7033 15.2561 24.9112 15.343 25.0647 15.4965C25.2182 15.65 25.305 15.8578 25.3063 16.0749V20.5706" stroke="#020064" stroke-width="0.7" stroke-linecap="round" stroke-linejoin="round"/>
<path d="M25.3054 36.5883V41.0911C25.304 41.3081 25.2171 41.5158 25.0636 41.6692C24.9101 41.8226 24.7024 41.9093 24.4854 41.9106H6.03068C5.81371 41.9093 5.60592 41.8226 5.45245 41.6692C5.29895 41.5158 5.21207 41.3081 5.21063 41.0911V16.0749C5.21193 15.8578 5.29875 15.65 5.45225 15.4965C5.60575 15.343 5.8136 15.2561 6.03068 15.2549H8.90168" stroke="#020064" stroke-width="0.7" stroke-linecap="round" stroke-linejoin="round"/>
<path d="M23.8155 32.5054V32.5136L24.1026 32.9151C24.2302 33.0919 24.4226 33.2111 24.6379 33.2464C24.8531 33.2818 25.0735 33.2305 25.251 33.1038L25.306 33.0631" stroke="#020064" stroke-width="0.7" stroke-linecap="round" stroke-linejoin="round"/>
<path d="M8.07574 21.8164H20.6058" stroke="#020064" stroke-width="0.7" stroke-linecap="round" stroke-linejoin="round"/>
<path d="M19.384 25.5073H8.07324" stroke="#020064" stroke-width="0.7" stroke-linecap="round" stroke-linejoin="round"/>
<path d="M8.07574 29.6084H16.8086" stroke="#020064" stroke-width="0.7" stroke-linecap="round" stroke-linejoin="round"/>
<path d="M8.9021 14.3195V12.3841C8.90325 12.1669 8.98999 11.9589 9.14355 11.8053C9.29706 11.6516 9.50496 11.5648 9.72215 11.5635H13.4539" stroke="#020064" stroke-width="0.7" stroke-linecap="round" stroke-linejoin="round"/>
<path d="M17.4724 11.5635H20.7944C21.0117 11.5646 21.2197 11.6515 21.3733 11.8051C21.527 11.9588 21.6138 12.1668 21.615 12.3841V14.3195" stroke="#020064" stroke-width="0.7" stroke-linecap="round" stroke-linejoin="round"/>
<path d="M15.4639 13.2043C16.5962 13.2043 17.5143 12.2863 17.5143 11.1539C17.5143 10.0215 16.5962 9.10352 15.4639 9.10352C14.3315 9.10352 13.4135 10.0215 13.4135 11.1539C13.4135 12.2863 14.3315 13.2043 15.4639 13.2043Z" stroke="#020064" stroke-width="0.7" stroke-linecap="round" stroke-linejoin="round"/>
<path d="M9.32829 33.873C9.11649 34.0848 8.96023 34.3455 8.87328 34.632C8.78632 34.9186 8.77136 35.2222 8.82972 35.5159C8.88813 35.8096 9.01804 36.0844 9.20801 36.3159C9.39798 36.5475 9.64207 36.7285 9.91872 36.8432C10.1954 36.9578 10.4961 37.0025 10.7941 36.9732C11.0921 36.9439 11.3783 36.8415 11.6273 36.6751C11.8764 36.5088 12.0805 36.2836 12.2217 36.0195C12.3629 35.7555 12.4368 35.4606 12.4369 35.1611V35.5219C12.4443 35.9043 12.6014 36.2684 12.8744 36.5361C13.1474 36.8039 13.5145 36.9539 13.8969 36.9539C14.2792 36.9539 14.6464 36.8039 14.9194 36.5361C15.1923 36.2684 15.3494 35.9043 15.3568 35.5219C15.3572 35.821 15.4487 36.1128 15.6192 36.3585" stroke="#020064" stroke-width="0.7" stroke-linecap="round" stroke-linejoin="round"/>
<path d="M28.0537 31.3304C29.4149 32.3066 30.4077 32.9804 31.1788 33.4633L31.0886 35.2002C31.0767 35.415 31.0227 35.6255 30.9295 35.8196C30.8363 36.0135 30.7058 36.1873 30.5455 36.3309C30.3851 36.4745 30.1981 36.5851 29.995 36.6564C29.7919 36.7277 29.5767 36.7583 29.3619 36.7465C29.1469 36.7346 28.9365 36.6806 28.7424 36.5874C28.5484 36.4942 28.3747 36.3637 28.2311 36.2034C28.0875 36.043 27.9769 35.856 27.9056 35.6529C27.8343 35.4498 27.8037 35.2346 27.8155 35.0198L28.0124 31.4189V31.3062" stroke="#020064" stroke-width="0.7" stroke-linecap="round" stroke-linejoin="round"/>
<path d="M28.0537 31.3306L28.0124 31.4208L27.7666 31.8965L26.8563 33.6681C26.7096 33.9475 26.4851 34.1786 26.21 34.3333C25.9349 34.4881 25.6209 34.56 25.3059 34.5404C25.0702 34.5299 24.84 34.4653 24.6332 34.3517C24.3049 34.1795 24.0468 33.8983 23.9034 33.5564" stroke="#020064" stroke-width="0.7" stroke-linecap="round" stroke-linejoin="round"/>
<path d="M27.898 31.2157C27.8568 31.1833 27.8078 31.1503 27.7666 31.1178C27.0692 30.6091 26.2904 30.0266 25.3878 29.3457" stroke="#020064" stroke-width="0.7" stroke-linecap="round" stroke-linejoin="round"/>
<path d="M25.306 33.0612L25.251 33.1019C25.0735 33.2286 24.8531 33.2799 24.6379 33.2445C24.4226 33.2092 24.2302 33.09 24.1026 32.9132L23.8155 32.5117" stroke="#020064" stroke-width="0.7" stroke-linecap="round" stroke-linejoin="round"/>
<path d="M52.2503 34.5372L49.4888 31.7757C49.335 31.622 49.1265 31.5356 48.9091 31.5356C48.6917 31.5356 48.4832 31.622 48.3294 31.7757L40.4996 39.6055C40.3459 39.7594 40.2595 39.968 40.2595 40.1854C40.2595 40.403 40.3459 40.6115 40.4996 40.7654L43.2606 43.5264" stroke="#020064" stroke-width="0.7" stroke-linecap="round" stroke-linejoin="round"/>
<path d="M48.3287 31.7736L40.4961 39.6061L39.3411 38.4418C39.2456 38.3469 39.1753 38.2295 39.1369 38.1005C39.0985 37.9715 39.0931 37.8348 39.1211 37.7031C39.1311 37.653 39.1449 37.6037 39.1624 37.5557C39.2038 37.4544 39.2652 37.3624 39.3428 37.2851L46.0077 30.6169C46.033 30.5902 46.0604 30.5656 46.0896 30.5432C46.2485 30.4225 46.4458 30.3633 46.6449 30.3769C46.844 30.3904 47.0315 30.4757 47.1726 30.6169L48.3287 31.7736Z" stroke="#020064" stroke-width="0.7" stroke-linecap="round" stroke-linejoin="round"/>
<path d="M28.0562 31.3307C28.0523 31.3233 28.0464 31.317 28.039 31.3127C28.0318 31.3085 28.0234 31.3063 28.015 31.3065C27.9806 31.2719 27.9421 31.2414 27.9006 31.2158L28.0562 31.3307ZM27.9468 26.664L27.7664 26.582L27.9468 26.664ZM30.3662 27.7629L27.9462 26.6629L30.3662 27.77C30.5154 27.8419 30.6688 27.9049 30.8255 27.9587C30.6781 27.9026 30.5252 27.8371 30.3662 27.7629Z" stroke="#020064" stroke-width="0.7" stroke-linecap="round" stroke-linejoin="round"/>
<path d="M35.8539 21.0372L31.72 23.9803C30.3208 24.0884 28.9666 24.524 27.7666 25.2519C27.351 25.4853 26.951 25.7456 26.5693 26.0312L25.8801 25.7194C25.7007 25.6325 25.5052 25.5834 25.3059 25.5753C24.9767 25.5529 24.6484 25.6305 24.364 25.798C24.0796 25.9655 23.8525 26.215 23.7124 26.5138C23.5723 26.8125 23.5258 27.1467 23.5789 27.4724C23.632 27.7981 23.7823 28.1002 24.0101 28.339C23.5998 28.7735 23.1901 29.2416 22.788 29.7415C22.5133 30.0755 22.1179 30.2875 21.6878 30.3318C21.2576 30.376 20.8274 30.2488 20.4904 29.9777C20.1535 29.7067 19.937 29.3137 19.8881 28.8841C19.8391 28.4544 19.9616 28.0228 20.2289 27.6829C21.6571 25.8461 23.3713 24.2509 25.3059 22.9584C26.0838 22.4479 26.9075 22.0114 27.7666 21.6543C29.7858 20.7966 31.9936 20.4799 34.1725 20.7353C34.7391 20.7984 35.3008 20.8993 35.8539 21.0372Z" stroke="#020064" stroke-width="0.7" stroke-linecap="round" stroke-linejoin="round"/>
<path d="M28.0537 31.3308C29.415 32.3071 30.4077 32.9808 31.1788 33.4637C32.005 34.0017 32.888 34.4472 33.8117 34.792C36.2394 35.7435 37.3135 36.195 39.1016 37.8104C39.1031 37.7745 39.1086 37.7389 39.1181 37.7042C39.128 37.6539 39.1418 37.6044 39.1593 37.5562C39.2007 37.4549 39.2621 37.3629 39.3397 37.2857L46.0079 30.6175C46.0333 30.5908 46.0607 30.5662 46.0899 30.5438C44.0065 28.7392 43.3916 25.0482 39.832 22.7437L35.2059 26.0244C35.2016 26.3367 35.1077 26.6412 34.9353 26.9017C34.6114 27.3267 34.1891 27.6669 33.7048 27.8926C33.2204 28.1185 32.6884 28.2232 32.1545 28.198C32.0176 28.1977 31.8807 28.1895 31.7448 28.1733C31.4314 28.1364 31.1232 28.0648 30.8257 27.9599C30.6691 27.9061 30.5157 27.8431 30.3665 27.7712L27.9465 26.6641" stroke="#020064" stroke-width="0.7" stroke-linecap="round" stroke-linejoin="round"/>
<path d="M27.8982 31.2157C27.8569 31.1833 27.808 31.1503 27.7667 31.1178C27.0693 30.6091 26.2905 30.0266 25.388 29.3457C25.3573 29.333 25.3294 29.3143 25.306 29.2907C25.141 29.1675 24.97 29.0366 24.7896 28.9057C24.6994 28.8403 24.6092 28.7743 24.519 28.7006C24.4369 28.662 24.3574 28.6183 24.2808 28.5697L24.1824 28.4954C24.1194 28.4501 24.0616 28.3979 24.0102 28.3398C23.7825 28.1009 23.6323 27.7989 23.5792 27.4732C23.5261 27.1474 23.5727 26.8133 23.7127 26.5145C23.8528 26.2157 24.0798 25.9662 24.3642 25.7986C24.6485 25.631 24.9768 25.5533 25.306 25.5755C25.5056 25.5848 25.701 25.6352 25.8802 25.7234L26.5694 26.0353L27.7667 26.5853" stroke="#020064" stroke-width="0.7" stroke-linecap="round" stroke-linejoin="round"/>
<path d="M48.3287 31.7736L40.4961 39.6061L39.3411 38.4418C39.2456 38.3469 39.1753 38.2295 39.1369 38.1005C39.0985 37.9715 39.0931 37.8348 39.1211 37.7031C39.1311 37.653 39.1449 37.6037 39.1624 37.5557C39.2038 37.4544 39.2652 37.3624 39.3428 37.2851L46.0077 30.6169C46.033 30.5902 46.0604 30.5656 46.0896 30.5432C46.2485 30.4225 46.4458 30.3633 46.6449 30.3769C46.844 30.3904 47.0315 30.4757 47.1726 30.6169L48.3287 31.7736Z" stroke="#020064" stroke-width="0.7" stroke-linecap="round" stroke-linejoin="round"/>
<path d="M40.816 21.0947C40.8159 21.389 40.7451 21.6789 40.6096 21.9401C40.474 22.2013 40.2778 22.4261 40.0372 22.5957L39.8321 22.7436L35.206 26.0244L33.5164 27.23L31.3835 24.2198L31.7201 23.9817L35.8539 21.0375L37.8961 19.5855C38.1734 19.3914 38.4986 19.2767 38.8364 19.2541C39.1741 19.2315 39.5117 19.3017 39.8124 19.4572C40.1132 19.6126 40.3656 19.8474 40.5426 20.136C40.7195 20.4247 40.8141 20.7562 40.816 21.0947Z" stroke="#020064" stroke-width="0.7" stroke-linecap="round" stroke-linejoin="round"/>
<path d="M31.6703 22.5053L36.3508 19.18C36.4812 19.0831 36.63 19.0136 36.788 18.9757C36.9461 18.9377 37.1102 18.9322 37.2704 18.9593C37.4307 18.9865 37.5838 19.0457 37.7206 19.1335C37.8573 19.2214 37.9749 19.336 38.0662 19.4704" stroke="#020064" stroke-width="0.7" stroke-linecap="round" stroke-linejoin="round"/>
<path d="M21.8609 34.0048L21.1883 34.4805C21.2213 35.4403 19.2446 35.6861 17.8663 35.7455C17.7787 35.7487 17.6925 35.7234 17.6205 35.6735C17.5485 35.6236 17.4946 35.5516 17.467 35.4685C17.4392 35.3854 17.4392 35.2956 17.4669 35.2124C17.4946 35.1293 17.5484 35.0574 17.6204 35.0074L20.9094 32.6699L21.8609 34.0048Z" stroke="#020064" stroke-width="0.7" stroke-linecap="round" stroke-linejoin="round"/>
<path d="M24.3377 33.2502L23.9032 33.5538L22.6646 34.4305C22.5776 34.4934 22.4691 34.5193 22.363 34.5024C22.2569 34.4855 22.1619 34.4272 22.0987 34.3403L21.8611 34.0043L20.9096 32.6705C20.8779 32.6265 20.8553 32.5766 20.8431 32.5238C20.8309 32.471 20.8293 32.4163 20.8385 32.3628C20.8477 32.3093 20.8674 32.2583 20.8965 32.2125C20.9256 32.1668 20.9635 32.1273 21.008 32.0963L22.6729 30.9072L22.8379 31.1272C22.8567 31.1646 22.8788 31.2003 22.9039 31.2339C22.9061 31.2339 22.9082 31.2348 22.9097 31.2363C22.9113 31.2379 22.9121 31.24 22.9121 31.2422L23.8141 32.5072V32.5154L24.1012 32.9169L24.3377 33.2502Z" stroke="#020064" stroke-width="0.7" stroke-linecap="round" stroke-linejoin="round"/>
<path d="M25.3059 33.0616L27.7666 31.3142L27.8981 31.2158C27.8568 31.1833 27.8079 31.1503 27.7666 31.1179C27.0692 30.6091 26.2904 30.0267 25.3879 29.3458C25.3572 29.333 25.3294 29.3143 25.3059 29.2908C25.1409 29.1676 24.9699 29.0367 24.7895 28.9058L23.1081 30.1031C22.9476 30.2132 22.832 30.3772 22.7822 30.5654C22.7324 30.7535 22.7519 30.9533 22.837 31.1283C22.8558 31.1657 22.8779 31.2014 22.903 31.235C22.9052 31.235 22.9073 31.2359 22.9088 31.2374C22.9103 31.239 22.9112 31.2411 22.9112 31.2433L23.8132 32.5083" stroke="#020064" stroke-width="0.7" stroke-linecap="round" stroke-linejoin="round"/>
<path d="M33.5163 27.2299L32.1545 28.1979C32.0176 28.1976 31.8807 28.1894 31.7448 28.1731C31.4314 28.1363 31.1232 28.0647 30.8257 27.9597C30.6691 27.9059 30.5157 27.843 30.3665 27.7711L27.9465 26.6639L31.3829 24.2197L33.5163 27.2299Z" stroke="#020064" stroke-width="0.7" stroke-linecap="round" stroke-linejoin="round"/>
<path d="M27.9465 26.6639L27.7664 26.582" stroke="#020064" stroke-width="0.7" stroke-linecap="round" stroke-linejoin="round"/>
<path d="M28.0528 31.3308C28.0489 31.3234 28.043 31.3171 28.0357 31.3129C28.0284 31.3086 28.0201 31.3065 28.0117 31.3067C27.9774 31.2721 27.9391 31.2418 27.8977 31.2163" stroke="#020064" stroke-width="0.7" stroke-linecap="round" stroke-linejoin="round"/>
<path d="M27.9465 26.6639L27.7664 26.582" stroke="#020064" stroke-width="0.7" stroke-linecap="round" stroke-linejoin="round"/>
<path d="M28.0528 31.3308C28.0489 31.3234 28.043 31.3171 28.0357 31.3129C28.0284 31.3086 28.0201 31.3065 28.0117 31.3067C27.9774 31.2721 27.9391 31.2418 27.8977 31.2163" stroke="#020064" stroke-width="0.7" stroke-linecap="round" stroke-linejoin="round"/>
</svg>
