<svg width="88" height="88" viewBox="0 0 88 88" fill="none" xmlns="http://www.w3.org/2000/svg">
<path d="M81.8841 32.0896C82.2714 33.7389 82.1133 35.4693 81.4335 37.0211C81.3998 37.1081 81.347 37.1863 81.279 37.2501C81.211 37.314 81.1295 37.3617 81.0406 37.3898C81.0406 37.7277 80.3973 41.099 80.1782 42.6522C80.7502 43.2242 81.3728 45.0449 81.1603 46.5436C80.4677 51.4373 73.136 52.0159 68.1825 52.0933C67.9286 53.0173 66.7419 58.1996 66.3785 59.9253C65.2574 65.2766 64.7012 69.1838 64.4187 70.4255C64.2325 70.9823 64.2224 71.583 64.3897 72.1459C64.4336 72.2791 64.5055 72.4013 64.6006 72.5044C64.6957 72.6075 64.8117 72.6891 64.9409 72.7435C65.0702 72.798 65.2096 72.8242 65.3498 72.8203C65.49 72.8164 65.6277 72.7825 65.7537 72.721C66.4498 72.3157 67.1415 68.8569 67.1863 68.629C68.263 63.1606 68.9085 59.0295 69.6943 53.977C69.3604 54.0203 69.0208 53.979 68.707 53.8568C68.6843 53.8424 68.6662 53.8218 68.6548 53.7974C68.6435 53.773 68.6393 53.7459 68.6428 53.7192C68.6463 53.6926 68.6574 53.6675 68.6747 53.6469C68.6919 53.6263 68.7148 53.611 68.7404 53.603C68.9631 53.5619 69.1922 53.57 69.4114 53.6267C70.6403 53.7627 74.9699 53.8498 77.4053 53.7996C79.1059 53.7644 81.0631 53.3596 81.5171 51.729C81.6694 51.1825 85.797 38.837 85.797 36.1297C85.8001 33.3128 83.8755 31.6791 81.8841 32.0896ZM83.2261 40.9076C82.248 44.7119 82.1411 45.4973 81.8124 46.031C81.8018 46.0474 81.7862 46.06 81.7679 46.0669C81.7496 46.0738 81.7296 46.0746 81.7108 46.0692C81.692 46.0639 81.6754 46.0526 81.6635 46.037C81.6516 46.0215 81.645 46.0026 81.6447 45.983C81.6651 45.4812 81.7539 44.9846 81.9087 44.5068C82.0174 44.0893 82.6567 41.4968 82.8864 40.6199C83.6639 37.6648 84.3076 35.9581 83.4184 32.981C83.4128 32.9619 83.4144 32.9414 83.4229 32.9234C83.4314 32.9055 83.4463 32.8912 83.4646 32.8835C83.4829 32.8758 83.5035 32.8751 83.5223 32.8815C83.5411 32.888 83.5569 32.9012 83.5667 32.9185C85.0081 35.1414 83.6987 39.0711 83.2265 40.9076H83.2261Z" fill="#38A1FF"/>
<path d="M80.6914 53.3638C80.1489 53.6886 79.5453 53.8983 78.9182 53.9798C79.3767 56.4332 81.3527 66.8049 82.1386 69.4977C82.528 70.8304 82.9249 73.0498 84.1899 72.4642C85.3924 71.9076 84.6646 70.1828 84.4776 69.2579C83.4243 64.0421 82.2451 58.4713 80.6914 53.3638Z" fill="#38A1FF"/>
<path d="M62.4558 72.907C60.8956 72.7909 62.3969 72.8806 39.0685 72.6149C38.6826 68.6271 38.885 67.2394 38.6725 45.9069C44.4998 45.8783 59.4625 45.7933 61.1125 45.7634C61.1576 45.7634 61.201 45.7455 61.2329 45.7135C61.2648 45.6816 61.2828 45.6383 61.2828 45.5931C61.2828 45.548 61.2648 45.5047 61.2329 45.4727C61.201 45.4408 61.1576 45.4229 61.1125 45.4229C55.194 45.3203 40.0545 45.3789 38.4059 45.3749C38.3351 45.3764 38.2677 45.4051 38.2177 45.4551C38.1677 45.5052 38.1389 45.5726 38.1375 45.6433C38.1375 45.7089 38.1814 68.9602 38.6166 72.8551C38.6178 72.9183 38.6435 72.9786 38.6882 73.0233C38.7329 73.068 38.7932 73.0937 38.8564 73.0949C44.9667 73.1261 60.7103 73.3884 62.4593 73.2911C62.5103 73.2907 62.5589 73.27 62.5946 73.2336C62.6303 73.1973 62.6501 73.1483 62.6496 73.0973C62.6492 73.0464 62.6285 72.9977 62.5921 72.962C62.5558 72.9263 62.5068 72.9066 62.4558 72.907Z" fill="#191919"/>
<path d="M61.536 45.9882C61.5069 45.8395 61.2808 45.8778 61.2768 46.0216C61.2513 47.0521 61.4871 48.6739 61.7995 56.0761C61.9412 59.4355 62.254 71.0361 62.3552 72.0305C62.3552 72.0718 62.3716 72.1114 62.4009 72.1406C62.4301 72.1698 62.4697 72.1862 62.511 72.1862C62.5523 72.1862 62.5919 72.1698 62.6211 72.1406C62.6503 72.1114 62.6668 72.0718 62.6668 72.0305C62.6901 71.1606 62.2162 49.5139 61.536 45.9882Z" fill="#191919"/>
<path d="M38.6325 45.0551C39.5208 44.5607 40.3735 44.0049 41.1845 43.3919C42.0231 42.8119 47.0448 39.3412 47.4628 39.0499C48.3587 38.4247 48.0577 38.5466 51.1527 38.5466C51.4321 38.5673 51.713 38.5525 51.9887 38.5026C52.023 38.492 52.053 38.4707 52.0743 38.4418C52.0957 38.4129 52.1072 38.3779 52.1072 38.342C52.1072 38.3061 52.0957 38.2711 52.0743 38.2422C52.053 38.2133 52.023 38.192 51.9887 38.1814C51.7599 38.1251 51.7942 38.1374 48.9694 38.1374C47.8381 38.1374 47.7427 38.3574 46.4724 39.2444C39.2177 44.3242 39.0623 44.3841 38.5027 44.9046C38.4265 44.9763 38.537 45.0991 38.6325 45.0551Z" fill="#191919"/>
<path d="M52.929 39.0242C53.1816 39.8457 53.1354 39.5157 55.2197 39.5707C55.3826 39.5901 55.5476 39.5837 55.7085 39.5518C56.0165 39.4585 56.1045 39.1201 56.2163 38.8566C56.7007 37.7089 57.0373 36.5044 57.2182 35.2719C57.2261 35.2401 57.2269 35.2069 57.2203 35.1748C57.2138 35.1426 57.2002 35.1123 57.1804 35.0861C57.1607 35.0599 57.1353 35.0385 57.1062 35.0234C57.0771 35.0082 57.045 34.9998 57.0122 34.9987C56.3553 34.9987 55.6922 34.9938 55.0322 34.989C55.1426 33.9352 55.1955 32.8761 55.1906 31.8166C55.1883 31.7765 55.1738 31.7381 55.1489 31.7067C55.124 31.6752 55.09 31.6521 55.0516 31.6406C55.0039 31.6279 54.9532 31.6343 54.9103 31.6585C54.8673 31.6827 54.8354 31.7227 54.8215 31.77C54.762 32.3093 54.7395 32.852 54.7542 33.3944C54.7288 33.928 54.7368 34.4626 54.7784 34.9952H54.2033C53.7668 32.5941 53.872 32.2619 53.6616 30.7681C53.6436 30.6387 53.4465 30.6774 53.4416 30.7971C53.4125 32.2089 53.5476 33.6194 53.8442 35C53.7562 35 53.6766 35 53.5904 35.0048C53.5904 34.9635 53.1438 33.4648 53.1015 33.3227C52.9665 32.7878 52.7869 32.2652 52.5647 31.7603C52.5534 31.742 52.5365 31.7278 52.5165 31.7198C52.4965 31.7118 52.4745 31.7103 52.4536 31.7157C52.4328 31.721 52.4142 31.7329 52.4005 31.7495C52.3869 31.7662 52.3789 31.7867 52.3777 31.8082C52.5574 32.8971 52.8315 33.9683 53.197 35.0097C53.0008 35.0145 52.8041 35.018 52.6127 35.0242C52.5578 35.0267 52.506 35.0502 52.4681 35.0899C52.4301 35.1296 52.409 35.1825 52.409 35.2374C52.409 35.2923 52.4301 35.3451 52.4681 35.3848C52.506 35.4245 52.5578 35.4481 52.6127 35.4506C53.993 35.4792 55.3728 35.4506 56.7531 35.4312C56.5749 36.6344 56.2398 37.8091 55.7565 38.9252C55.7085 39.0352 55.6804 39.1576 55.5457 39.1892C55.4485 39.2117 55.5752 39.1747 54.5966 39.1747C53.1284 39.1747 53.4188 39.378 53.2788 38.9257C53.1644 38.5565 52.324 35.8219 52.1348 35.403C52.0675 35.2547 51.8651 35.3696 51.8906 35.5086C51.9509 35.8457 52.8287 38.6982 52.929 39.0242Z" fill="#191919"/>
<path d="M63.1846 38.1529C62.6816 38.1014 62.1755 38.0886 61.6705 38.1146C57.5271 38.17 57.2402 38.1771 56.7676 38.2633C56.662 38.2822 56.6576 38.4631 56.7676 38.4789C57.8131 38.6298 62.1141 38.4455 62.9355 38.5229C61.8853 42.9669 61.2635 44.3877 61.2486 44.9878C61.2496 45.015 61.2593 45.0412 61.2763 45.0624C61.2933 45.0837 61.3167 45.0989 61.343 45.1059C61.3693 45.1129 61.3971 45.1113 61.4224 45.1013C61.4477 45.0913 61.4691 45.0734 61.4835 45.0503C61.8989 44.4268 63.1705 39.3743 63.3813 38.4063C63.3878 38.3764 63.3877 38.3455 63.3809 38.3156C63.3742 38.2858 63.3609 38.2578 63.3422 38.2336C63.3234 38.2094 63.2996 38.1897 63.2724 38.1757C63.2451 38.1618 63.2152 38.154 63.1846 38.1529Z" fill="#191919"/>
<path d="M46.1855 41.1907C46.2858 41.0944 46.1609 40.9443 46.0421 41.0037C45.1053 41.4693 43.3805 43.0537 42.6101 43.7643C42.5851 43.7908 42.5684 43.824 42.562 43.8598C42.5556 43.8957 42.5598 43.9326 42.574 43.9661C42.5882 43.9996 42.6119 44.0282 42.6421 44.0485C42.6724 44.0688 42.7079 44.0798 42.7443 44.0802C43.4879 44.1106 49.577 44.2883 50.8433 44.2338C50.8869 44.2316 50.928 44.2127 50.9581 44.181C50.9882 44.1494 51.005 44.1074 51.005 44.0637C51.005 44.0201 50.9882 43.9781 50.9581 43.9464C50.928 43.9148 50.8869 43.8959 50.8433 43.8937C49.5018 43.8057 48.1404 43.8281 46.7953 43.7977C45.5972 43.7705 44.4039 43.7212 43.2058 43.7067C44.5905 42.3999 45.4525 41.8978 46.1855 41.1907Z" fill="#191919"/>
<path d="M51.2465 44.1242C51.7868 43.7185 52.2963 43.2731 52.7706 42.7919C53.2816 42.3246 53.7913 41.8564 54.2996 41.3874C54.325 41.3604 54.3421 41.3267 54.3489 41.2904C54.3557 41.254 54.3519 41.2164 54.338 41.1821C54.3242 41.1478 54.3007 41.1182 54.2705 41.0968C54.2403 41.0754 54.2046 41.0631 54.1676 41.0613C53.1319 40.9733 46.9886 40.5399 46.2503 40.7934C46.2259 40.8004 46.2045 40.8152 46.1892 40.8355C46.174 40.8558 46.1658 40.8804 46.1658 40.9058C46.1658 40.9312 46.174 40.9558 46.1892 40.9761C46.2045 40.9964 46.2259 41.0112 46.2503 41.0182C46.5578 41.0792 46.8721 41.0986 47.1848 41.0759C49.721 41.1146 51.2253 41.2246 53.7122 41.4067C51.6156 43.3498 51.4889 43.3322 51.0524 43.8747C50.9473 44.0023 51.0885 44.2298 51.2465 44.1242Z" fill="#191919"/>
<path d="M48.275 41.4973C47.9067 41.7494 47.6013 42.0151 46.8181 42.6615C46.6791 42.7763 46.526 42.863 46.478 43.0452C46.4733 43.0623 46.4726 43.0803 46.4759 43.0978C46.4792 43.1153 46.4864 43.1317 46.497 43.146C46.5076 43.1603 46.5213 43.172 46.537 43.1802C46.5528 43.1884 46.5702 43.1929 46.588 43.1935C46.7922 43.1825 46.8929 43.065 47.494 42.566C47.8306 42.3015 48.1433 42.0079 48.4285 41.6887C48.5121 41.5901 48.4004 41.4115 48.275 41.4973Z" fill="#191919"/>
<path d="M48.3711 43.0646C48.614 43.0114 48.7342 42.8706 49.6749 41.9206C49.7413 41.8533 49.6551 41.7279 49.5693 41.7816C49.3107 41.9473 49.061 42.1264 48.8213 42.3184C48.5742 42.4671 48.3747 42.6833 48.2462 42.9414C48.218 43.0123 48.2994 43.0805 48.3711 43.0646Z" fill="#191919"/>
<path d="M50.9111 41.7369C50.5943 41.9855 50.2912 42.2337 50.0003 42.5087C49.7803 42.7181 49.3733 42.9927 49.3153 43.3042C49.3111 43.3207 49.3113 43.3381 49.3158 43.3545C49.3203 43.371 49.3291 43.3859 49.3411 43.398C49.3532 43.4101 49.3682 43.4188 49.3846 43.4233C49.4011 43.4279 49.4184 43.4281 49.4349 43.4239C49.7504 43.3706 50.0426 42.9773 50.2595 42.7639C50.5455 42.4801 50.8051 42.1884 51.0647 41.887C51.0745 41.8769 51.0823 41.8649 51.0876 41.8519C51.0928 41.8388 51.0954 41.8248 51.0952 41.8107C51.0951 41.7966 51.0921 41.7827 51.0866 41.7697C51.0811 41.7568 51.073 41.745 51.0629 41.7352C51.0528 41.7253 51.0409 41.7175 51.0278 41.7123C51.0148 41.707 51.0008 41.7044 50.9867 41.7046C50.9726 41.7048 50.9586 41.7077 50.9457 41.7132C50.9327 41.7188 50.921 41.7268 50.9111 41.7369Z" fill="#191919"/>
<path d="M21.1067 25.6073C21.1355 25.5748 21.1568 25.5364 21.1692 25.4948C21.1815 25.4532 21.1846 25.4094 21.1782 25.3664C21.1719 25.3235 21.1562 25.2825 21.1323 25.2462C21.1083 25.21 21.0768 25.1795 21.0398 25.1567C20.9993 25.1284 20.9515 25.1124 20.9021 25.1105C20.8526 25.1087 20.8038 25.1212 20.7613 25.1464C20.7187 25.1717 20.6844 25.2087 20.6624 25.253C20.6404 25.2973 20.6317 25.347 20.6372 25.3961C20.6294 25.4535 20.6404 25.5118 20.6684 25.5625C20.6965 25.6131 20.7402 25.6533 20.7931 25.6771C20.8459 25.7009 20.905 25.7069 20.9615 25.6943C21.018 25.6817 21.069 25.6512 21.1067 25.6073Z" fill="#191919"/>
<path d="M25.4764 31.4859C25.2964 31.368 25.0826 31.3125 24.8679 31.3279C24.1119 31.2818 23.3534 31.3545 22.62 31.5435C22.5047 31.5805 22.5196 31.7732 22.649 31.7635C24.7214 31.6144 25.1614 31.8467 25.4522 31.6962C25.4693 31.6853 25.4838 31.6707 25.4945 31.6535C25.5053 31.6363 25.5121 31.6169 25.5144 31.5968C25.5167 31.5766 25.5145 31.5562 25.5079 31.537C25.5014 31.5179 25.4906 31.5004 25.4764 31.4859Z" fill="#191919"/>
<path d="M24.3764 32.1423C23.9146 32.1143 23.4525 32.1913 23.0248 32.3675C23.0018 32.3815 22.9839 32.4026 22.9739 32.4276C22.964 32.4526 22.9624 32.4801 22.9694 32.5061C22.9765 32.5321 22.9918 32.5551 23.013 32.5716C23.0343 32.5881 23.0603 32.5972 23.0872 32.5977C23.5567 32.584 24.0266 32.5537 24.4913 32.54C25.1931 32.5202 25.344 32.5462 25.4835 32.364C25.497 32.3423 25.5025 32.3165 25.4989 32.2912C25.4954 32.2659 25.4831 32.2426 25.4641 32.2254C25.3484 32.0868 25.2371 32.0886 24.3764 32.1423Z" fill="#191919"/>
<path d="M63.3907 45.0963C63.8918 44.5834 64.5102 44.2001 65.1925 43.9795C66.4495 43.5219 69.537 42.6639 70.0043 42.4365C70.2714 42.278 70.4699 42.0258 70.5612 41.729C70.6524 41.4322 70.6299 41.112 70.498 40.8309C70.4914 40.81 70.4777 40.7921 70.4592 40.7803C70.4407 40.7685 70.4187 40.7636 70.3969 40.7664C70.3752 40.7692 70.3552 40.7796 70.3403 40.7958C70.3255 40.8119 70.3168 40.8328 70.3158 40.8547C70.3595 41.196 70.3217 41.5428 70.2054 41.8667C70.0096 42.2077 69.5155 42.2649 69.1705 42.37C68.3508 42.6199 67.535 42.8655 66.7166 43.1127C65.5141 43.4762 63.5693 43.9083 63.1799 44.9819C63.1363 45.0989 63.3053 45.164 63.3907 45.0963Z" fill="#191919"/>
<path d="M73.0379 24.8814C73.0665 24.8505 73.0855 24.8121 73.0929 24.7707C73.1003 24.7293 73.0957 24.6866 73.0796 24.6478C73.0634 24.6089 73.0365 24.5755 73.002 24.5515C72.9675 24.5274 72.9268 24.5138 72.8848 24.5122C72.8564 24.5121 72.8284 24.5176 72.8021 24.5284C72.7759 24.5392 72.7521 24.5551 72.7321 24.5751C72.712 24.5951 72.6962 24.619 72.6854 24.6452C72.6746 24.6714 72.6691 24.6995 72.6692 24.7278C72.6697 24.7703 72.6826 24.8117 72.7064 24.847C72.7301 24.8822 72.7637 24.9097 72.803 24.926C72.8422 24.9424 72.8854 24.9469 72.9271 24.9389C72.9689 24.931 73.0074 24.911 73.0379 24.8814Z" fill="#191919"/>
<path d="M74.5185 24.7192C74.4671 24.7192 74.4178 24.7397 74.3815 24.776C74.3451 24.8123 74.3247 24.8616 74.3247 24.913C74.3247 24.9644 74.3451 25.0137 74.3815 25.05C74.4178 25.0864 74.4671 25.1068 74.5185 25.1068C74.5699 25.1068 74.6191 25.0864 74.6555 25.05C74.6918 25.0137 74.7122 24.9644 74.7122 24.913C74.7122 24.8616 74.6918 24.8123 74.6555 24.776C74.6191 24.7397 74.5699 24.7192 74.5185 24.7192Z" fill="#191919"/>
<path d="M73.5312 26.3673C73.5593 26.3668 73.5866 26.358 73.6098 26.3421C73.633 26.3263 73.651 26.304 73.6617 26.278C73.6724 26.252 73.6753 26.2235 73.67 26.1959C73.6647 26.1683 73.6515 26.1429 73.632 26.1227C73.5409 26.0316 73.2386 25.9643 73.2628 25.8147C73.5838 25.4145 73.77 24.923 73.7948 24.4106C73.7937 24.3842 73.7832 24.3589 73.7654 24.3394C73.7475 24.3198 73.7233 24.3072 73.697 24.3037C73.6707 24.3002 73.644 24.3061 73.6217 24.3204C73.5993 24.3346 73.5827 24.3563 73.5748 24.3816C73.4509 24.8634 73.2259 25.3134 72.9148 25.7016C72.7128 26.0325 73.225 26.4021 73.5312 26.3673Z" fill="#191919"/>
<path d="M74.1883 26.3812C73.7892 26.8836 73.2757 26.8212 72.9277 26.9611C72.8419 26.9958 72.8177 27.1336 72.9277 27.1578C73.1481 27.1914 73.3731 27.1789 73.5884 27.1211C73.8037 27.0633 74.0047 26.9615 74.1786 26.822C74.2138 27.1179 74.1741 27.4179 74.0633 27.6946C73.9753 27.8961 73.813 28.1222 73.589 27.9339C73.4711 27.81 73.3798 27.6632 73.3206 27.5027C73.2498 27.3584 73.0417 27.4402 73.0333 27.5793C73.0433 27.7143 73.0839 27.8454 73.1519 27.9624C73.22 28.0795 73.3138 28.1796 73.4262 28.2551C73.5293 28.3342 73.6577 28.3729 73.7873 28.3641C73.9169 28.3552 74.0388 28.2995 74.1302 28.2072C74.5847 27.7751 74.5289 27.0152 74.4466 26.4472C74.4394 26.4211 74.4254 26.3974 74.4061 26.3784C74.3868 26.3595 74.3628 26.346 74.3366 26.3393C74.3104 26.3326 74.2829 26.3329 74.2568 26.3403C74.2308 26.3476 74.2071 26.3617 74.1883 26.3812Z" fill="#191919"/>
<path d="M69.7161 35.3311C70.1698 35.4733 70.6467 35.5269 71.1206 35.489C71.1534 35.4796 71.1821 35.4598 71.2026 35.4325C71.2231 35.4053 71.2342 35.3722 71.2342 35.3381C71.2342 35.304 71.2231 35.2709 71.2026 35.2437C71.1821 35.2165 71.1534 35.1966 71.1206 35.1872C70.7328 35.1601 70.347 35.1088 69.9656 35.0336C70.3915 33.1856 71.0876 30.4488 72.951 30.0401C73.0808 30.0115 73.0469 29.8201 72.9224 29.8148C71.8396 29.7796 71.096 30.8831 70.6604 31.7411C70.1631 32.8178 69.804 33.9531 69.5916 35.1199C69.5808 35.1644 69.5878 35.2113 69.6111 35.2507C69.6343 35.2901 69.672 35.319 69.7161 35.3311Z" fill="#191919"/>
<path d="M71.8013 33.7385C71.7933 33.7133 71.7767 33.6916 71.7543 33.6773C71.732 33.6631 71.7053 33.6572 71.6791 33.6606C71.6528 33.6641 71.6286 33.6767 71.6107 33.6963C71.5928 33.7159 71.5824 33.7411 71.5813 33.7676C71.5813 34.4241 71.2913 35.0229 71.1932 35.6653C71.1144 36.1827 71.1052 36.9642 71.4519 37.3954C71.4718 37.4145 71.497 37.4274 71.5241 37.4325C71.5513 37.4375 71.5794 37.4345 71.6049 37.4238C71.6304 37.4131 71.6522 37.3951 71.6676 37.3722C71.683 37.3492 71.6914 37.3223 71.6917 37.2946C71.6547 36.7869 71.3599 36.4423 71.5909 35.4255C71.7871 34.8862 71.859 34.3095 71.8013 33.7385Z" fill="#191919"/>
<path d="M64.5216 36.4758C64.717 36.6685 65.0298 36.9985 65.3079 37.0364C65.3306 37.0414 65.3543 37.0399 65.3762 37.0319C65.3981 37.0239 65.4172 37.0098 65.4313 36.9913C65.4454 36.9728 65.454 36.9506 65.4559 36.9274C65.4578 36.9042 65.453 36.8809 65.4421 36.8604C65.3224 36.6109 64.9823 36.4476 64.7821 36.2664C64.5524 36.0596 64.3949 35.7951 64.1828 35.5808C64.1019 35.499 63.9914 35.5857 64.0068 35.6864C64.0928 35.9964 64.2726 36.2722 64.5216 36.4758Z" fill="#191919"/>
<path d="M65.3511 36.1009C65.4665 36.2406 65.5997 36.3647 65.7471 36.4701C65.7588 36.4763 65.772 36.4794 65.7854 36.4791C65.7987 36.4788 65.8117 36.4751 65.8232 36.4684C65.8347 36.4616 65.8443 36.4521 65.8511 36.4406C65.8578 36.4291 65.8616 36.4161 65.8619 36.4028C65.8619 35.9254 65.4039 35.9289 64.5538 34.7497C64.4873 34.6577 64.303 34.7118 64.3523 34.8377C64.586 35.3285 64.9274 35.7603 65.3511 36.1009Z" fill="#191919"/>
<path d="M65.8015 35.4063C66.0021 35.6224 66.3378 36.0725 66.6735 36.0439C66.6984 36.0425 66.7224 36.0342 66.7427 36.0198C66.763 36.0054 66.7788 35.9856 66.7884 35.9626C66.7979 35.9396 66.8007 35.9143 66.7965 35.8898C66.7923 35.8653 66.7812 35.8424 66.7646 35.8239C66.6559 35.6976 66.4874 35.6259 66.362 35.5075C65.8613 35.0341 65.53 34.6218 65.1784 34.2469C65.1606 34.2297 65.1371 34.2194 65.1123 34.2179C65.0875 34.2165 65.063 34.224 65.0433 34.2391C65.0236 34.2541 65.0099 34.2757 65.0047 34.3C64.9995 34.3243 65.0033 34.3497 65.0152 34.3714C65.2406 34.7428 65.5041 35.0896 65.8015 35.4063Z" fill="#191919"/>
<path d="M68.2365 37.2175C68.2469 37.2529 68.2682 37.2841 68.2975 37.3065C68.3268 37.3289 68.3625 37.3414 68.3993 37.3421C69.1225 37.3098 69.8462 37.3957 70.5417 37.5964C73.9521 38.4368 75.3505 39.8263 76.0575 40.0498C76.1301 40.0727 76.2111 39.983 76.1631 39.9156C75.9547 39.6628 75.6992 39.4529 75.4107 39.2974C72.9318 37.7064 69.9253 36.9258 68.519 37.0019C68.1556 36.0561 67.5859 35.2031 66.8514 34.5049C66.7709 34.4227 66.6178 34.5327 66.6886 34.6295C67.3442 35.4006 67.8672 36.2752 68.2365 37.2175Z" fill="#191919"/>
<path d="M70.5173 35.6981C70.4562 36.0249 70.4611 36.3606 70.5318 36.6854C70.5386 36.7062 70.5517 36.7243 70.5694 36.7372C70.587 36.75 70.6083 36.7569 70.6301 36.7569C70.652 36.7569 70.6733 36.75 70.6909 36.7372C70.7086 36.7243 70.7217 36.7062 70.7285 36.6854C70.7739 36.3582 70.7786 36.0265 70.7426 35.6981C70.7426 35.6682 70.7307 35.6396 70.7096 35.6184C70.6884 35.5973 70.6598 35.5854 70.6299 35.5854C70.6 35.5854 70.5714 35.5973 70.5503 35.6184C70.5291 35.6396 70.5173 35.6682 70.5173 35.6981Z" fill="#191919"/>
<path d="M82.2365 30.0772C81.818 29.826 81.7019 29.3002 81.5945 28.8597C81.0824 26.7561 81.6209 25.4277 81.8198 23.7174C82.0328 21.8822 81.4603 19.134 79.1798 19.016C78.8125 18.9995 78.4465 19.0694 78.1111 19.22C77.7757 19.3706 77.4803 19.5978 77.2486 19.8833C77.511 19.9607 77.7349 20.1333 77.8765 20.3673C78.1445 20.8596 77.8941 21.2081 77.6895 21.1386C77.5619 21.0946 77.6042 20.9437 77.3538 20.6546C75.5124 18.5285 71.4406 20.5604 72.5279 23.1516C72.5523 23.1887 72.5795 23.2238 72.6093 23.2568C72.11 24.552 71.9022 25.9413 72.0008 27.3259C72.1328 28.2424 72.5904 29.228 73.4862 29.2478C73.6182 29.6856 73.4193 29.7996 73.5302 29.9808C73.6129 30.1168 73.8976 30.0763 73.8756 29.5928C73.8699 29.466 73.8423 29.3411 73.7942 29.2236C74.0995 29.1591 74.3851 29.0235 74.628 28.8276C75.082 28.4377 75.4846 27.9916 75.8261 27.5001C75.783 27.9259 75.9066 28.3517 76.1711 28.6881C76.1905 28.7199 76.2196 28.7446 76.2542 28.7584C76.2888 28.7722 76.327 28.7744 76.3629 28.7647C76.3881 28.7579 76.4113 28.7454 76.4308 28.7281C76.4502 28.7109 76.4654 28.6893 76.4752 28.6652C76.4849 28.641 76.4889 28.615 76.4868 28.589C76.4847 28.5631 76.4767 28.5379 76.4632 28.5156C76.217 28.2045 76.0821 27.8199 76.08 27.4231C76.0805 27.4054 76.0769 27.3878 76.0693 27.3718C76.0617 27.3558 76.0504 27.3418 76.0363 27.3311C76.0223 27.3203 76.0059 27.313 75.9884 27.3098C75.971 27.3066 75.9531 27.3076 75.9361 27.3127C75.9663 27.2583 75.9935 27.2024 76.0175 27.145C76.4782 27.4024 77.0757 26.9343 77.0242 26.2105C77.5805 26.0639 78.0705 25.7327 78.4138 25.2711C78.4956 26.5167 78.6888 28.0963 79.3774 29.129C78.5658 28.7163 77.6604 28.523 76.751 28.5684C76.7172 28.5687 76.684 28.5777 76.6546 28.5945C76.6253 28.6113 76.6007 28.6353 76.5834 28.6644C76.3225 29.3273 75.8661 29.8951 75.2748 30.2924C74.9937 30.4671 74.6613 30.5406 74.3327 30.5005C74.0042 30.4605 73.6991 30.3095 73.4682 30.0724C73.3529 29.9478 73.1368 30.1111 73.2332 30.2545C73.4629 30.5547 73.7894 30.766 74.1573 30.8524C74.5252 30.9389 74.9117 30.8952 75.251 30.7288C75.9862 30.3545 76.5626 29.7287 76.8755 28.9653C77.7185 28.9312 78.5541 29.1354 79.2863 29.5545C80.9213 30.647 82.0072 33.3508 80.748 36.5857C79.2544 36.264 77.7264 36.1303 76.1997 36.1875C76.6133 35.1244 76.7774 34.9515 76.9428 34.453C77.0044 34.2656 76.7514 34.1943 76.6502 34.328C76.2698 34.9721 75.949 35.6496 75.6919 36.352C75.6837 36.383 75.6826 36.4154 75.6888 36.4468C75.695 36.4783 75.7083 36.5079 75.7277 36.5333C75.7472 36.5588 75.7721 36.5795 75.8008 36.5939C75.8294 36.6082 75.861 36.6158 75.893 36.616C76.0514 36.6108 76.2045 36.6068 76.3629 36.602C76.2336 36.9614 76.1429 37.3407 75.9889 37.6945C75.6638 38.4381 75.4442 38.5578 75.4473 38.8499C75.4476 38.8639 75.451 38.8777 75.4573 38.8902C75.4636 38.9028 75.4725 38.9138 75.4836 38.9224C75.4946 38.9311 75.5074 38.9372 75.521 38.9403C75.5347 38.9435 75.5489 38.9436 75.5626 38.9406C75.742 38.8499 75.8818 38.6964 75.9555 38.5094C76.2998 37.9181 76.5428 37.2734 76.6744 36.602C77.805 36.596 78.934 36.6891 80.0484 36.88C79.6025 38.2441 78.9284 39.5226 78.0547 40.661C77.3947 41.4684 76.5178 42.2982 73.8466 41.6677C71.6527 41.1498 69.9521 39.7704 68.2779 38.2797C68.0038 38.0359 66.4739 38.6708 65.388 38.1411C65.0507 37.964 64.7485 37.7268 64.4966 37.441C64.061 36.9764 64.0222 36.789 63.7679 36.693C63.7481 36.688 63.7275 36.6876 63.7075 36.6918C63.6876 36.6959 63.6688 36.7045 63.6527 36.717C63.6365 36.7294 63.6234 36.7454 63.6143 36.7637C63.6053 36.7819 63.6005 36.802 63.6003 36.8224C63.6276 37.0018 63.7137 37.167 63.8449 37.2923C64.209 37.807 64.6921 38.2262 65.2529 38.5142C66.1128 38.8449 67.0639 38.8499 67.9272 38.5283C69.1309 39.6861 70.4928 40.6673 71.9722 41.4424C71.7552 41.4604 71.8899 41.7733 71.9194 42.2617C71.368 42.1468 71.0394 42.9217 70.9074 43.4743C69.4457 43.7264 66.0911 44.3904 64.6594 44.9122C63.188 45.4477 62.5245 46.0778 62.0378 46.8196C62.3238 49.2616 62.5733 54.9733 62.6609 57.5116C63.3548 59.6236 64.215 61.6736 65.1689 64.322C65.2274 64.4843 65.4989 64.523 65.538 64.322C65.6577 63.7033 65.7862 62.877 65.978 62.2513C66.8787 63.8952 67.8128 65.5227 68.7382 67.1542C68.7596 67.1907 68.7922 67.2192 68.8311 67.2356C68.87 67.252 68.9132 67.2554 68.9542 67.2453L69.3911 67.072C69.4527 67.3726 69.541 67.6671 69.6551 67.952C69.5444 67.9849 69.4427 68.0426 69.3575 68.1207C69.2724 68.1987 69.2061 68.2951 69.1636 68.4025C68.954 68.8685 68.6918 69.309 68.3822 69.7155C67.3126 71.0588 66.4748 71.1235 65.7369 71.6994C64.999 72.2754 65.146 73.1875 65.4448 73.1805C66.0392 73.166 66.638 73.1259 67.232 73.0991C69.278 73.0058 69.2516 73.1541 69.9398 72.0734C70.1994 71.6664 70.4577 71.2634 70.697 70.8467C70.7067 71.4693 70.7212 72.0875 70.7261 72.7106C70.7272 72.7569 70.7461 72.801 70.7789 72.8338C70.8116 72.8665 70.8558 72.8854 70.9021 72.8866C71.3421 72.861 71.7821 72.8104 72.2221 72.7546C72.2598 72.7442 72.293 72.7216 72.3164 72.6903C72.3398 72.659 72.3522 72.6207 72.3514 72.5816C72.3695 71.3037 72.3168 70.0258 72.1935 68.7536C72.1587 68.4135 72.1974 67.6862 71.7667 67.5555C71.3038 67.4147 71.8292 68.0153 71.09 66.4018C71.1295 66.3801 71.1614 66.3466 71.1814 66.3061C71.2013 66.2656 71.2082 66.2199 71.2013 66.1752C70.261 60.8574 69.4884 56.6404 67.6307 51.8361C67.6643 51.8185 67.6925 51.792 67.7121 51.7595C72.5662 51.6988 80.0976 51.2355 80.7528 46.5306C80.9134 45.3751 80.4448 43.3014 79.7408 42.85C79.985 41.0433 80.374 39.2648 80.6274 37.4635C80.633 37.4368 80.6282 37.409 80.6141 37.3857C80.5999 37.3624 80.5775 37.3454 80.5512 37.338C80.525 37.3307 80.4969 37.3336 80.4727 37.3462C80.4486 37.3588 80.4301 37.3801 80.421 37.4058C79.9058 39.1524 79.5523 40.9427 79.365 42.754C79.2546 42.7637 79.145 42.7888 79.0342 42.802C77.6187 42.9705 73.0277 42.897 72.2142 42.3946C72.2142 41.0693 71.3883 41.5075 73.5465 42.0593C74.5799 42.3497 75.6704 42.3712 76.7145 42.1218C77.7344 41.8415 78.3715 40.947 78.9237 40.0978C79.5888 39.1584 80.0313 38.08 80.2178 36.9443C80.4092 36.9777 80.601 37.0156 80.7928 37.0596C80.8468 37.0728 80.9038 37.0648 80.952 37.0371C81.0002 37.0094 81.0358 36.9642 81.0516 36.9108C81.9681 34.636 81.9861 32.1452 80.5236 30.2158C81.0335 30.4694 81.6112 30.5534 82.1722 30.4556C82.2114 30.4453 82.2467 30.4239 82.274 30.394C82.3013 30.3641 82.3195 30.327 82.3263 30.2871C82.333 30.2472 82.3282 30.2062 82.3122 30.1689C82.2963 30.1317 82.27 30.0999 82.2365 30.0772ZM76.1244 26.7517C76.0034 26.5559 75.6981 26.7182 75.7843 26.9096C75.4961 27.2176 74.9769 28.113 74.2747 28.5966C73.5482 29.0969 72.8768 28.9231 72.5147 27.8926C72.2939 27.135 72.2562 26.3357 72.4047 25.5606C72.4993 24.8148 72.6315 24.0742 72.8007 23.3417C72.8671 23.3333 74.1255 22.3455 75.2928 23.3417C75.9678 23.9176 76.0232 24.85 75.9159 25.6737C75.8952 25.8316 76.0065 25.9817 76.1799 25.9377C76.5191 25.8466 76.6964 25.9874 76.678 26.2972C76.6687 26.4969 76.3528 27.1213 76.1244 26.7517ZM78.6355 25.0502C78.6184 25.0803 78.591 25.1032 78.5583 25.1147C78.5256 25.1262 78.4899 25.1254 78.4577 25.1126C78.4255 25.0998 78.3991 25.0758 78.3832 25.045C78.3674 25.0142 78.3632 24.9787 78.3715 24.945C78.583 24.353 78.6759 23.725 78.6448 23.097C78.5987 22.451 78.4157 21.8221 78.108 21.2521C78.0947 21.2274 78.0915 21.1985 78.0991 21.1715C78.1066 21.1445 78.1243 21.1214 78.1485 21.1072C78.1726 21.0929 78.2014 21.0885 78.2287 21.095C78.256 21.1014 78.2797 21.1181 78.295 21.1417C79.1433 22.3957 79.1472 24.1772 78.6355 25.0498V25.0502ZM71.2875 67.7416C71.101 68.0149 71.0552 68.1126 70.9408 68.1922C70.8628 68.258 70.7656 68.2969 70.6637 68.303C70.5618 68.3091 70.4607 68.2821 70.3754 68.2261C70.2543 68.0978 70.1046 67.9999 69.9385 67.9405C69.8911 67.6034 69.7959 67.2748 69.6556 66.9646C71.0614 66.4076 70.5681 66.6051 70.8158 66.5052C71.1102 67.2642 71.1186 67.5476 71.2858 67.7412L71.2875 67.7416ZM74.2764 45.0253C74.3195 45.0275 74.36 45.0462 74.3897 45.0774C74.4194 45.1087 74.4359 45.1501 74.4359 45.1932C74.4359 45.2363 74.4194 45.2777 74.3897 45.309C74.36 45.3402 74.3195 45.3588 74.2764 45.361C70.8176 45.508 65.2415 45.933 63.5268 48.9409C62.2948 51.1013 63.2962 54.293 64.0108 56.5947C64.8987 59.4547 65.4676 60.4227 65.9376 61.7898C65.9754 61.8998 65.8122 61.9578 65.7554 61.8663C64.8798 60.4583 63.8454 57.4223 63.3829 55.8326C62.8813 54.1113 62.3485 52.3056 62.6068 50.4936C63.0657 47.2711 66.3877 45.889 69.5843 45.2576C71.1292 44.9611 72.708 44.8827 74.2747 45.0249L74.2764 45.0253Z" fill="#191919"/>
<path d="M17.2434 24.1153C17.3587 24.0911 17.3442 23.9288 17.2434 23.8953C16.6059 23.681 16.4237 24.6482 16.568 25.0745C16.6558 25.3205 16.8245 25.5294 17.0465 25.6669C17.2685 25.8045 17.5306 25.8626 17.7899 25.8318C17.8233 26.0808 17.8559 26.3254 17.881 26.5745C17.8904 26.8559 17.9209 27.1362 17.9721 27.4131C18.0266 27.6234 18.3087 27.557 18.3315 27.3652C18.3105 26.7578 18.248 26.1526 18.1445 25.5537C18.1306 25.5039 18.0978 25.4615 18.0531 25.4355C18.0084 25.4096 17.9553 25.4021 17.9052 25.4146C16.8787 25.6998 16.5267 24.2658 17.2434 24.1153Z" fill="#191919"/>
<path d="M21.7248 21.5894C21.6627 21.4302 21.3244 20.5634 21.2315 20.4155C21.6302 19.9584 21.9449 19.4343 22.1612 18.8676C22.2587 18.6031 22.269 18.3142 22.1904 18.0434C22.1119 17.7727 21.9487 17.5341 21.7248 17.3628C21.2161 17.0381 20.5596 17.2365 20.0765 17.5159C19.5243 17.8354 19.0601 18.2916 18.4899 18.5798C17.8189 18.9191 17.1052 18.7814 16.3911 18.8817C16.0926 18.906 15.8062 19.01 15.5617 19.1828C15.3172 19.3557 15.1236 19.591 15.0011 19.8642C14.3785 21.307 15.3364 22.9072 16.2617 23.9716C16.3528 24.0961 16.5477 23.9386 16.4676 23.8084C15.8468 22.7964 15.0156 21.7404 15.2356 20.4644C15.2639 20.1891 15.379 19.9298 15.5642 19.7242C15.7494 19.5186 15.9952 19.3771 16.2661 19.3204C16.8601 19.1884 17.4832 19.3107 18.0776 19.1721C19.1912 18.9116 19.9344 17.8468 20.8496 17.6479C20.9741 17.6101 21.1064 17.6053 21.2333 17.6343C21.3603 17.6632 21.4775 17.7247 21.5733 17.8128C21.6692 17.9009 21.7404 18.0124 21.7799 18.1365C21.8194 18.2605 21.8259 18.3927 21.7987 18.52C21.7514 18.8055 21.6453 19.078 21.4872 19.3204C21.0577 20.0552 20.8971 20.2972 20.1834 20.5136C19.1311 20.832 18.0487 21.0408 16.9534 21.1367C16.8337 21.1472 16.6868 21.2687 16.7475 21.4099C17.0555 22.1139 17.2988 22.8412 16.9631 23.5906C16.89 23.7534 17.092 23.9496 17.2271 23.7965C17.7951 23.1523 17.5531 22.2728 17.2605 21.5397C18.2395 21.4363 20.3792 21.0496 21.0225 20.5955C21.1959 21.4244 22.1546 23.2355 22.3166 24.7649C22.3897 25.1058 22.3615 25.4607 22.2352 25.7857C21.9329 26.3344 21.0282 26.4228 20.0594 26.6336C19.8576 26.6498 19.6615 26.7087 19.4843 26.8065C19.462 26.8208 19.4443 26.841 19.4332 26.865C19.4221 26.8889 19.4181 26.9155 19.4216 26.9417C19.4251 26.9679 19.4361 26.9925 19.4531 27.0126C19.4701 27.0328 19.4925 27.0477 19.5177 27.0556C20.1323 26.9859 20.7409 26.8717 21.3389 26.7137C21.5426 27.1387 21.606 27.6188 21.8277 27.4916C22.0402 27.3697 21.7261 26.8954 21.5483 26.653C22.8424 26.253 23.23 25.4443 21.7248 21.5894Z" fill="#191919"/>
<path d="M18.514 23.6504C18.579 23.709 18.6567 23.7519 18.7409 23.7758C18.8252 23.7996 18.9137 23.8038 18.9999 23.7881C19.086 23.7723 19.1673 23.737 19.2377 23.6848C19.308 23.6326 19.3654 23.565 19.4054 23.4872C19.4728 23.3389 19.5049 23.0718 19.3672 22.9552C19.3527 22.9412 19.3353 22.9307 19.3162 22.9245C19.2971 22.9182 19.2768 22.9165 19.2569 22.9193C19.237 22.9221 19.218 22.9294 19.2013 22.9406C19.1847 22.9519 19.1708 22.9668 19.1608 22.9842C19.0495 23.1541 19.233 23.4792 18.9069 23.4872C18.6671 23.4933 18.5963 23.2408 18.4036 23.1664C18.2997 23.1259 18.1822 23.3728 18.514 23.6504Z" fill="#191919"/>
<path d="M20.9286 22.8161C20.8186 22.8095 20.7314 22.6779 20.6461 22.6242C20.6271 22.6133 20.6052 22.6082 20.5834 22.6096C20.5615 22.6111 20.5405 22.6189 20.5231 22.6322C20.5056 22.6455 20.4925 22.6637 20.4853 22.6844C20.4782 22.7051 20.4773 22.7275 20.4828 22.7488C20.5176 22.8635 20.5899 22.9632 20.6881 23.0319C20.7863 23.1006 20.9048 23.1343 21.0245 23.1276C21.1449 23.0985 21.2493 23.0237 21.3155 22.919C21.3817 22.8143 21.4045 22.6879 21.3791 22.5666C21.3571 22.3563 21.0271 22.3558 21.0487 22.5666C21.0584 22.659 21.0632 22.8236 20.9286 22.8161Z" fill="#191919"/>
<path d="M19.6637 21.9735C19.5867 21.9163 19.5105 22.021 19.544 22.0932C19.7459 22.5288 20.0531 22.9217 20.2964 23.3344C20.8072 24.2021 20.6858 24.0938 20.4209 24.1106C20.2819 24.1194 20.1428 24.1172 20.0038 24.1251C19.958 24.1251 19.9142 24.1432 19.8818 24.1756C19.8495 24.2079 19.8313 24.2518 19.8313 24.2976C19.8313 24.3433 19.8495 24.3872 19.8818 24.4195C19.9142 24.4519 19.958 24.47 20.0038 24.47C20.2037 24.4785 20.404 24.4722 20.6031 24.4511C20.7205 24.4585 20.8374 24.4301 20.9383 24.3697C21.1583 24.1766 20.9581 23.8083 20.8569 23.6028C20.5876 22.9764 20.1796 22.4193 19.6637 21.9735Z" fill="#191919"/>
<path d="M23.1198 29.7121C22.6504 29.5203 22.1708 29.3478 21.6819 29.1995C21.6819 29.1947 21.6868 29.1947 21.6868 29.1899C21.7646 29.0425 22.3908 27.4514 22.4392 27.3159C22.5021 27.1342 22.2051 27.0048 22.1232 27.1839C21.8896 27.6877 21.6986 28.2135 21.4954 28.7318C21.4368 28.8801 21.4074 29.0838 21.2076 29.0579C21.0846 29.0247 20.9657 28.9781 20.853 28.9188C19.6419 28.477 18.4858 27.8972 17.4073 27.1909C17.2247 27.0862 16.6681 28.0833 16.4728 28.3891C16.3047 28.6531 16.7082 28.5721 20.4455 31.0823C20.5188 30.9916 20.6007 30.9082 20.6902 30.8333C19.4344 29.9801 18.15 29.1652 16.8274 28.4133C16.9999 28.1211 17.1715 27.8329 17.3211 27.5333C17.3928 27.3881 17.0729 27.4893 18.7348 28.3671C19.5311 28.7674 20.3486 29.1239 21.1838 29.4349C21.2278 29.4349 21.2155 29.3861 20.8723 30.7004C21.0045 30.6066 21.1457 30.5262 21.2938 30.4606C21.3752 30.1526 21.4571 29.8424 21.5385 29.5366C23.2664 30.0487 22.7238 30.0734 23.4842 30.0734C23.4083 29.25 23.2908 28.431 23.1322 27.6195C23.0952 27.4373 22.7802 27.4756 22.8013 27.6635C22.8875 28.3349 23.0098 29.0222 23.1198 29.7121Z" fill="#191919"/>
<path d="M38.1203 72.9553C37.9922 72.9553 32.9956 72.8862 31.6553 72.8788C31.2008 72.8761 31.3627 73.0156 31.0129 71.9922C31.0016 71.9566 30.9792 71.9256 30.9491 71.9036C30.919 71.8816 30.8826 71.8698 30.8453 71.8698C30.808 71.8698 30.7717 71.8816 30.7415 71.9036C30.7114 71.9256 30.689 71.9566 30.6777 71.9922C30.5945 72.3002 30.51 72.6055 30.4282 72.9122C29.9825 72.8739 29.5416 72.8356 29.0959 72.8018C29.509 70.5688 29.7779 70.0962 29.8579 69.2554C29.8573 69.2319 29.8491 69.2093 29.8346 69.1909C29.82 69.1726 29.7999 69.1594 29.7772 69.1535C29.7546 69.1475 29.7306 69.1491 29.7089 69.1579C29.6871 69.1668 29.6689 69.1824 29.6569 69.2026C29.2635 69.9893 28.8693 72.0392 28.7029 72.917C28.6963 72.9438 28.6957 72.9716 28.7012 72.9986C28.7067 73.0256 28.7181 73.051 28.7346 73.073C28.7511 73.095 28.7723 73.1131 28.7967 73.1259C28.821 73.1388 28.8479 73.146 28.8754 73.1472C29.4355 73.203 29.9921 73.247 30.5531 73.2862C30.5924 73.2861 30.6305 73.2732 30.6617 73.2493C30.6928 73.2255 30.7153 73.1921 30.7256 73.1542C30.7696 72.987 30.8136 72.8238 30.855 72.6561C30.8844 72.7962 30.9328 72.9317 30.9989 73.0587C31.1599 73.3135 31.588 73.2347 31.8375 73.2409C32.6805 73.2664 38.1396 73.3412 38.1537 73.3412C38.1489 73.2994 38.1203 73.0024 38.1203 72.9553Z" fill="#191919"/>
<path d="M33.3658 69.9215C33.1358 69.6218 32.8187 69.4007 32.4581 69.2883C32.5047 68.8694 32.6341 67.6753 32.6812 67.2318C33.7512 67.2942 34.9494 67.3638 35.8197 67.4104C35.869 67.4096 35.9161 67.3896 35.951 67.3548C35.9859 67.3199 36.0059 67.2727 36.0067 67.2234C36.0067 59.0042 35.8681 55.0323 36.5386 51.3029C36.9698 51.9211 37.3962 52.5393 37.8278 53.1509C37.7988 50.6732 37.7728 48.138 37.7702 45.6366C37.7707 45.4913 37.8195 45.3503 37.9088 45.2358C37.9982 45.1212 38.1231 45.0396 38.2639 45.0038C37.4758 43.609 36.1668 41.3391 34.5978 41.2031C34.321 41.1848 34.0432 41.2173 33.7781 41.299C33.94 41.1104 34.0785 40.9028 34.1904 40.6808C34.9498 39.1928 34.5965 37.5049 34.2093 35.8884C33.3112 32.1352 31.9142 30.0364 29.3904 27.5882C28.8669 27.0721 28.3156 26.5849 27.7391 26.1287C26.966 25.536 26.1111 25.1664 25.1805 25.4551C24.6494 25.6201 22.746 26.8191 23.2106 27.1086C23.2137 27.1227 23.6594 29.097 23.8768 30.0654C24.0612 30.0778 24.241 30.1285 24.4048 30.2141C24.5315 30.2743 24.6299 30.3814 24.6791 30.5127C24.7284 30.6441 24.7247 30.7895 24.6688 30.9181C24.7158 30.9181 25.0375 30.93 25.1242 30.9419C25.6077 30.8192 26.1076 30.7747 26.6052 30.8099C26.7583 30.8187 26.8903 30.8099 26.9981 30.9419C27.0166 30.9612 27.0269 30.9869 27.0269 31.0136C27.0269 31.0403 27.0166 31.066 26.9981 31.0853C26.7948 31.2565 26.7614 31.0946 25.7186 31.1733C25.7755 31.2197 25.8218 31.2776 25.8547 31.3432C25.8876 31.4088 25.9063 31.4806 25.9094 31.5539C25.9126 31.6272 25.9002 31.7004 25.8731 31.7685C25.8459 31.8367 25.8047 31.8984 25.752 31.9495C25.7736 31.9683 25.7915 31.991 25.8048 32.0164C25.8854 31.9358 26.1128 31.9548 26.2506 31.9495C26.6747 31.9336 26.6976 32.2218 26.2506 32.2135C26.1252 32.2219 25.9992 32.2123 25.8766 32.1849C25.904 32.326 25.878 32.4723 25.8036 32.5953C25.7292 32.7184 25.6117 32.8094 25.474 32.8506C25.4998 32.8958 25.5192 32.9444 25.5316 32.9949C25.7238 32.9415 25.9191 32.8998 26.1164 32.87C26.1406 32.8638 26.166 32.8631 26.1905 32.8682C26.215 32.8732 26.238 32.8838 26.2579 32.899C26.2777 32.9143 26.2938 32.9339 26.305 32.9563C26.3161 32.9787 26.3221 33.0033 26.3223 33.0284C26.2783 33.7473 27.52 34.1499 27.3382 34.4513C27.8126 34.1495 28.3062 33.8767 28.7999 33.5986C28.4928 33.3064 28.3064 32.9096 28.2776 32.4867C28.1782 31.5834 28.5174 31.0787 28.3111 30.7087C28.029 30.2049 27.252 30.2278 26.7583 30.2344C26.4598 30.2361 26.1624 30.2713 25.8717 30.3395C25.6315 30.4371 25.3737 30.4845 25.1145 30.4786C25.0955 30.4728 25.078 30.4629 25.0634 30.4495C25.0487 30.4361 25.0373 30.4195 25.03 30.4011C25.0226 30.3827 25.0195 30.3628 25.0209 30.343C25.0222 30.3232 25.0281 30.304 25.0379 30.2867C25.2579 29.9061 26.2387 29.812 26.6769 29.8027C27.2282 29.7913 27.9177 29.7935 28.3687 30.1622C28.8906 30.589 28.7326 31.1496 28.6657 31.7343C28.5977 32.0313 28.5999 32.34 28.6721 32.636C28.7442 32.9319 28.8844 33.207 29.0815 33.4393C29.1484 33.401 29.2201 33.3628 29.2874 33.3196C29.3139 33.3034 29.3444 33.2948 29.3754 33.2948C29.4065 33.2948 29.437 33.3034 29.4634 33.3196C30.6481 34.052 31.7119 34.9639 32.6169 36.0226C32.9295 36.3345 33.1814 36.7018 33.3596 37.1058C33.4036 37.2352 33.2395 37.2928 33.1537 37.2255C32.5747 36.7701 31.927 35.3278 29.3675 33.684C28.5386 34.1534 27.7144 34.666 26.8468 35.0546C26.8028 35.0691 28.686 39.0436 30.2158 40.7002C30.4315 40.977 30.703 41.2054 31.0126 41.3705C31.3223 41.5356 31.6632 41.6337 32.0132 41.6585C32.1571 41.6867 32.1184 41.8693 32.0132 41.9124C31.3708 42.1764 30.6052 41.6158 30.1586 41.1987C29.0996 40.0831 28.2316 38.8007 27.5895 37.4028C27.2281 36.6944 26.9145 35.9627 26.6505 35.2125C26.6522 35.09 26.6823 34.9695 26.7385 34.8605C26.8982 34.7479 27.0593 34.6405 27.2225 34.5345C27.0404 34.5587 26.9101 34.4108 26.7768 34.3048C26.3901 34.0572 26.1124 33.6716 26.0002 33.2264C25.3996 33.3016 25.5716 33.2114 25.5162 33.3223C25.3279 33.698 25.1312 33.6127 24.6107 33.7104C24.6252 33.7544 25.074 36.6535 25.2623 40.3962C24.7449 39.8353 24.2065 39.2953 23.6471 38.7761C23.67 38.6357 23.7958 36.9162 23.8103 35.8048C23.8103 35.6406 23.6317 35.6068 23.508 35.5509C23.5305 35.5069 23.772 34.9243 23.8341 34.7408C23.9902 34.3128 23.98 33.8417 23.8055 33.4208C24.227 33.3685 24.6534 33.3236 25.0753 33.258C25.2333 33.2338 25.1809 33.0068 25.0419 32.994C24.5264 32.9611 24.0089 32.9853 23.4988 33.0662C23.3642 33.0838 23.2405 33.2237 23.3307 33.3584C23.8174 34.0817 23.3681 34.8407 23.1248 35.3951C22.2523 35.0678 21.3094 34.7919 21.2654 34.7818C21.5769 33.4754 20.5952 32.4682 21.1215 31.6952C21.5333 31.091 22.7253 30.9379 23.4508 30.919C23.721 30.9581 23.9962 30.9432 24.2604 30.875C24.2806 30.8632 24.2978 30.8469 24.3106 30.8273C24.3234 30.8078 24.3316 30.7855 24.3344 30.7623C24.3372 30.7391 24.3346 30.7155 24.3268 30.6935C24.319 30.6714 24.3062 30.6515 24.2895 30.6352C24.0342 30.4884 23.7387 30.4267 23.446 30.4592C22.6043 30.4306 21.4559 30.6172 20.8531 31.2261C20.6546 31.4683 20.5239 31.7588 20.4743 32.068C20.4246 32.3772 20.4579 32.694 20.5706 32.9861C20.8482 34.0443 20.843 33.8661 20.8051 34.7879C20.7704 34.8041 20.7382 34.825 20.7092 34.85C20.6397 34.762 17.271 30.0658 16.516 28.965C15.2589 27.1315 15.7368 27.7871 15.5295 27.4993C15.401 27.3211 15.0922 27.3911 14.8867 27.4113C12.8037 27.6234 11.075 29.2593 11.0332 32.7164C10.983 36.9237 11.9105 43.195 15.2316 45.7523C16.0605 46.411 17.0094 46.9025 18.0256 47.1994C18.082 47.3248 18.14 47.4511 18.1977 47.577C19.2097 47.382 20.623 47.338 23.0962 47.2808C26.588 47.2003 30.5542 46.8615 31.9842 50.0603C32.9167 49.554 33.7948 48.9535 34.6048 48.2682C34.6257 48.2485 34.6507 48.2336 34.678 48.2247C34.7052 48.2158 34.7342 48.2131 34.7626 48.2168C34.7911 48.2204 34.8184 48.2304 34.8426 48.2459C34.8667 48.2614 34.8871 48.2821 34.9023 48.3065C35.4159 48.9829 35.8849 49.6921 36.3063 50.4295C36.3838 50.5874 36.1712 50.7846 36.0476 50.631C35.5626 50.007 35.1114 49.3576 34.6959 48.6853C33.9319 49.3794 33.0451 49.9248 32.081 50.2935C32.7199 51.9545 32.521 54.1215 32.0603 56.3629C32.0163 56.5785 31.5957 58.5264 31.322 58.591C30.9989 58.6689 30.6705 58.7232 30.3395 58.7534C29.7965 61.5364 29.2192 64.2974 29.0842 66.8393C29.0854 66.8897 29.1059 66.9376 29.1416 66.9733C29.1772 67.0089 29.2252 67.0294 29.2756 67.0307C29.6394 67.0575 30.0042 67.0747 30.3734 67.0932C30.3492 67.256 30.2304 68.176 30.1912 68.4734C30.1392 68.7345 30.1087 68.9994 30.1001 69.2654C29.5858 69.3226 30.6633 70.834 31.5081 70.2383C32.0951 69.8247 32.1818 69.3737 32.9218 70.1138C33.5335 70.8 34.3536 71.2664 35.256 71.4412C36.2201 71.7052 37.746 71.986 38.021 72.0546C38.0021 71.9107 37.9924 71.762 37.9876 71.6186C36.1352 71.1856 34.4275 71.0364 33.3658 69.9215ZM15.955 34.3756C16.813 31.6674 16.784 31.8844 16.7598 31.8404C15.7205 31.5609 14.6638 31.3512 13.5966 31.2125C13.4958 31.1988 13.3911 31.1122 13.4334 30.9969C13.8032 29.9416 14.2568 28.9175 14.7899 27.9345C14.8572 27.8152 15.0684 27.8966 15.0152 28.0304C14.6284 28.9984 14.2003 29.9378 13.8311 30.9058C14.7705 31.0462 15.2391 31.1302 16.2274 31.3418C16.7061 31.4448 17.2169 31.4606 17.0999 31.9363C17.0722 32.0485 16.3475 34.3026 16.333 34.347C17.2576 34.8754 18.1461 35.4645 18.9928 36.1106C19.075 36.206 18.9972 36.3992 18.8608 36.3455C18.3799 36.0861 17.9186 35.792 17.4805 35.4655C16.0452 34.5468 15.9022 34.5855 15.955 34.3756ZM17.979 41.0518C17.6178 42.1232 17.5878 42.6168 17.4039 42.9878C17.3419 43.1127 17.1738 43.0406 17.1641 42.9257C17.1201 42.4237 17.5707 41.0302 17.744 40.5673C17.4462 40.3689 17.125 39.5866 17.0013 39.2882C16.7796 38.8778 16.6862 38.4103 16.7329 37.9462C16.7584 37.8314 16.9252 37.8644 16.9296 37.9748C16.9604 38.7739 17.7687 39.9966 17.8831 40.2131C18.5674 38.5081 19.3929 36.8632 20.351 35.2957C20.372 35.2601 20.4063 35.2343 20.4463 35.224C20.4864 35.2137 20.5288 35.2197 20.5644 35.2407C20.6 35.2617 20.6258 35.296 20.6361 35.336C20.6464 35.376 20.6404 35.4185 20.6194 35.4541C20.2058 36.412 18.8546 38.4487 17.9772 41.0513L17.979 41.0518ZM23.4231 40.9127C23.1244 42.5376 22.4925 44.5757 21.4774 45.8728C20.802 46.7357 19.6884 47.4634 18.5589 47.0758C18.5345 47.0683 18.5136 47.0523 18.4998 47.0308C18.4861 47.0093 18.4804 46.9836 18.4839 46.9583C18.4873 46.933 18.4996 46.9097 18.5186 46.8927C18.5376 46.8756 18.562 46.8658 18.5875 46.865C19.8785 46.8356 20.8425 46.5025 21.789 44.6747C22.3634 43.503 22.7746 42.2581 23.0113 40.9748C23.1934 40.0068 23.1358 39.9298 23.2603 39.6548C23.2763 39.6285 23.2996 39.6075 23.3273 39.5943C23.355 39.5811 23.386 39.5762 23.4165 39.5802C23.4469 39.5843 23.4755 39.5971 23.4988 39.6172C23.5221 39.6372 23.5391 39.6635 23.5476 39.693C23.5819 40.1039 23.5391 40.5176 23.4214 40.9127H23.4231ZM32.1457 42.3168C30.781 42.8885 29.4578 43.5547 28.1857 44.3104C25.9778 45.7039 25.2817 46.6644 24.6969 47.0327C24.6708 47.047 24.6407 47.0525 24.6112 47.0483C24.5817 47.0441 24.5543 47.0304 24.5333 47.0093C24.5122 46.9883 24.4985 46.9609 24.4943 46.9314C24.4901 46.9019 24.4956 46.8718 24.5099 46.8457C25.0256 46.0154 28.6393 43.0018 32.0533 42.1012C32.1774 42.0682 32.2689 42.2604 32.1439 42.3168H32.1457ZM32.0612 69.2888C31.7431 69.3618 31.5891 69.5431 31.1918 69.9149C30.9132 70.0539 30.5617 69.7037 30.3531 69.4687C30.4537 69.197 30.5073 68.9101 30.5115 68.6204C30.5524 68.2895 30.6695 67.2881 30.6875 67.1156C31.0809 67.1367 31.6648 67.1702 32.3199 67.2084C32.2743 67.9072 32.1873 68.6025 32.0594 69.291L32.0612 69.2888Z" fill="#191919"/>
<path d="M29.0478 47.6222C27.3916 47.1179 25.4618 47.2319 23.0955 47.2864C20.6222 47.3436 19.2103 47.3876 18.1969 47.5826C18.1393 47.4567 18.0812 47.3304 18.0249 47.205C17.0088 46.9085 16.0599 46.4174 15.2309 45.7592C11.9001 43.1958 10.9823 36.9046 11.0324 32.7233C11.0742 29.2645 12.803 27.6303 14.886 27.4182C15.5754 27.3483 15.3757 27.2924 16.0902 28.348C16.1317 28.2157 16.1942 28.0911 16.2755 27.9788C16.4743 27.6425 16.692 27.3177 16.9276 27.006C16.9905 26.9144 17.0818 26.8461 17.1874 26.8115C17.2929 26.777 17.407 26.778 17.5119 26.8146C17.5017 26.661 17.5017 26.5893 17.4498 26.1986C17.24 26.1749 17.0376 26.1068 16.8561 25.9987C16.6747 25.8906 16.5184 25.7451 16.3976 25.5718C16.2769 25.3986 16.1944 25.2015 16.1559 24.9939C16.1173 24.7863 16.1234 24.5728 16.1738 24.3677C16.0896 24.3389 16.0149 24.2876 15.9578 24.2194C14.5837 22.5646 14.0834 20.989 14.6352 19.7094C14.7846 19.3767 15.0197 19.0897 15.3165 18.8777C15.6133 18.6657 15.9611 18.5364 16.3243 18.503C17.0221 18.4031 17.7442 18.5197 18.3043 18.2346C18.8204 17.9706 19.3445 17.4866 19.8711 17.1786C21.6311 16.1463 22.971 17.4338 22.5169 18.976C22.3125 19.5127 22.0309 20.0167 21.6809 20.472C22.2331 21.7264 23.0369 23.7816 23.0708 25.1448C23.1032 25.4501 23.05 25.7584 22.9171 26.0352C22.7842 26.312 22.5769 26.5464 22.3184 26.712C22.4315 26.724 22.5387 26.769 22.6264 26.8414C22.7142 26.9137 22.7788 27.0103 22.8121 27.119C22.9475 27.0806 23.0921 27.0923 23.2196 27.152L23.2099 27.108C22.7452 26.8176 24.6487 25.6195 25.1798 25.4545C26.7426 24.9705 28.1278 26.3658 29.3897 27.5876C29.2608 26.6049 29.076 25.6304 28.8362 24.6687C27.9821 21.2829 25.9321 16.7416 22.7593 15.3231C17.2778 12.8736 5.30187 17.4465 2.83743 24.1772C1.53371 27.7372 2.47619 33.2777 3.47983 36.935C4.67419 41.1512 6.32779 45.2236 8.41091 49.079C11.1363 54.2129 14.3892 58.6785 20.2535 58.935C20.2341 60.4636 20.2773 65.6969 20.2975 66.3679C19.4554 65.9869 18.7522 65.7026 16.8994 64.9256C16.485 64.7294 16.0513 64.5768 15.6053 64.4702C14.9251 64.3404 14.0913 64.4944 13.727 65.1509C13.652 65.2984 13.6081 65.4598 13.598 65.625C13.588 65.7902 13.612 65.9557 13.6686 66.1112C13.7253 66.2667 13.8132 66.4089 13.9271 66.529C14.041 66.6491 14.1784 66.7445 14.3307 66.8092C14.4868 66.8644 14.6528 66.8862 14.8179 66.8731C14.983 66.86 15.1435 66.8123 15.289 66.7332C15.4345 66.6541 15.5617 66.5453 15.6625 66.4138C15.7632 66.2824 15.8352 66.1312 15.8737 65.9702C17.2206 66.4207 18.5723 66.8664 19.938 67.2462C18.6809 67.8554 17.4769 68.5687 16.3388 69.3788C15.7835 69.84 15.3594 70.5827 15.6678 71.3056C15.9156 71.886 16.7511 72.4496 17.3499 72.0004C17.7935 71.6664 18.054 70.7024 17.489 70.3037C18.5859 69.2935 19.7498 68.3585 20.9729 67.5053C23.114 68.006 25.226 68.2626 27.0163 69.0453C26.458 70.001 26.8218 70.6984 27.4669 70.8762C28.2589 71.0962 28.911 70.4159 28.9959 69.6732C29.0936 68.8156 28.4239 68.0808 27.7018 67.7275C26.7395 67.3402 25.7255 67.0963 24.6922 67.0037C23.8677 66.8757 23.0339 66.7736 22.2049 66.6957C23.1584 66.0872 24.1458 65.531 25.1569 65.0184C25.1938 65.1074 25.2502 65.187 25.3221 65.2511C25.3939 65.3153 25.4793 65.3625 25.5719 65.3892C25.6644 65.4158 25.7618 65.4213 25.8568 65.4052C25.9518 65.3891 26.0419 65.3518 26.1205 65.2961C26.2245 65.2009 26.3033 65.0814 26.3497 64.9483C26.3961 64.8151 26.4087 64.6725 26.3864 64.5333C26.364 64.3941 26.3075 64.2626 26.2217 64.1507C26.136 64.0388 26.0238 63.9499 25.8952 63.892C25.2295 63.54 24.4872 63.8784 23.8967 64.2229C23.0869 64.6859 22.3187 65.2183 21.6008 65.814C21.6056 64.7549 21.596 60.8296 21.6153 58.9988C23.2108 59.078 29.6576 58.9909 31.3199 58.5962C31.5936 58.5315 32.0134 56.5836 32.0583 56.368C32.8617 52.4705 32.8652 48.7842 29.0478 47.6222ZM17.951 47.6349C16.6362 47.9252 15.2605 47.7175 14.09 47.0519C11.0487 45.4842 8.86631 41.0886 7.62991 37.8933C6.72027 35.5438 6.08969 33.0956 5.75111 30.599C5.42199 28.1645 5.24643 25.6477 6.24479 23.3434C7.15608 21.3057 8.63313 19.5724 10.5005 18.3494C10.5217 18.3374 10.5465 18.3334 10.5704 18.3381C10.5943 18.3428 10.6157 18.3559 10.6308 18.3751C10.6459 18.3942 10.6537 18.4181 10.6527 18.4424C10.6517 18.4668 10.642 18.49 10.6254 18.5078C9.71816 19.3173 8.87276 20.1936 8.09631 21.1293C6.5901 22.9885 5.83642 25.3451 5.98431 27.7333C6.19947 34.1639 9.04099 41.1973 11.8741 44.5413C14.4613 47.594 16.6829 47.1883 17.8172 47.3401C17.8499 47.3434 17.8811 47.3552 17.9077 47.3742C17.9344 47.3933 17.9556 47.419 17.9693 47.4488C17.9829 47.4786 17.9886 47.5115 17.9856 47.5441C17.9826 47.5768 17.9711 47.6081 17.9523 47.6349H17.951Z" fill="#38A1FF"/>
</svg>
