<svg width="55" height="55" viewBox="0 0 55 55" fill="none" xmlns="http://www.w3.org/2000/svg">
<path d="M18.5566 48.7692H16.5502V36.4189H18.5566C18.7523 36.4189 18.94 36.4967 19.0785 36.6351C19.2169 36.7736 19.2947 36.9613 19.2947 37.157V48.0311C19.2947 48.2268 19.2169 48.4146 19.0785 48.553C18.94 48.6914 18.7523 48.7692 18.5566 48.7692Z" stroke="#020064" stroke-width="0.7" stroke-linecap="round" stroke-linejoin="round"/>
<path d="M27.9855 35.0474H29.8154" stroke="#020064" stroke-width="0.7" stroke-linecap="round" stroke-linejoin="round"/>
<path d="M36.4478 46.0254H35.5332" stroke="#020064" stroke-width="0.7" stroke-linecap="round" stroke-linejoin="round"/>
<path d="M37.3628 42.3657H36.4482" stroke="#020064" stroke-width="0.7" stroke-linecap="round" stroke-linejoin="round"/>
<path d="M38.2776 38.7065H37.3624" stroke="#020064" stroke-width="0.7" stroke-linecap="round" stroke-linejoin="round"/>
<path d="M29.8152 35.0476C30.1568 31.6299 30.6089 24.2979 27.7566 24.2979C27.2106 24.298 26.6872 24.5149 26.3012 24.901C25.9153 25.2871 25.6985 25.8106 25.6985 26.3565V27.0424C25.6985 32.0743 23.5161 37.3345 19.2948 37.3345L19.2904 47.8549H19.8305C22.4705 47.8549 23.7174 49.6848 28.443 49.6848H36.4477C36.6906 49.689 36.9319 49.6448 37.1576 49.5547C37.3833 49.4646 37.5887 49.3306 37.762 49.1603C37.9353 48.9899 38.0729 48.7868 38.1668 48.5628C38.2608 48.3387 38.3092 48.0982 38.3092 47.8552C38.3092 47.6122 38.2608 47.3717 38.1668 47.1476C38.0729 46.9235 37.9353 46.7204 37.762 46.5501C37.5887 46.3798 37.3833 46.2457 37.1576 46.1557C36.9319 46.0656 36.6906 46.0214 36.4477 46.0256H37.3623C37.8476 46.0256 38.313 45.8328 38.6562 45.4896C38.9994 45.1465 39.1922 44.6811 39.1922 44.1958C39.1922 43.7104 38.9994 43.245 38.6562 42.9019C38.313 42.5587 37.8476 42.3659 37.3623 42.3659H38.2797C38.7594 42.3576 39.2167 42.1612 39.553 41.819C39.8893 41.4768 40.0778 41.0161 40.0778 40.5363C40.0778 40.0565 39.8893 39.5959 39.553 39.2537C39.2167 38.9115 38.7594 38.7151 38.2797 38.7068H39.1944C39.4373 38.711 39.6786 38.6668 39.9043 38.5767C40.13 38.4866 40.3354 38.3526 40.5087 38.1823C40.682 38.0119 40.8196 37.8088 40.9136 37.5848C41.0075 37.3607 41.0559 37.1202 41.0559 36.8772C41.0559 36.6342 41.0075 36.3937 40.9136 36.1696C40.8196 35.9455 40.682 35.7424 40.5087 35.5721C40.3354 35.4018 40.13 35.2677 39.9043 35.1777C39.6786 35.0876 39.4373 35.0434 39.1944 35.0476H29.8152Z" stroke="#020064" stroke-width="0.7" stroke-linecap="round" stroke-linejoin="round"/>
<path d="M11.0614 35.5044H15.6352C15.8779 35.5044 16.1107 35.6008 16.2823 35.7725C16.4539 35.9441 16.5504 36.1769 16.5504 36.4196V48.7698C16.5502 49.0124 16.4538 49.2451 16.2821 49.4166C16.1105 49.5881 15.8778 49.6845 15.6352 49.6845H11.0614" stroke="#020064" stroke-width="0.7" stroke-linecap="round" stroke-linejoin="round"/>
<path d="M26.6859 5.74774C26.7497 5.61816 26.8485 5.50899 26.9711 5.43269C27.0938 5.35637 27.2353 5.31592 27.3797 5.31592C27.5242 5.31592 27.6657 5.35637 27.7884 5.43269C27.911 5.50899 28.0098 5.61816 28.0735 5.74774L29.4733 8.58465C29.5289 8.69718 29.611 8.79447 29.7125 8.86817C29.8141 8.94182 29.9321 8.98972 30.0563 9.0076L33.1874 9.463C33.3304 9.48373 33.4646 9.54407 33.5751 9.63713C33.6855 9.73019 33.7676 9.85229 33.8123 9.98962C33.857 10.127 33.8622 10.2741 33.8276 10.4143C33.793 10.5545 33.7199 10.6822 33.6164 10.783L31.3499 12.9912C31.2606 13.0792 31.194 13.1875 31.1557 13.3068C31.1174 13.4262 31.1085 13.5531 31.1299 13.6765L31.6645 16.7956C31.6891 16.9379 31.6733 17.0843 31.619 17.2181C31.5646 17.3519 31.4739 17.4678 31.357 17.5527C31.2402 17.6376 31.1019 17.6881 30.9579 17.6984C30.8138 17.7088 30.6698 17.6786 30.5419 17.6112L27.7413 16.1389C27.6303 16.0804 27.5067 16.0498 27.3811 16.0498C27.2556 16.0498 27.1319 16.0804 27.0208 16.1389L24.2186 17.6112C24.0908 17.6786 23.9468 17.7088 23.8027 17.6984C23.6586 17.6881 23.5204 17.6376 23.4035 17.5527C23.2867 17.4678 23.196 17.3519 23.1416 17.2181C23.0873 17.0843 23.0715 16.9379 23.096 16.7956L23.6306 13.6765C23.652 13.5528 23.6428 13.4257 23.604 13.3064C23.5652 13.187 23.4979 13.0788 23.4079 12.9912L21.1424 10.783C21.039 10.6822 20.9659 10.5546 20.9313 10.4144C20.8966 10.2742 20.9019 10.1272 20.9465 9.98984C20.991 9.85251 21.0731 9.73041 21.1835 9.63729C21.2939 9.54418 21.4281 9.48384 21.5709 9.463L24.702 9.0076C24.8263 8.98994 24.9445 8.9422 25.0461 8.8685C25.1477 8.7948 25.2297 8.69734 25.285 8.58465L26.6859 5.74774Z" stroke="#020064" stroke-width="0.7" stroke-linecap="round" stroke-linejoin="round"/>
<path d="M10.9452 12.4698C10.9344 12.351 10.957 12.2314 11.0105 12.1247C11.064 12.0179 11.1463 11.9284 11.2481 11.8659C11.3498 11.8035 11.467 11.7708 11.5864 11.7715C11.7058 11.7722 11.8226 11.8062 11.9237 11.8698L14.1352 13.264C14.2229 13.3194 14.3228 13.3525 14.4262 13.3605C14.5296 13.3686 14.6334 13.3513 14.7287 13.3102L17.1322 12.2779C17.2418 12.2307 17.3625 12.2152 17.4805 12.233C17.5986 12.2509 17.7093 12.3014 17.8001 12.3789C17.8909 12.4564 17.9583 12.5577 17.9944 12.6715C18.0307 12.7853 18.0343 12.9069 18.005 13.0226L17.3626 15.5581C17.3373 15.6587 17.3368 15.7639 17.361 15.8648C17.3852 15.9656 17.4335 16.0591 17.5018 16.1372L19.2271 18.104C19.3058 18.1938 19.3578 18.304 19.3771 18.4218C19.3966 18.5396 19.3825 18.6605 19.3368 18.7708C19.291 18.8811 19.2152 18.9764 19.118 19.0458C19.0209 19.1153 18.9063 19.1562 18.7871 19.1639L16.1774 19.3371C16.0738 19.344 15.9735 19.3759 15.8851 19.4301C15.7966 19.4844 15.7227 19.5593 15.6697 19.6484L14.3321 21.8963C14.2712 21.999 14.1827 22.0826 14.0767 22.1376C13.9708 22.1925 13.8515 22.2167 13.7325 22.2074C13.6134 22.1981 13.4994 22.1556 13.4033 22.0848C13.3072 22.0139 13.2328 21.9176 13.1887 21.8066L12.2174 19.3778C12.1786 19.2818 12.1171 19.1965 12.0382 19.1295C11.9593 19.0624 11.8652 19.0155 11.7642 18.9928L9.21545 18.4142C9.09907 18.3879 8.99237 18.3294 8.90745 18.2456C8.82253 18.1618 8.76275 18.0558 8.73492 17.9398C8.70703 17.8238 8.7122 17.7022 8.74977 17.589C8.78739 17.4757 8.85586 17.3752 8.9476 17.2988L10.9573 15.6246C11.0371 15.5583 11.0994 15.4736 11.1391 15.3778C11.1788 15.282 11.1945 15.1779 11.185 15.0746L10.9452 12.4698Z" stroke="#020064" stroke-width="0.7" stroke-linecap="round" stroke-linejoin="round"/>
<path d="M2.83748 25.3675C2.78523 25.292 2.75518 25.2033 2.75076 25.1117C2.74632 25.0199 2.76768 24.9288 2.81241 24.8487C2.85714 24.7685 2.92344 24.7025 3.00379 24.658C3.08416 24.6136 3.17535 24.5926 3.26703 24.5975L5.27068 24.6998C5.35021 24.7039 5.42956 24.6887 5.50186 24.6552C5.57413 24.6217 5.63711 24.5711 5.6854 24.5078L6.9064 22.9128C6.96206 22.8402 7.03691 22.7846 7.12255 22.7523C7.20813 22.72 7.30108 22.7123 7.39084 22.73C7.4806 22.7478 7.56359 22.7902 7.63047 22.8526C7.69735 22.9151 7.74548 22.995 7.76935 23.0833L8.29185 25.0215C8.31286 25.0981 8.35202 25.1686 8.40603 25.2269C8.45998 25.2852 8.52725 25.3296 8.60205 25.3565L10.4946 26.0247C10.581 26.0551 10.6571 26.1091 10.7144 26.1806C10.7717 26.2521 10.8078 26.3382 10.8187 26.4292C10.8295 26.5201 10.8148 26.6123 10.7759 26.6953C10.7371 26.7783 10.6759 26.8487 10.5991 26.8987L8.91775 27.9954C8.85147 28.039 8.79686 28.0981 8.75852 28.1676C8.72019 28.237 8.69934 28.3148 8.69775 28.3941L8.6466 30.4005C8.64429 30.492 8.61646 30.5811 8.56624 30.6576C8.51597 30.7342 8.4453 30.7951 8.36219 30.8336C8.27909 30.872 8.18691 30.8865 8.09605 30.8753C8.00513 30.8641 7.91922 30.8276 7.848 30.7701L6.286 29.509C6.2239 29.4592 6.1507 29.4253 6.07271 29.4099C5.99466 29.3945 5.91409 29.3981 5.83775 29.4204L3.91273 29.9919C3.8251 30.018 3.73188 30.0193 3.64362 29.9953C3.55534 29.9714 3.47552 29.9232 3.41318 29.8562C3.35082 29.7893 3.30843 29.7063 3.29077 29.6165C3.27311 29.5268 3.28089 29.4339 3.31323 29.3484L4.02823 27.474C4.05672 27.3996 4.0666 27.3193 4.05702 27.2403C4.04743 27.1612 4.01867 27.0856 3.97323 27.0202L2.83748 25.3675Z" stroke="#020064" stroke-width="0.7" stroke-linecap="round" stroke-linejoin="round"/>
<path d="M44.055 12.4698C44.0659 12.351 44.0433 12.2314 43.9897 12.1247C43.9362 12.0179 43.854 11.9284 43.7522 11.8659C43.6504 11.8035 43.5332 11.7708 43.4138 11.7715C43.2944 11.7722 43.1777 11.8062 43.0766 11.8698L40.865 13.264C40.7773 13.3194 40.6774 13.3525 40.574 13.3605C40.4706 13.3686 40.3668 13.3513 40.2716 13.3102L37.8681 12.2779C37.7584 12.2307 37.6377 12.2152 37.5197 12.233C37.4016 12.2509 37.291 12.3014 37.2002 12.3789C37.1093 12.4564 37.042 12.5577 37.0058 12.6715C36.9696 12.7853 36.9659 12.9069 36.9952 13.0226L37.6376 15.5581C37.6629 15.6587 37.6635 15.7639 37.6392 15.8648C37.615 15.9656 37.5667 16.0591 37.4985 16.1372L35.7731 18.104C35.6944 18.1938 35.6425 18.304 35.6231 18.4218C35.6037 18.5396 35.6177 18.6605 35.6635 18.7708C35.7093 18.8811 35.7851 18.9764 35.8822 19.0458C35.9793 19.1153 36.094 19.1562 36.2131 19.1639L38.8229 19.3371C38.9264 19.344 39.0267 19.3759 39.1152 19.4301C39.2036 19.4844 39.2775 19.5593 39.3305 19.6484L40.6681 21.8963C40.7291 21.999 40.8175 22.0826 40.9235 22.1376C41.0295 22.1925 41.1487 22.2167 41.2678 22.2074C41.3868 22.1981 41.5008 22.1556 41.597 22.0848C41.6931 22.0139 41.7674 21.9176 41.8116 21.8066L42.7829 19.3778C42.8216 19.2818 42.8831 19.1965 42.962 19.1295C43.041 19.0624 43.135 19.0155 43.2361 18.9928L45.7875 18.4159C45.9039 18.3895 46.0106 18.3311 46.0955 18.2472C46.1805 18.1634 46.2402 18.0575 46.2681 17.9414C46.296 17.8254 46.2908 17.7038 46.2532 17.5906C46.2157 17.4774 46.1471 17.3769 46.0554 17.3005L44.0457 15.6263C43.966 15.5599 43.9036 15.4752 43.8639 15.3794C43.8243 15.2836 43.8085 15.1796 43.818 15.0763L44.055 12.4698Z" stroke="#020064" stroke-width="0.7" stroke-linecap="round" stroke-linejoin="round"/>
<path d="M52.1628 25.3675C52.215 25.292 52.2451 25.2033 52.2495 25.1117C52.2539 25.0199 52.2326 24.9288 52.1878 24.8487C52.1431 24.7685 52.0768 24.7025 51.9965 24.658C51.9161 24.6136 51.8249 24.5926 51.7332 24.5975L49.7296 24.6998C49.6501 24.7039 49.5707 24.6887 49.4984 24.6552C49.4262 24.6217 49.3631 24.5711 49.3149 24.5078L48.0939 22.9128C48.0382 22.8402 47.9633 22.7846 47.8777 22.7523C47.7921 22.72 47.6992 22.7123 47.6095 22.73C47.5197 22.7478 47.4366 22.7902 47.3698 22.8526C47.3029 22.9151 47.2548 22.995 47.2309 23.0833L46.7084 25.0215C46.6874 25.0981 46.6482 25.1686 46.5943 25.2269C46.5403 25.2852 46.473 25.3296 46.3982 25.3565L44.5057 26.0247C44.4193 26.0551 44.3431 26.1091 44.2859 26.1806C44.2285 26.2521 44.1925 26.3382 44.1816 26.4292C44.1707 26.5201 44.1855 26.6123 44.2243 26.6953C44.2631 26.7783 44.3244 26.8487 44.4011 26.8987L46.0825 27.9954C46.1493 28.0387 46.2044 28.0977 46.2433 28.1671C46.2821 28.2367 46.3034 28.3145 46.3053 28.3941L46.3564 30.4005C46.3587 30.492 46.3865 30.5811 46.4368 30.6576C46.487 30.7342 46.5577 30.7951 46.6408 30.8336C46.7239 30.872 46.8161 30.8865 46.907 30.8753C46.9979 30.8641 47.0838 30.8276 47.155 30.7701L48.717 29.509C48.7791 29.4592 48.8523 29.4253 48.9303 29.4099C49.0083 29.3945 49.089 29.3981 49.1653 29.4204L51.0903 29.9919C51.178 30.0179 51.2714 30.0189 51.3597 29.9947C51.448 29.9705 51.5277 29.9221 51.5899 29.8549C51.6521 29.7877 51.6943 29.7044 51.7117 29.6145C51.729 29.5246 51.7209 29.4316 51.6881 29.3462L50.9731 27.4718C50.9447 27.3974 50.9348 27.3171 50.9443 27.2381C50.9539 27.159 50.9827 27.0834 51.0281 27.018L52.1628 25.3675Z" stroke="#020064" stroke-width="0.7" stroke-linecap="round" stroke-linejoin="round"/>
</svg>
