<svg width="99" height="99" viewBox="0 0 99 99" fill="none" xmlns="http://www.w3.org/2000/svg">
<path d="M52.4744 61.8157C60.5741 61.4048 67.9946 61.2187 69.191 61.8894C69.8073 62.2359 70.7661 66.7899 71.2066 69.8357C73.6945 69.5387 76.8209 69.2654 79.9444 69.0526C79.4806 66.7093 79.1945 65.2411 78.1421 62.977C77.9827 62.6339 78.4193 62.4953 78.597 62.8087C79.6515 64.739 80.3596 66.8392 80.6894 69.014C84.9181 68.7363 89.0905 68.5685 91.7056 68.5685C91.4086 66.0093 89.7637 60.1119 86.815 57.0879C84.5419 54.757 80.1325 52.6824 76.2299 52.1914C76.1691 52.7323 75.9605 53.2459 75.6269 53.676C75.2934 54.106 74.8477 54.4359 74.339 54.6293C72.2541 55.4485 68.4485 55.6638 65.0538 53.7992C61.4725 54.8208 54.9093 58.7185 52.4744 61.8157Z" fill="#38A1FF"/>
<path d="M96.1323 80.0318C74.7766 80.4333 53.5173 80.3541 32.1729 80.3783C31.7413 80.3783 31.6437 81.053 32.0902 81.0609C53.3866 81.4544 74.9369 80.9911 96.2299 80.7303C96.6848 80.7263 96.5848 80.0234 96.1323 80.0318Z" fill="#38A1FF"/>
<path d="M43.5503 37.8362C45.7427 37.8773 56.4272 37.6783 57.5633 37.6293C57.9058 37.6145 57.8969 37.0234 57.5633 37.0234C56.0382 37.0234 46.0045 37.217 43.5503 37.3457C43.4909 37.3537 43.4365 37.383 43.3971 37.4281C43.3577 37.4732 43.3359 37.5311 43.3359 37.591C43.3359 37.6509 43.3577 37.7087 43.3971 37.7538C43.4365 37.7989 43.4909 37.8282 43.5503 37.8362Z" fill="#38A1FF"/>
<path d="M34.7987 35.0997C34.6393 35.1829 31.8826 38.4964 33.1528 38.1024C33.333 38.0465 35.1328 35.766 35.2214 35.3571C35.232 35.3041 35.2261 35.2491 35.2044 35.1996C35.1827 35.1501 35.1463 35.1085 35.1001 35.0804C35.054 35.0523 35.0003 35.0391 34.9464 35.0425C34.8924 35.046 34.8409 35.0659 34.7987 35.0997Z" fill="#38A1FF"/>
<path d="M28.7916 27.5715C29.6782 27.6131 47.7303 27.568 48.8065 27.4621C48.9593 27.4418 49.0992 27.3656 49.199 27.2481C49.2987 27.1306 49.3514 26.9802 49.3466 26.8261C49.3419 26.6721 49.2801 26.5252 49.1733 26.4141C49.0664 26.3029 48.9221 26.2354 48.7684 26.2246C43.7446 26.287 33.3011 26.3127 28.8199 26.4107C28.1477 26.4261 28.0912 27.5398 28.7916 27.5715Z" fill="#38A1FF"/>
<path d="M54.0612 46.6211C52.8994 46.6211 44.0661 46.5221 43.4405 46.7008C43.2276 46.7622 43.1435 47.1067 43.3989 47.1795C44.0661 47.371 52.8534 47.274 54.0666 47.274C55.2799 47.274 56.4575 47.3176 57.6455 47.274C58.0088 47.2606 57.9821 46.6518 57.6217 46.636C56.4397 46.5835 55.2457 46.6211 54.0612 46.6211Z" fill="#38A1FF"/>
<path d="M43.3018 51.2464C43.2268 51.2687 43.1636 51.3197 43.126 51.3883C43.0883 51.4569 43.0793 51.5375 43.1008 51.6127C43.2028 51.9592 42.7449 51.8404 57.7993 52.0914C57.8824 52.083 57.9594 52.044 58.0153 51.982C58.0713 51.9201 58.1023 51.8395 58.1023 51.7561C58.1023 51.6726 58.0713 51.592 58.0153 51.5301C57.9594 51.4681 57.8824 51.4291 57.7993 51.4207C43.3572 51.1875 44.2536 51.1727 43.3018 51.2464Z" fill="#38A1FF"/>
<path d="M57.4772 42.6641C57.5577 42.6587 57.6334 42.6235 57.6895 42.5654C57.7455 42.5073 57.7779 42.4305 57.7805 42.3498C57.783 42.2691 57.7554 42.1904 57.7031 42.1289C57.6508 42.0674 57.5775 42.0276 57.4975 42.0171C55.3492 41.9577 45.3522 41.8746 43.5385 42.2359C43.2415 42.2948 43.3078 42.7275 43.5915 42.7527C45.1255 42.8908 47.4708 42.3755 57.4772 42.6641Z" fill="#38A1FF"/>
<path d="M70.6806 33.8701C70.7073 29.6062 70.9053 24.2869 70.5474 20.1497C70.5376 20.0876 70.5051 20.0313 70.4562 19.9917C70.4073 19.9522 70.3455 19.9321 70.2827 19.9354C70.2199 19.9387 70.1605 19.9652 70.1161 20.0097C70.0717 20.0542 70.0453 20.1136 70.042 20.1764C69.9257 22.1614 70.0351 31.3842 70.042 33.9176C70.043 34.3339 70.6781 34.2869 70.6806 33.8701Z" fill="#38A1FF"/>
<path d="M33.3255 53.6243C33.9389 54.2962 34.5911 54.9317 35.2788 55.5275C35.5758 55.8072 36.0332 55.3612 35.7342 55.082C35.0932 54.4372 34.4195 53.8259 33.7156 53.2505C33.5012 53.1134 33.1602 53.3941 33.3255 53.6243Z" fill="#38A1FF"/>
<path d="M5.89037 20.1504C5.89037 19.7781 5.30429 19.7103 5.29934 20.0915C5.10431 35.8602 5.36468 54.2014 6.11807 69.8885C6.13886 70.3231 6.81107 70.2167 6.78879 69.785C5.99283 53.1911 5.8676 36.7581 5.89037 20.1504Z" fill="#38A1FF"/>
<path d="M13.3368 55.3356C13.1704 55.5831 13.556 55.898 13.7506 55.6668C14.0015 55.3698 15.4568 53.6833 15.3841 53.3205C15.1836 52.3592 13.6209 54.9154 13.3368 55.3356Z" fill="#38A1FF"/>
<path d="M24.2271 47.3369C23.9732 47.2899 22.3625 48.7194 22.0372 49.0298C18.9965 47.0414 19.2989 47.5309 19.3365 48.7328C19.348 49.5549 19.4052 50.3757 19.5078 51.1915C19.5449 51.4494 19.937 51.4043 19.9533 51.1533C20.0152 50.2341 19.8969 49.3179 19.882 48.3992C22.5595 50.0327 21.7318 49.9832 24.2321 47.9349C24.5291 48.263 25.9433 49.6391 26.3715 49.5872C26.718 49.5441 27.8847 47.9764 28.1624 47.6423C28.1624 48.3516 28.1851 50.3762 28.3955 50.9494C28.5044 51.2464 28.7915 51.1415 28.8064 50.8459C28.843 50.2163 28.7668 48.7239 28.7683 47.9972C28.7683 47.1696 28.7658 46.9577 28.4193 46.4627C27.6669 45.3876 25.7611 42.7537 24.5984 41.3241C23.5742 40.0644 23.5292 40.0371 22.8104 41.1499C21.7031 42.867 19.8444 46.1989 19.5603 46.8325C19.44 47.0993 19.8513 47.225 19.9944 47.0275C20.4706 46.3697 21.5487 44.4357 22.0452 43.5848C23.1614 43.6294 24.2792 43.6105 25.3933 43.5284C26.3126 44.6174 27.1813 45.742 28.0168 46.8944L26.3121 48.963C26.0799 48.7788 24.484 47.3844 24.2271 47.3369Z" fill="#38A1FF"/>
<path d="M32.7546 69.4987C30.0949 69.3502 8.4372 69.4665 7.59223 69.5977C7.52975 69.6179 7.47571 69.6582 7.43856 69.7123C7.40142 69.7665 7.38326 69.8314 7.38694 69.8969C7.39062 69.9625 7.41592 70.025 7.45888 70.0747C7.50185 70.1243 7.56006 70.1583 7.62441 70.1714C15.8132 70.1947 24.5039 70.1298 32.707 70.1387C33.106 70.1387 33.1743 69.5234 32.7546 69.4987Z" fill="#38A1FF"/>
<path d="M14.3806 38.8492C14.6736 39.1764 15.1231 38.7665 14.8795 38.4888C14.2885 37.8181 13.0223 36.295 12.4387 35.7822C12.2075 35.5787 11.8942 35.897 12.0575 36.1396C12.4773 36.7657 13.8019 38.2037 14.3806 38.8492Z" fill="#38A1FF"/>
<path d="M23.9088 35.9371C23.9459 34.6523 23.8699 33.3668 23.6816 32.0954C23.6555 32.0496 23.6167 32.0125 23.5699 31.9883C23.5232 31.9642 23.4704 31.9541 23.418 31.9594C23.3656 31.9646 23.3159 31.9849 23.2748 32.0178C23.2337 32.0508 23.2031 32.0949 23.1866 32.1449C23.1465 33.4282 23.2087 34.7126 23.3727 35.9861C23.3876 36.0499 23.4251 36.1063 23.4783 36.1446C23.5315 36.183 23.5968 36.2009 23.6621 36.1949C23.7274 36.1889 23.7883 36.1595 23.8337 36.1121C23.879 36.0648 23.9057 36.0026 23.9088 35.9371Z" fill="#38A1FF"/>
<path d="M24.342 55.1022C24.342 55.5131 24.2326 58.2405 24.3801 58.5984C24.4062 58.6435 24.4437 58.681 24.4888 58.7071C24.534 58.7331 24.5852 58.7468 24.6373 58.7468C24.6894 58.7468 24.7406 58.7331 24.7857 58.7071C24.8309 58.681 24.8684 58.6435 24.8944 58.5984C25.0484 58.2054 24.8736 55.6433 24.8533 55.1022C24.8266 54.8127 24.342 54.8067 24.342 55.1022Z" fill="#38A1FF"/>
<path d="M11.9569 46.1545C17.9687 34.8482 31.6722 36.0362 36.7118 45.2382C30.758 54.3249 19.0938 55.7005 11.9297 46.9638C11.7059 46.6915 11.4292 47.0395 11.6327 47.3246C17.931 56.0862 31.3886 54.9427 36.9455 46.0871C37.1265 45.8621 37.2322 45.5858 37.2475 45.2973C37.2629 45.0089 37.1872 44.7229 37.0311 44.4799C30.9203 34.0146 15.6159 35.8971 11.5431 45.8867C11.4218 46.1837 11.8118 46.4277 11.9569 46.1545Z" fill="#38A1FF"/>
<path fill-rule="evenodd" clip-rule="evenodd" d="M66.7527 34.6705C65.2044 34.9675 63.8387 38.3498 65.5469 39.9333C66.5929 40.903 71.4097 40.9441 74.3297 40.8199C74.3507 41.1772 74.4274 41.5291 74.5569 41.8628C74.6732 42.1598 75.0217 42.2539 74.9351 41.7183C74.8878 41.4133 74.8661 41.1048 74.8702 40.7961C75.4613 40.7669 75.9281 40.7313 76.2295 40.6971C76.1508 41.3567 76.0375 42.0116 75.8899 42.6593C75.8083 43.0142 76.2067 43.0805 76.3419 42.742C76.7563 41.6711 76.9239 40.5206 76.8324 39.376C76.6562 36.8529 69.5812 34.127 66.7527 34.6705ZM67.2403 36.003C66.528 36.1659 66.3597 37.248 66.2949 37.8266C66.1835 38.8166 65.5524 38.1236 65.7038 37.2529C65.8197 36.5965 66.3805 35.5273 67.1987 35.6338C67.2462 35.6312 67.2927 35.6469 67.329 35.6776C67.3652 35.7082 67.3884 35.7516 67.3937 35.7988C67.399 35.846 67.3861 35.8934 67.3576 35.9314C67.329 35.9693 67.2871 35.995 67.2403 36.003Z" fill="#191919"/>
<path fill-rule="evenodd" clip-rule="evenodd" d="M72.5424 44.8574C72.9369 44.1891 73.2082 43.4554 73.3433 42.6913C74.0082 42.8117 74.6423 43.0642 75.208 43.4338C75.5446 43.5788 75.6723 43.1368 75.505 42.9996C74.8974 42.5045 74.1548 42.2039 73.374 42.1369C73.0136 41.4543 70.2743 41.2954 69.8516 42.0156C69.7481 41.9575 69.6335 41.922 69.5154 41.9113C69.3972 41.9007 69.2782 41.9151 69.166 41.9537C68.9507 41.3627 66.5212 41.2147 65.9158 41.8973C65.2184 41.8205 64.9288 42.4645 65.8505 42.4586C65.8846 43.0984 66.0029 43.7308 66.2024 44.3396C66.441 44.8277 68.1567 44.8202 68.4982 44.5732C68.9046 44.2797 69.0893 42.9982 69.2046 42.5046C69.372 42.4521 69.5528 42.4626 69.713 42.5343C69.7093 43.196 69.7846 43.8557 69.9372 44.4995C70.1995 45.0212 72.1617 45.3068 72.5424 44.8574ZM68.3106 44.006C68.2299 44.2005 68.1572 44.247 67.5067 44.2213C66.4078 44.1782 66.638 44.4163 66.3014 42.2032C67.0755 41.9403 67.9147 41.9403 68.6888 42.2032C68.6782 42.8227 68.5498 43.4345 68.3106 44.006ZM70.3792 44.2302C70.2566 43.6218 70.2128 43 70.249 42.3804C71.0979 42.0773 72.0299 42.1058 72.8587 42.4601C72.8123 42.9469 72.6874 43.4229 72.4889 43.8698C72.2078 44.4851 72.1612 44.5658 71.2747 44.4936C70.849 44.4589 70.4391 44.3644 70.3792 44.2307V44.2302Z" fill="#191919"/>
<path fill-rule="evenodd" clip-rule="evenodd" d="M70.7992 43.8347C70.8917 44.1683 71.5417 44.2074 71.3902 43.2436C71.3036 42.6952 70.5304 42.8674 70.7992 43.8347Z" fill="#191919"/>
<path fill-rule="evenodd" clip-rule="evenodd" d="M76.4128 43.4352C74.7169 43.5773 73.8799 46.6839 72.979 46.9814C72.3494 47.1898 70.9371 46.2839 69.51 46.1864C68.0829 46.0889 67.2702 46.6918 67.0038 46.5646C66.7375 46.4374 66.9212 45.3236 66.9212 45.0638C66.9212 44.8039 66.7796 44.6618 66.5282 45.235C66.2767 45.8082 63.8245 51.3107 64.8912 52.7912C66.4158 54.9068 72.6374 55.3548 74.5689 53.8995C76.9905 52.0749 74.9298 46.2151 75.5263 44.6886C75.6384 44.4703 75.8173 44.2936 76.0368 44.1841C76.2564 44.0746 76.5052 44.038 76.7469 44.0797C77.5627 44.4331 77.3385 46.8517 76.0346 46.473C75.7069 46.3785 75.6327 46.7903 75.9356 46.9492C76.8212 47.415 77.6904 46.6889 77.8062 45.4716C77.8929 44.55 77.58 43.3377 76.4128 43.4352ZM69.6605 48.9297C68.4314 48.9297 68.1829 48.4421 68.0795 47.6427C69.1434 47.8714 70.2456 47.8523 71.3009 47.5868C71.1886 48.3174 71.0327 48.9317 69.6605 48.9317V48.9297Z" fill="#191919"/>
<path fill-rule="evenodd" clip-rule="evenodd" d="M69.073 43.737C68.8455 44.2617 68.6751 44.8094 68.5647 45.3705C68.4424 46.0363 69.328 46.0383 69.8269 45.9616C70.1239 45.916 70.1784 45.5775 69.8532 45.5537C69.6141 45.5359 69.1443 45.524 69.0998 45.4413C69.1407 44.889 69.2469 44.3436 69.4161 43.8162C69.4849 43.5984 69.1671 43.5133 69.073 43.737Z" fill="#191919"/>
<path fill-rule="evenodd" clip-rule="evenodd" d="M67.6663 43.8567C67.9415 43.7518 67.9633 43.0108 67.7282 42.8727C67.1346 42.5202 67.052 44.0884 67.6663 43.8567Z" fill="#191919"/>
<path fill-rule="evenodd" clip-rule="evenodd" d="M72.5094 17.7856C49.6167 17.8035 25.3142 17.7505 2.76988 17.9426C2.38576 17.9455 2.37685 18.9326 2.74612 18.935C25.5681 19.0781 49.6048 18.8999 72.4857 18.8821C72.8965 18.8816 72.9054 17.7856 72.5094 17.7856Z" fill="#191919"/>
<path fill-rule="evenodd" clip-rule="evenodd" d="M46.428 70.4807C42.5175 70.248 36.4602 69.4828 32.8111 67.9161C32.3418 67.7141 30.0237 68.0928 27.3918 66.8766C27.1166 66.7499 27.0072 67.1375 27.2646 67.2964C28.6095 68.125 30.3084 68.3458 31.8597 68.3958C32.2767 68.385 32.6898 68.4773 33.0626 68.6645C37.3622 70.2066 41.8902 71.0156 46.4577 71.0579C46.833 71.0633 46.8211 70.5045 46.428 70.4807Z" fill="#191919"/>
<path fill-rule="evenodd" clip-rule="evenodd" d="M90.8874 69.3572C90.8112 68.9404 90.2494 69.0874 90.3197 69.5017C90.5615 70.989 90.4656 72.5116 90.039 73.9567C89.0287 77.4777 86.0557 76.9129 83.0798 76.7758C79.9564 76.6322 75.6548 76.3327 72.9561 76.2085C72.8965 76.2006 72.8361 76.2163 72.7879 76.2522C72.7397 76.2881 72.7074 76.3414 72.698 76.4008C72.6885 76.4601 72.7025 76.5208 72.7372 76.57C72.7718 76.6191 72.8242 76.6528 72.8833 76.6639C75.4796 77.0762 81.0255 77.3203 83.1862 77.4227C86.1414 77.5633 89.4381 77.9573 90.5385 74.5359C91.0799 72.8648 91.1998 71.0858 90.8874 69.3572Z" fill="#191919"/>
<path fill-rule="evenodd" clip-rule="evenodd" d="M71.5169 71.1216C75.3412 70.5135 79.1937 70.0983 83.0598 69.8777C83.1223 69.8721 83.1801 69.8425 83.2213 69.7951C83.2625 69.7478 83.2838 69.6864 83.2807 69.6237C83.2776 69.5611 83.2505 69.502 83.2048 69.4589C83.1592 69.4159 83.0987 69.3921 83.036 69.3926C79.1435 69.5523 75.2642 69.9471 71.4194 70.5746C71.3468 70.5878 71.2825 70.6292 71.2405 70.6898C71.1985 70.7503 71.1822 70.8251 71.1954 70.8976C71.2085 70.9702 71.2499 71.0345 71.3105 71.0765C71.371 71.1185 71.4458 71.1347 71.5183 71.1216H71.5169Z" fill="#191919"/>
<path fill-rule="evenodd" clip-rule="evenodd" d="M30.8021 66.8406C30.8433 66.8403 30.884 66.8317 30.9218 66.8154C30.9595 66.799 30.9936 66.7752 31.022 66.7453C31.0504 66.7155 31.0724 66.6802 31.0869 66.6416C31.1013 66.6031 31.1078 66.562 31.106 66.5209C31.1042 66.4797 31.0941 66.4394 31.0764 66.4022C31.0587 66.365 31.0336 66.3318 31.0028 66.3046C30.9719 66.2773 30.9359 66.2566 30.8968 66.2435C30.8577 66.2305 30.8164 66.2255 30.7754 66.2288C28.938 66.2877 28.0108 65.766 26.7981 64.9047C26.606 64.7686 26.4021 65.0086 26.5506 65.2017C27.4138 66.3427 29.428 66.8941 30.8021 66.8406Z" fill="#191919"/>
<path fill-rule="evenodd" clip-rule="evenodd" d="M33.8588 63.7067C34.0825 64.0948 34.5518 64.1473 34.9696 64.2418C37.4371 64.8027 43.0836 64.6155 45.7027 64.5848C46.0749 64.5804 45.9997 64.0993 45.617 64.1027C43.7048 64.122 37.9336 64.1765 35.0701 63.6478C34.5414 63.5488 34.5686 63.627 34.2988 63.2023C33.789 62.3974 33.0287 61.4129 32.1065 61.3966C31.8313 61.3916 31.8095 61.6569 32.0441 61.7747C32.8588 62.1834 33.5019 62.8681 33.8588 63.7067Z" fill="#191919"/>
<path fill-rule="evenodd" clip-rule="evenodd" d="M32.2253 63.8171C30.9472 63.4419 29.1409 62.8399 28.1474 61.5564C27.8504 61.1713 27.598 61.4708 27.7455 61.7811C28.3643 63.084 30.6294 64.2561 31.9297 64.3056C32.649 64.3358 32.449 63.8824 32.2253 63.8171Z" fill="#191919"/>
<path fill-rule="evenodd" clip-rule="evenodd" d="M27.0488 62.8061C27.0079 62.7565 26.9496 62.7243 26.8858 62.7163C26.822 62.7083 26.7576 62.725 26.7058 62.7631C26.6539 62.8011 26.6186 62.8575 26.6071 62.9208C26.5956 62.984 26.6087 63.0493 26.6438 63.1031C27.1157 63.7801 27.7284 64.3469 28.44 64.7646C29.1516 65.1823 29.9452 65.4411 30.7662 65.5232C30.8309 65.5255 30.8945 65.5065 30.9474 65.4693C31.0004 65.432 31.0397 65.3785 31.0594 65.3169C31.0791 65.2553 31.0782 65.1889 31.0567 65.1278C31.0352 65.0668 30.9944 65.0144 30.9404 64.9787C30.5063 64.7916 28.661 64.6713 27.0488 62.8061Z" fill="#191919"/>
<path fill-rule="evenodd" clip-rule="evenodd" d="M84.034 77.9507C83.1475 77.8353 72.8639 78.063 72.3877 77.868C71.9115 77.673 69.4484 63.6452 68.8049 62.7235C68.1614 61.8018 47.8916 62.3864 46.9699 62.9185C46.0482 63.4506 49.092 79.4738 49.8805 79.798C50.5839 80.0866 82.9772 79.6856 84.0355 79.6297C85.0938 79.5738 84.9206 78.066 84.034 77.9507ZM58.496 73.3407C55.7304 73.5709 54.8637 69.0342 57.6273 68.5833C58.939 68.369 60.0949 69.5322 60.3399 70.9647C60.3908 71.2439 60.3823 71.5307 60.315 71.8064C60.2476 72.0821 60.1228 72.3405 59.9488 72.5647C59.7748 72.7889 59.5555 72.9739 59.3052 73.1076C59.0548 73.2414 58.7791 73.3208 58.496 73.3407Z" fill="#191919"/>
</svg>
